<svg id="svg" version="1.1" xmlns="http://www.w3.org/2000/svg" xmlns:xlink="http://www.w3.org/1999/xlink" width="400" height="400" viewBox="0, 0, 400,400"><g id="svgg"><path id="path0" d="M96.400 35.149 C 94.625 35.628,93.962 37.763,93.557 44.313 C 93.210 49.909,93.041 51.535,91.961 59.674 C 91.375 64.094,91.591 65.017,93.295 65.362 C 95.181 65.743,126.770 65.199,128.218 64.761 L 129.436 64.392 128.948 61.096 C 128.679 59.283,128.259 53.660,128.013 48.600 C 127.767 43.540,127.367 38.733,127.125 37.918 C 126.248 34.973,121.637 34.207,118.258 36.445 C 114.748 38.770,106.492 38.616,103.566 36.172 C 101.867 34.752,99.255 34.380,96.400 35.149 M91.696 79.264 C 91.373 79.587,91.194 81.093,91.183 83.580 C 91.151 90.398,90.567 95.578,89.695 96.757 C 89.265 97.339,88.784 98.222,88.626 98.718 C 88.148 100.224,87.212 100.622,81.318 101.826 C 80.067 102.082,79.605 104.132,79.602 109.438 C 79.600 114.377,79.513 114.196,82.800 116.116 C 87.159 118.662,87.784 119.531,87.936 123.259 C 88.148 128.448,87.364 137.064,86.448 139.616 C 86.010 140.834,85.439 143.444,85.179 145.416 C 84.842 147.969,84.317 149.805,83.353 151.799 C 82.609 153.338,82.000 154.976,82.000 155.439 C 82.000 155.903,81.556 156.893,81.012 157.641 C 80.469 158.388,79.466 160.125,78.784 161.500 C 78.101 162.875,77.393 164.000,77.211 164.000 C 76.919 164.000,75.312 166.306,74.840 167.400 C 74.746 167.620,74.203 168.273,73.634 168.852 C 73.065 169.431,71.880 170.776,71.000 171.841 C 70.120 172.907,68.860 174.328,68.200 174.999 C 67.540 175.671,66.650 176.903,66.222 177.738 C 65.794 178.572,65.144 179.416,64.777 179.613 C 64.409 179.809,63.700 181.064,63.200 182.401 C 62.700 183.737,61.953 185.068,61.541 185.357 C 61.037 185.710,60.535 187.051,60.013 189.441 C 59.586 191.398,58.962 193.775,58.628 194.723 C 57.471 197.999,57.200 203.040,57.200 221.290 C 57.200 243.523,56.338 241.200,64.591 241.200 C 71.430 241.200,71.363 241.244,71.734 236.448 C 71.908 234.198,72.208 233.125,72.998 231.932 C 73.567 231.071,74.231 229.339,74.472 228.083 C 74.766 226.555,75.280 225.403,76.028 224.600 C 76.642 223.940,77.265 222.913,77.411 222.318 C 78.147 219.330,88.403 209.665,91.800 208.758 C 92.680 208.523,93.850 207.913,94.400 207.403 C 95.084 206.768,96.473 206.260,98.800 205.792 C 100.670 205.416,103.100 204.742,104.200 204.296 C 106.908 203.196,114.497 203.117,117.200 204.160 C 119.133 204.906,120.484 205.265,124.104 205.994 C 125.371 206.250,126.901 206.869,127.504 207.371 C 128.107 207.873,129.320 208.512,130.200 208.790 C 131.080 209.067,132.340 209.785,133.000 210.385 C 133.660 210.984,134.877 211.879,135.705 212.373 C 136.533 212.867,137.382 213.593,137.592 213.986 C 137.803 214.379,138.790 215.083,139.787 215.552 C 140.784 216.021,141.600 216.678,141.600 217.012 C 141.600 217.346,142.041 217.787,142.579 217.992 C 143.714 218.423,144.626 219.692,145.029 221.400 C 145.185 222.060,145.905 223.153,146.628 223.828 C 147.743 224.869,147.987 225.434,148.222 227.517 C 148.431 229.362,148.678 230.034,149.207 230.202 C 150.266 230.538,150.830 232.314,151.130 236.255 L 151.400 239.800 156.800 239.800 C 159.770 239.800,162.515 239.671,162.900 239.513 C 163.896 239.104,163.974 206.257,162.988 202.520 C 162.652 201.244,162.093 197.590,161.747 194.400 C 161.191 189.271,161.011 188.507,160.197 187.800 C 159.006 186.766,158.402 185.534,158.394 184.126 C 158.387 182.803,158.060 182.238,157.101 181.884 C 156.716 181.742,155.967 180.645,155.437 179.446 C 154.907 178.247,154.020 176.970,153.467 176.607 C 152.913 176.244,152.275 175.418,152.050 174.771 C 151.816 174.102,151.197 173.427,150.611 173.204 C 149.921 172.942,149.502 172.411,149.338 171.589 C 149.176 170.779,148.695 170.159,147.915 169.756 C 147.267 169.421,146.479 168.529,146.163 167.773 C 145.847 167.018,145.350 166.400,145.057 166.400 C 144.138 166.400,143.210 165.005,142.700 162.860 C 142.372 161.480,141.963 160.715,141.468 160.558 C 140.617 160.288,139.813 158.550,139.412 156.117 C 139.219 154.941,138.897 154.358,138.345 154.182 C 137.317 153.856,136.917 152.733,136.422 148.783 C 136.150 146.621,135.748 145.206,135.209 144.521 C 133.731 142.642,133.483 140.529,133.195 127.400 C 132.940 115.770,132.838 114.395,132.073 112.361 C 131.044 109.623,130.401 102.434,130.398 93.642 C 130.397 90.209,130.280 85.655,130.139 83.522 L 129.882 79.644 118.441 79.417 C 112.149 79.292,103.668 79.094,99.596 78.978 C 94.000 78.819,92.072 78.888,91.696 79.264 M287.600 106.266 C 285.332 106.624,284.821 106.883,281.477 109.376 C 276.335 113.210,277.027 113.000,269.531 113.000 C 263.226 113.000,262.799 113.049,261.731 113.896 C 261.109 114.389,259.790 115.274,258.800 115.863 C 257.810 116.451,256.581 117.308,256.069 117.766 C 255.220 118.527,254.561 118.611,248.569 118.727 L 242.000 118.854 240.200 121.064 C 239.210 122.279,238.400 123.409,238.400 123.575 C 238.400 124.754,233.602 128.396,232.046 128.399 C 230.199 128.401,227.923 129.360,226.410 130.772 C 223.638 133.360,223.600 133.702,223.600 156.342 L 223.600 176.334 224.599 178.324 C 225.804 180.722,226.341 180.977,228.427 180.142 C 231.173 179.044,231.200 178.890,231.202 164.320 C 231.205 147.289,232.099 143.285,236.448 140.826 C 237.244 140.376,238.137 139.717,238.432 139.362 C 240.454 136.925,249.839 136.776,252.783 139.134 C 253.562 139.759,254.576 140.470,255.036 140.715 C 257.914 142.246,260.000 147.234,260.000 152.586 C 260.000 156.670,261.133 158.400,263.807 158.400 C 265.272 158.400,265.595 156.435,265.598 147.520 C 265.601 134.830,267.411 131.072,275.400 127.168 L 278.200 125.800 309.600 125.600 C 346.130 125.367,344.191 125.642,342.042 121.000 C 340.228 117.083,336.806 115.838,332.703 117.604 C 329.418 119.017,326.063 118.920,322.800 117.315 C 319.148 115.519,316.069 114.815,312.055 114.855 C 308.072 114.896,303.923 113.308,301.123 110.672 C 296.718 106.527,293.207 105.383,287.600 106.266 M295.400 107.401 C 295.840 107.492,297.540 108.831,299.177 110.377 C 300.821 111.930,302.791 113.396,303.577 113.652 C 304.360 113.907,305.509 114.540,306.131 115.058 C 307.279 116.015,308.342 116.163,312.929 116.004 C 316.357 115.886,320.461 116.818,321.878 118.037 C 323.975 119.841,329.768 120.084,334.267 118.557 C 337.762 117.370,341.600 120.025,341.600 123.629 C 341.600 124.780,338.324 124.887,310.457 124.647 C 277.932 124.366,276.596 124.419,274.804 126.055 C 274.115 126.685,273.198 127.200,272.766 127.200 C 271.803 127.200,268.563 130.124,267.720 131.755 C 267.379 132.414,266.763 133.233,266.351 133.576 C 265.184 134.547,264.802 137.778,264.772 146.955 C 264.756 151.600,264.612 155.734,264.452 156.142 C 263.934 157.458,261.733 155.214,261.467 153.098 C 260.663 146.694,259.790 143.670,258.471 142.721 C 258.073 142.434,257.633 141.893,257.493 141.517 C 257.353 141.141,256.510 140.374,255.619 139.812 C 254.729 139.250,254.000 138.603,254.000 138.375 C 254.000 135.766,238.659 136.074,237.247 138.711 C 237.018 139.140,236.274 139.721,235.594 140.002 C 234.845 140.313,234.052 141.114,233.582 142.036 C 233.155 142.873,232.561 143.702,232.261 143.879 C 230.699 144.801,230.603 145.738,230.493 161.200 C 230.371 178.304,230.416 177.845,228.828 178.194 C 228.183 178.336,227.436 178.715,227.169 179.038 C 226.761 179.529,226.560 179.350,225.922 177.926 C 224.752 175.311,224.971 133.757,226.162 132.442 C 226.581 131.979,227.174 131.600,227.480 131.600 C 227.786 131.600,228.465 131.172,228.988 130.648 C 229.621 130.015,230.748 129.554,232.349 129.272 C 236.423 128.554,240.019 125.206,241.617 120.646 L 242.022 119.491 246.711 119.684 C 253.431 119.961,256.171 119.568,257.741 118.102 C 258.433 117.455,259.613 116.684,260.362 116.389 C 261.111 116.093,262.259 115.329,262.913 114.689 L 264.102 113.527 268.640 113.811 C 274.290 114.164,277.927 113.578,279.748 112.020 C 280.437 111.431,281.630 110.527,282.400 110.010 C 283.170 109.494,284.250 108.662,284.800 108.161 C 286.033 107.039,291.673 106.635,295.400 107.401 M281.400 137.855 C 280.960 137.952,280.212 138.113,279.738 138.214 C 278.086 138.563,277.600 141.254,277.600 150.052 L 277.600 157.961 276.200 161.145 C 275.430 162.897,274.798 164.480,274.795 164.665 C 274.789 165.080,270.584 168.800,270.121 168.800 C 269.936 168.800,268.528 169.320,266.992 169.956 C 263.687 171.324,261.895 171.228,257.400 169.439 C 251.538 167.106,249.358 163.431,248.550 154.517 C 248.198 150.643,246.296 148.785,244.320 150.384 L 243.400 151.128 243.277 165.542 L 243.154 179.956 244.369 180.584 C 246.313 181.589,341.644 181.328,342.657 180.315 C 343.176 179.795,343.411 178.575,343.630 175.265 C 343.984 169.904,344.105 169.673,347.436 167.981 C 351.392 165.974,351.657 165.386,351.515 158.931 C 351.381 152.794,351.188 152.422,347.217 150.640 C 343.993 149.193,343.923 149.057,343.691 143.795 C 343.393 137.028,347.441 137.810,312.332 137.739 C 295.760 137.706,281.840 137.758,281.400 137.855 M318.100 140.772 L 319.200 142.328 319.200 159.554 L 319.200 176.779 317.900 177.490 C 316.687 178.153,314.220 178.207,280.900 178.310 L 245.200 178.421 245.200 164.787 C 245.200 155.799,245.336 151.237,245.600 151.400 C 245.825 151.539,246.000 153.475,246.000 155.836 C 246.000 160.389,246.579 162.549,247.914 162.973 C 248.451 163.143,248.781 163.719,248.951 164.784 C 249.128 165.888,249.546 166.592,250.377 167.183 C 251.024 167.644,251.663 168.367,251.797 168.790 C 252.037 169.546,252.301 169.681,254.500 170.170 C 255.105 170.305,255.600 170.654,255.600 170.946 C 255.600 173.865,268.506 174.205,269.783 171.319 C 270.023 170.777,270.772 170.295,271.783 170.031 C 274.276 169.381,276.400 167.077,276.400 165.026 C 276.400 164.361,276.688 164.014,277.388 163.839 C 279.206 163.382,279.362 162.486,279.530 151.497 L 279.687 141.193 280.614 140.961 C 281.124 140.833,281.852 140.384,282.233 139.964 C 282.893 139.235,283.693 139.200,299.962 139.209 L 317.000 139.217 318.100 140.772 M59.200 303.960 L 57.400 304.200 57.400 340.229 L 57.400 376.259 59.000 379.684 C 60.377 382.632,60.809 383.203,62.102 383.784 C 62.928 384.156,63.781 384.790,63.997 385.195 C 65.099 387.253,65.053 387.251,102.601 387.015 C 152.403 386.704,154.960 386.625,155.769 385.390 C 156.123 384.851,157.106 384.056,157.956 383.623 C 159.823 382.670,161.595 380.657,161.613 379.469 C 161.620 378.991,162.009 377.610,162.478 376.400 C 163.165 374.624,163.387 372.889,163.625 367.400 C 163.787 363.660,164.109 359.340,164.339 357.800 C 164.570 356.260,164.768 354.795,164.779 354.544 C 164.845 353.092,166.221 352.362,169.518 352.031 C 173.678 351.612,173.330 352.202,173.527 345.248 C 173.720 338.449,173.989 338.918,169.683 338.516 C 165.834 338.157,164.400 336.409,164.400 332.077 C 164.400 331.181,164.220 330.336,164.000 330.200 C 163.747 330.044,163.600 325.335,163.600 317.395 L 163.600 304.836 162.300 304.599 C 161.585 304.468,158.840 304.415,156.200 304.480 L 151.400 304.600 151.130 308.661 C 150.865 312.655,150.299 314.522,149.035 315.571 C 148.695 315.854,148.301 316.953,148.160 318.015 C 147.873 320.179,146.703 322.400,145.849 322.400 C 145.540 322.400,145.165 322.895,145.016 323.500 C 144.611 325.150,143.673 326.400,142.841 326.400 C 142.339 326.400,142.023 326.784,141.862 327.589 C 141.686 328.468,141.334 328.849,140.512 329.046 C 139.900 329.193,138.892 329.918,138.271 330.657 C 137.650 331.396,136.916 332.000,136.641 332.000 C 136.365 332.000,135.703 332.468,135.170 333.039 C 134.636 333.610,133.480 334.445,132.600 334.894 C 131.720 335.342,130.497 336.130,129.882 336.644 C 129.267 337.158,128.007 337.768,127.082 337.998 C 126.157 338.229,124.295 338.966,122.945 339.637 C 118.393 341.899,103.233 342.057,99.488 339.881 C 98.559 339.342,96.720 338.593,95.400 338.217 C 94.080 337.841,92.550 337.108,92.000 336.589 C 91.450 336.069,90.445 335.409,89.766 335.122 C 87.679 334.239,86.004 332.749,79.450 325.947 C 78.680 325.148,77.760 323.801,77.406 322.953 C 77.052 322.105,76.409 321.035,75.977 320.576 C 75.546 320.117,74.923 318.703,74.592 317.434 C 74.262 316.166,73.526 314.334,72.958 313.364 C 72.153 311.991,71.877 310.870,71.711 308.300 C 71.409 303.634,71.346 303.586,65.638 303.660 C 63.087 303.693,60.190 303.828,59.200 303.960 M247.341 377.200 C 247.046 377.970,246.264 379.622,245.603 380.872 C 244.138 383.638,244.005 385.918,245.242 387.038 C 246.057 387.776,247.448 387.803,289.513 387.907 L 332.942 388.014 334.003 386.997 C 336.062 385.024,333.477 376.039,330.838 375.996 C 330.707 375.994,311.987 375.949,289.238 375.896 L 247.876 375.800 247.341 377.200 " stroke="none" fill="#73c085" fill-rule="evenodd"></path><path id="path1" d="M287.600 107.126 C 286.417 107.208,285.457 107.563,284.800 108.161 C 284.250 108.662,283.170 109.494,282.400 110.010 C 281.630 110.527,280.437 111.431,279.748 112.020 C 277.927 113.578,274.290 114.164,268.640 113.811 L 264.102 113.527 262.913 114.689 C 262.259 115.329,261.111 116.093,260.362 116.389 C 259.613 116.684,258.433 117.455,257.741 118.102 C 256.171 119.568,253.431 119.961,246.711 119.684 L 242.022 119.491 241.617 120.646 C 240.019 125.206,236.423 128.554,232.349 129.272 C 230.748 129.554,229.621 130.015,228.988 130.648 C 228.465 131.172,227.786 131.600,227.480 131.600 C 227.174 131.600,226.581 131.979,226.162 132.442 C 224.971 133.757,224.752 175.311,225.922 177.926 C 226.560 179.350,226.761 179.529,227.169 179.038 C 227.436 178.715,228.183 178.336,228.828 178.194 C 230.416 177.845,230.371 178.304,230.493 161.200 C 230.603 145.738,230.699 144.801,232.261 143.879 C 232.561 143.702,233.155 142.873,233.582 142.036 C 234.052 141.114,234.845 140.313,235.594 140.002 C 236.274 139.721,237.018 139.140,237.247 138.711 C 238.659 136.074,254.000 135.766,254.000 138.375 C 254.000 138.603,254.729 139.250,255.619 139.812 C 256.510 140.374,257.353 141.141,257.493 141.517 C 257.633 141.893,258.073 142.434,258.471 142.721 C 259.790 143.670,260.663 146.694,261.467 153.098 C 261.733 155.214,263.934 157.458,264.452 156.142 C 264.612 155.734,264.756 151.600,264.772 146.955 C 264.802 137.778,265.184 134.547,266.351 133.576 C 266.763 133.233,267.379 132.414,267.720 131.755 C 268.563 130.124,271.803 127.200,272.766 127.200 C 273.198 127.200,274.115 126.685,274.804 126.055 C 276.596 124.419,277.932 124.366,310.457 124.647 C 338.324 124.887,341.600 124.780,341.600 123.629 C 341.600 120.025,337.762 117.370,334.267 118.557 C 329.768 120.084,323.975 119.841,321.878 118.037 C 320.461 116.818,316.357 115.886,312.929 116.004 C 308.342 116.163,307.279 116.015,306.131 115.058 C 305.509 114.540,304.360 113.907,303.577 113.652 C 302.791 113.396,300.821 111.930,299.177 110.377 C 297.540 108.831,295.840 107.492,295.400 107.401 C 294.164 107.147,289.604 106.986,287.600 107.126 M282.233 139.964 C 281.852 140.384,281.124 140.833,280.614 140.961 L 279.687 141.193 279.530 151.497 C 279.362 162.486,279.206 163.382,277.388 163.839 C 276.688 164.014,276.400 164.361,276.400 165.026 C 276.400 167.077,274.276 169.381,271.783 170.031 C 270.772 170.295,270.023 170.777,269.783 171.319 C 268.506 174.205,255.600 173.865,255.600 170.946 C 255.600 170.654,255.105 170.305,254.500 170.170 C 252.301 169.681,252.037 169.546,251.797 168.790 C 251.663 168.367,251.024 167.644,250.377 167.183 C 249.546 166.592,249.128 165.888,248.951 164.784 C 248.781 163.719,248.451 163.143,247.914 162.973 C 246.579 162.549,246.000 160.389,246.000 155.836 C 246.000 153.475,245.825 151.539,245.600 151.400 C 245.336 151.237,245.200 155.799,245.200 164.787 L 245.200 178.421 280.900 178.310 C 314.220 178.207,316.687 178.153,317.900 177.490 L 319.200 176.779 319.200 159.554 L 319.200 142.328 318.100 140.772 L 317.000 139.217 299.962 139.209 C 283.693 139.200,282.893 139.235,282.233 139.964 M238.622 194.366 C 237.611 195.496,238.262 208.487,239.595 213.800 C 240.037 215.560,240.758 221.050,241.197 226.000 C 241.755 232.290,242.238 235.692,242.802 237.297 C 243.245 238.561,243.875 242.001,244.201 244.941 C 244.588 248.439,245.139 251.204,245.792 252.940 C 246.389 254.525,247.039 257.607,247.407 260.595 C 248.054 265.845,248.131 266.199,249.071 268.320 C 249.698 269.734,249.699 269.737,250.594 277.000 C 250.920 279.640,251.537 282.796,251.966 284.012 C 252.760 286.267,253.262 289.560,254.004 297.400 C 254.234 299.820,254.775 303.132,255.207 304.759 C 257.496 313.379,257.350 343.913,254.983 351.800 C 253.499 356.741,253.157 360.917,254.107 362.479 L 254.867 363.729 289.416 363.484 C 329.877 363.197,328.225 363.405,326.016 358.859 C 325.256 357.294,325.026 355.749,324.548 349.001 C 324.236 344.601,323.800 340.010,323.578 338.800 C 322.783 334.459,322.664 325.299,323.341 320.400 C 323.690 317.870,324.160 312.650,324.386 308.800 C 324.611 304.950,324.879 300.435,324.980 298.766 C 325.082 297.098,325.613 294.361,326.160 292.684 C 326.779 290.787,327.324 287.778,327.603 284.718 C 328.114 279.112,328.601 276.573,329.403 275.344 C 329.973 274.469,330.403 272.183,331.196 265.800 C 331.442 263.820,331.976 261.480,332.383 260.600 C 333.076 259.099,333.592 256.131,334.224 250.000 C 334.372 248.570,334.923 246.250,335.449 244.845 C 335.975 243.440,336.588 240.560,336.811 238.445 C 337.756 229.485,338.045 227.594,338.804 225.388 C 339.327 223.867,339.740 221.114,339.997 217.431 C 340.213 214.334,340.575 209.100,340.800 205.800 C 341.026 202.500,341.321 198.784,341.457 197.543 C 341.895 193.531,346.993 193.909,289.479 193.688 L 239.400 193.496 238.622 194.366 M105.400 217.622 C 104.300 218.054,102.320 218.705,101.000 219.070 C 99.666 219.439,97.945 220.281,97.125 220.967 C 96.313 221.645,94.741 222.920,93.630 223.800 C 92.520 224.680,91.609 225.520,91.606 225.666 C 91.603 225.813,90.807 226.784,89.838 227.824 C 88.870 228.865,87.972 230.238,87.845 230.876 C 87.717 231.515,87.186 232.614,86.665 233.318 C 85.337 235.116,85.244 235.489,84.776 240.941 C 84.382 245.534,84.273 245.945,82.786 248.459 C 79.719 253.643,78.753 254.006,67.113 254.354 C 60.874 254.540,58.282 254.758,57.913 255.126 C 57.225 255.814,56.930 288.993,57.605 289.806 C 57.939 290.209,60.228 290.367,67.194 290.468 C 75.998 290.595,76.386 290.634,77.472 291.505 C 78.092 292.003,79.203 292.720,79.941 293.099 C 80.778 293.528,81.679 294.523,82.341 295.747 C 82.923 296.825,83.634 298.131,83.919 298.648 C 84.205 299.165,84.531 301.166,84.645 303.094 C 84.911 307.579,85.510 310.390,86.418 311.400 C 86.813 311.840,87.499 313.161,87.943 314.335 C 88.387 315.510,89.391 317.093,90.175 317.855 C 90.959 318.616,91.600 319.496,91.600 319.810 C 91.600 320.124,92.095 320.692,92.700 321.072 C 93.305 321.452,94.462 322.345,95.272 323.055 C 96.081 323.766,97.410 324.531,98.225 324.756 C 99.040 324.981,100.368 325.624,101.177 326.184 C 104.925 328.782,118.003 328.491,121.331 325.736 C 121.953 325.221,122.863 324.800,123.355 324.800 C 123.846 324.800,125.183 324.002,126.326 323.026 C 127.468 322.051,128.721 321.152,129.110 321.029 C 129.498 320.905,130.164 320.158,130.590 319.367 C 131.016 318.576,131.749 317.626,132.219 317.257 C 132.689 316.887,133.476 315.508,133.967 314.192 C 134.459 312.876,135.105 311.530,135.403 311.199 C 136.411 310.081,136.828 308.284,137.192 303.500 C 137.460 299.971,137.742 298.468,138.277 297.722 C 138.675 297.168,139.371 296.107,139.825 295.365 C 140.278 294.622,141.718 293.247,143.025 292.310 L 145.400 290.604 154.600 290.396 C 159.660 290.282,164.025 290.046,164.300 289.871 C 164.832 289.533,165.064 259.021,164.555 256.473 C 164.223 254.816,162.193 254.400,154.435 254.400 C 144.838 254.400,142.909 253.837,140.315 250.276 C 137.685 246.666,137.591 246.399,137.186 241.432 C 136.801 236.708,136.476 235.403,135.246 233.648 C 134.843 233.071,134.203 231.655,133.824 230.500 C 133.446 229.345,132.979 228.400,132.787 228.400 C 132.595 228.400,131.881 227.590,131.200 226.600 C 130.519 225.610,129.771 224.800,129.538 224.800 C 129.306 224.800,128.758 224.346,128.322 223.792 C 127.886 223.238,127.013 222.517,126.381 222.190 C 125.749 221.864,124.810 221.173,124.293 220.656 C 123.770 220.133,122.387 219.490,121.176 219.207 C 119.979 218.927,117.970 218.271,116.712 217.749 C 113.701 216.500,108.410 216.441,105.400 217.622 M139.031 266.475 C 142.514 268.383,144.472 272.942,142.652 274.906 C 142.108 275.493,141.545 276.342,141.403 276.791 C 140.762 278.809,140.906 278.800,111.000 278.800 C 82.209 278.800,80.800 278.726,80.800 277.204 C 80.800 276.997,80.237 276.187,79.549 275.403 C 76.880 272.363,79.646 267.193,84.600 265.963 C 87.362 265.278,137.710 265.751,139.031 266.475 " stroke="none" fill="#f7dd50" fill-rule="evenodd"></path><path id="path2" d="M87.473 13.883 C 85.208 14.236,84.108 19.356,85.537 22.900 C 86.228 24.615,89.393 24.508,91.452 22.700 L 92.933 21.400 99.399 21.400 L 105.865 21.400 107.396 22.743 C 109.456 24.552,112.844 24.474,114.825 22.574 C 117.153 20.342,128.516 20.663,131.073 23.033 C 131.978 23.872,132.482 24.017,134.138 23.918 L 136.120 23.800 136.701 21.800 C 137.376 19.478,136.885 16.287,135.610 14.712 L 134.871 13.800 111.736 13.754 C 99.011 13.728,88.093 13.786,87.473 13.883 M96.036 34.349 C 93.840 34.964,93.532 35.986,92.408 46.400 C 90.529 63.820,90.547 65.219,92.664 66.024 C 94.538 66.737,127.752 66.023,129.327 65.236 C 130.803 64.498,130.832 63.944,129.781 56.400 C 129.459 54.090,128.950 48.960,128.651 45.000 C 128.351 41.040,127.903 37.296,127.655 36.681 C 126.619 34.106,121.978 33.657,117.467 35.696 C 113.094 37.672,108.612 37.605,104.396 35.500 C 101.343 33.975,98.683 33.609,96.036 34.349 M103.566 36.172 C 106.492 38.616,114.748 38.770,118.258 36.445 C 121.637 34.207,126.248 34.973,127.125 37.918 C 127.367 38.733,127.767 43.540,128.013 48.600 C 128.259 53.660,128.679 59.283,128.948 61.096 L 129.436 64.392 128.218 64.761 C 126.770 65.199,95.181 65.743,93.295 65.362 C 91.591 65.017,91.375 64.094,91.961 59.674 C 93.041 51.535,93.210 49.909,93.557 44.313 C 94.088 35.740,94.610 34.929,99.662 34.840 C 101.682 34.804,102.101 34.947,103.566 36.172 M91.122 78.878 C 90.726 79.487,90.427 81.430,90.241 84.600 C 89.823 91.728,89.265 95.054,88.071 97.518 L 87.000 99.730 83.601 100.565 C 80.855 101.239,80.179 101.554,80.080 102.200 C 79.991 102.778,80.057 102.854,80.317 102.476 C 80.515 102.187,82.010 101.679,83.639 101.346 C 86.997 100.659,88.213 100.019,88.626 98.718 C 88.784 98.222,89.265 97.339,89.695 96.757 C 90.568 95.576,91.152 90.395,91.183 83.549 C 91.206 78.460,90.726 78.718,99.662 78.977 C 103.698 79.095,112.149 79.293,118.441 79.417 L 129.882 79.644 130.139 83.522 C 130.280 85.655,130.397 90.209,130.398 93.642 C 130.401 102.434,131.044 109.623,132.073 112.361 C 132.838 114.395,132.940 115.770,133.195 127.400 C 133.483 140.529,133.731 142.642,135.209 144.521 C 135.748 145.206,136.150 146.621,136.422 148.783 C 136.917 152.733,137.317 153.856,138.345 154.182 C 138.897 154.358,139.219 154.941,139.412 156.117 C 139.813 158.550,140.617 160.288,141.468 160.558 C 141.963 160.715,142.372 161.480,142.700 162.860 C 143.210 165.005,144.138 166.400,145.057 166.400 C 145.350 166.400,145.847 167.018,146.163 167.773 C 146.479 168.529,147.267 169.421,147.915 169.756 C 148.695 170.159,149.176 170.779,149.338 171.589 C 149.502 172.411,149.921 172.942,150.611 173.204 C 151.197 173.427,151.816 174.102,152.050 174.771 C 152.275 175.418,152.913 176.244,153.467 176.607 C 154.020 176.970,154.907 178.247,155.437 179.446 C 155.967 180.645,156.716 181.742,157.101 181.884 C 158.060 182.238,158.387 182.803,158.394 184.126 C 158.402 185.534,159.006 186.766,160.197 187.800 C 161.011 188.507,161.191 189.271,161.747 194.400 C 162.093 197.590,162.652 201.244,162.988 202.520 C 163.974 206.257,163.896 239.104,162.900 239.513 C 162.515 239.671,159.770 239.800,156.800 239.800 L 151.400 239.800 151.130 236.255 C 150.830 232.314,150.266 230.538,149.207 230.202 C 148.678 230.034,148.431 229.362,148.222 227.517 C 147.987 225.434,147.743 224.869,146.628 223.828 C 145.905 223.153,145.185 222.060,145.029 221.400 C 144.626 219.692,143.714 218.423,142.579 217.992 C 142.041 217.787,141.600 217.346,141.600 217.012 C 141.600 216.678,140.784 216.021,139.787 215.552 C 138.790 215.083,137.803 214.379,137.592 213.986 C 137.382 213.593,136.533 212.867,135.705 212.373 C 134.877 211.879,133.660 210.984,133.000 210.385 C 132.340 209.785,131.080 209.067,130.200 208.790 C 129.320 208.512,128.107 207.873,127.504 207.371 C 126.901 206.869,125.371 206.250,124.104 205.994 C 120.484 205.265,119.133 204.906,117.200 204.160 C 114.497 203.117,106.908 203.196,104.200 204.296 C 103.100 204.742,100.670 205.416,98.800 205.792 C 96.473 206.260,95.084 206.768,94.400 207.403 C 93.850 207.913,92.680 208.523,91.800 208.758 C 88.403 209.665,78.147 219.330,77.411 222.318 C 77.265 222.913,76.642 223.940,76.028 224.600 C 75.280 225.403,74.766 226.555,74.472 228.083 C 74.231 229.339,73.567 231.071,72.998 231.932 C 72.208 233.125,71.908 234.198,71.734 236.448 C 71.363 241.244,71.430 241.200,64.591 241.200 C 56.338 241.200,57.200 243.523,57.200 221.290 C 57.200 203.040,57.471 197.999,58.628 194.723 C 58.962 193.775,59.586 191.398,60.013 189.441 C 60.535 187.051,61.037 185.710,61.541 185.357 C 61.953 185.068,62.700 183.737,63.200 182.401 C 63.700 181.064,64.409 179.809,64.777 179.613 C 65.144 179.416,65.794 178.572,66.222 177.738 C 66.650 176.903,67.540 175.671,68.200 174.999 C 68.860 174.328,70.120 172.907,71.000 171.841 C 71.880 170.776,73.065 169.431,73.634 168.852 C 74.203 168.273,74.746 167.620,74.840 167.400 C 75.312 166.306,76.919 164.000,77.211 164.000 C 77.393 164.000,78.101 162.875,78.784 161.500 C 79.466 160.125,80.469 158.388,81.012 157.641 C 81.556 156.893,82.000 155.903,82.000 155.439 C 82.000 154.976,82.609 153.338,83.353 151.799 C 84.317 149.805,84.842 147.969,85.179 145.416 C 85.439 143.444,86.010 140.834,86.446 139.616 C 87.692 136.142,88.521 122.622,87.632 120.284 C 87.288 119.380,84.321 116.975,80.991 114.901 L 79.546 114.001 80.423 115.232 C 80.905 115.909,81.592 116.572,81.950 116.706 C 87.220 118.671,88.336 125.041,85.611 137.600 C 85.205 139.470,84.664 142.619,84.408 144.597 C 84.123 146.809,83.573 148.934,82.980 150.114 C 82.450 151.170,81.768 152.983,81.465 154.143 C 81.162 155.304,80.259 157.206,79.457 158.371 C 78.656 159.537,77.998 160.695,77.996 160.945 C 77.993 161.195,77.275 162.300,76.400 163.400 C 75.525 164.500,74.807 165.560,74.804 165.755 C 74.802 165.951,74.069 166.941,73.175 167.955 C 72.281 168.970,70.886 170.588,70.075 171.551 C 69.264 172.515,68.205 173.728,67.721 174.248 C 67.238 174.768,66.309 175.970,65.655 176.920 C 65.002 177.869,64.192 178.875,63.854 179.155 C 63.517 179.435,63.032 180.325,62.777 181.132 C 62.522 181.939,61.794 183.263,61.159 184.073 C 60.378 185.070,59.745 186.662,59.201 188.997 C 58.758 190.894,58.122 192.976,57.788 193.624 C 56.247 196.602,55.646 237.888,57.101 240.800 L 57.800 242.200 64.284 242.310 L 70.769 242.420 71.410 241.441 C 71.763 240.902,72.225 239.241,72.436 237.748 C 72.647 236.256,73.244 234.127,73.761 233.017 C 74.278 231.908,74.823 230.158,74.971 229.129 C 75.119 228.100,75.674 226.660,76.204 225.929 C 76.734 225.198,77.548 223.906,78.013 223.058 C 82.161 215.494,92.618 207.803,100.966 206.175 C 110.708 204.276,110.427 204.276,120.773 206.171 C 128.427 207.572,140.711 216.046,143.682 221.973 C 144.186 222.978,145.080 224.340,145.669 225.000 C 146.281 225.686,147.010 227.255,147.371 228.664 C 147.719 230.018,148.451 232.088,148.998 233.264 C 149.623 234.606,149.994 236.120,149.996 237.338 C 149.998 238.445,150.294 239.775,150.686 240.438 L 151.372 241.600 156.986 241.595 C 166.054 241.586,165.202 243.653,165.193 221.681 C 165.186 202.684,164.904 198.223,163.436 193.861 C 162.906 192.287,162.263 189.963,162.007 188.695 C 161.750 187.428,161.137 185.898,160.645 185.295 C 160.152 184.693,159.337 183.210,158.833 182.000 C 158.329 180.790,157.522 179.350,157.039 178.800 C 156.557 178.250,155.926 177.325,155.637 176.744 C 155.348 176.163,154.682 175.458,154.156 175.176 C 153.630 174.895,153.200 174.511,153.200 174.323 C 153.200 174.136,152.480 173.201,151.600 172.246 C 150.720 171.292,150.000 170.337,150.000 170.125 C 150.000 169.913,149.530 169.303,148.956 168.770 C 147.303 167.235,143.684 162.272,143.404 161.158 C 143.264 160.600,142.720 159.644,142.194 159.033 C 141.669 158.421,140.852 156.760,140.380 155.341 C 139.908 153.922,139.100 152.004,138.585 151.080 C 138.016 150.058,137.398 147.833,137.009 145.400 C 136.657 143.200,136.020 140.270,135.594 138.888 C 135.019 137.025,134.714 134.237,134.413 128.088 C 133.626 112.017,133.148 104.958,132.581 101.000 C 131.902 96.263,131.204 87.033,131.202 82.762 C 131.199 78.162,132.941 78.548,110.760 78.230 L 91.721 77.956 91.122 78.878 M286.076 105.757 C 284.908 106.053,283.468 106.735,282.876 107.271 C 282.284 107.807,281.080 108.728,280.200 109.319 C 279.320 109.909,278.092 110.799,277.470 111.296 C 276.396 112.155,276.001 112.200,269.470 112.203 C 262.732 112.207,260.009 112.698,259.997 113.910 C 259.996 114.070,259.321 114.635,258.497 115.168 C 257.674 115.700,256.295 116.600,255.433 117.168 C 253.913 118.169,253.699 118.197,248.233 118.100 C 241.026 117.971,240.457 118.247,237.600 123.244 C 236.296 125.526,233.432 127.479,230.934 127.791 C 227.024 128.279,225.813 129.184,223.617 133.256 L 222.400 135.512 222.400 156.162 L 222.400 176.812 223.849 178.995 C 225.739 181.842,227.981 182.364,230.137 180.460 C 231.743 179.042,231.795 178.562,232.000 163.400 C 232.199 148.663,232.204 148.592,233.173 146.800 C 233.708 145.810,234.495 144.318,234.922 143.485 C 235.392 142.569,236.193 141.762,236.949 141.445 C 237.637 141.157,238.758 140.451,239.439 139.876 C 242.390 137.388,249.290 137.355,252.000 139.817 C 252.550 140.317,253.675 141.003,254.500 141.342 C 255.325 141.682,256.000 142.225,256.000 142.549 C 256.000 142.873,256.507 143.647,257.127 144.269 C 258.442 145.589,259.199 148.689,259.202 152.767 C 259.205 156.477,259.760 158.213,261.106 158.721 C 265.923 160.542,266.140 160.068,266.448 147.068 C 266.584 141.311,266.719 136.568,266.748 136.529 C 266.776 136.489,267.060 136.197,267.377 135.880 C 267.695 135.563,268.370 134.592,268.877 133.724 C 272.161 128.103,276.223 126.800,290.455 126.800 C 296.072 126.800,309.922 126.680,321.232 126.533 L 341.795 126.267 342.894 125.167 C 344.578 123.483,344.004 121.237,341.094 118.133 C 338.682 115.560,335.175 115.151,331.557 117.022 C 329.627 118.020,326.108 117.919,323.814 116.800 C 319.279 114.588,316.722 113.885,312.720 113.752 C 307.105 113.564,304.676 112.640,300.779 109.206 C 296.609 105.531,291.593 104.355,286.076 105.757 M294.326 106.369 C 296.114 106.714,298.567 108.268,301.123 110.672 C 303.923 113.308,308.072 114.896,312.055 114.855 C 316.069 114.815,319.148 115.519,322.800 117.315 C 326.063 118.920,329.418 119.017,332.703 117.604 C 336.806 115.838,340.228 117.083,342.042 121.000 C 344.191 125.642,346.130 125.367,309.600 125.600 L 278.200 125.800 275.400 127.168 C 267.411 131.072,265.601 134.830,265.598 147.520 C 265.595 156.435,265.272 158.400,263.807 158.400 C 261.133 158.400,260.000 156.670,260.000 152.586 C 260.000 147.234,257.914 142.246,255.036 140.715 C 254.576 140.470,253.562 139.759,252.783 139.134 C 249.839 136.776,240.454 136.925,238.432 139.362 C 238.137 139.717,237.244 140.376,236.448 140.826 C 232.099 143.285,231.205 147.289,231.202 164.320 C 231.200 178.890,231.173 179.044,228.427 180.142 C 226.341 180.977,225.804 180.722,224.599 178.324 L 223.600 176.334 223.600 156.342 C 223.600 133.702,223.638 133.360,226.410 130.772 C 227.923 129.360,230.199 128.401,232.046 128.399 C 233.602 128.396,238.400 124.754,238.400 123.575 C 238.400 123.409,239.210 122.279,240.200 121.064 L 242.000 118.854 248.569 118.727 C 254.561 118.611,255.220 118.527,256.069 117.766 C 256.581 117.308,257.810 116.451,258.800 115.863 C 259.790 115.274,261.109 114.389,261.731 113.896 C 262.799 113.049,263.226 113.000,269.531 113.000 C 277.027 113.000,276.335 113.210,281.477 109.376 C 283.398 107.944,285.336 106.694,285.785 106.598 C 288.645 105.987,291.897 105.899,294.326 106.369 M281.600 137.072 C 277.229 137.521,277.099 137.839,276.771 148.800 C 276.573 155.419,276.365 157.737,275.867 158.864 C 275.511 159.668,275.028 161.184,274.793 162.231 C 273.211 169.290,258.348 172.128,253.849 166.229 C 253.273 165.473,252.478 164.752,252.083 164.626 C 251.067 164.304,250.363 161.409,250.013 156.111 C 249.688 151.190,249.502 150.774,247.070 149.534 C 245.218 148.589,243.932 148.997,242.984 150.830 C 241.930 152.870,242.098 179.876,243.172 180.950 L 244.022 181.800 292.711 181.906 C 326.950 181.980,341.711 181.883,342.448 181.579 C 343.904 180.978,344.399 179.636,344.404 176.281 C 344.413 170.891,344.571 170.513,347.356 169.239 C 350.097 167.985,350.969 167.150,351.363 165.400 L 351.634 164.200 350.878 165.409 C 350.417 166.147,349.075 167.150,347.436 167.981 C 344.105 169.673,343.984 169.904,343.630 175.265 C 343.411 178.575,343.176 179.795,342.657 180.315 C 341.644 181.328,246.313 181.589,244.369 180.584 L 243.154 179.956 243.277 165.542 L 243.400 151.128 244.320 150.384 C 246.296 148.785,248.198 150.643,248.550 154.517 C 249.358 163.431,251.538 167.106,257.400 169.439 C 261.895 171.228,263.687 171.324,266.992 169.956 C 268.528 169.320,269.936 168.800,270.121 168.800 C 270.584 168.800,274.789 165.080,274.795 164.665 C 274.798 164.480,275.430 162.897,276.200 161.145 L 277.600 157.961 277.600 150.052 C 277.600 140.955,278.055 138.626,279.938 138.098 C 280.522 137.934,294.830 137.800,311.732 137.800 C 347.537 137.800,343.392 137.022,343.691 143.795 C 343.922 149.033,343.992 149.172,347.139 150.612 C 348.381 151.181,349.803 152.027,350.299 152.493 C 350.827 152.989,351.200 153.134,351.200 152.843 C 351.200 151.691,350.289 150.850,348.114 149.992 C 344.687 148.641,344.719 148.700,344.444 143.197 C 344.246 139.251,344.071 138.241,343.513 137.833 C 342.510 137.100,287.861 136.428,281.600 137.072 M238.192 194.157 C 237.721 194.875,237.599 195.896,237.702 198.257 L 237.839 201.400 237.920 198.162 C 238.046 193.082,233.345 193.620,278.629 193.500 L 317.800 193.396 278.309 193.298 L 238.818 193.200 238.192 194.157 M238.209 206.453 C 238.295 209.012,238.748 212.972,239.215 215.253 C 239.682 217.534,240.388 222.460,240.785 226.200 C 241.671 234.558,241.812 233.045,241.002 223.867 C 240.675 220.163,240.021 215.484,239.547 213.468 C 239.074 211.452,238.544 208.002,238.370 205.801 L 238.052 201.800 238.209 206.453 M109.511 216.693 C 110.451 216.778,111.891 216.777,112.711 216.691 C 113.530 216.605,112.760 216.536,111.000 216.537 C 109.240 216.539,108.570 216.609,109.511 216.693 M104.000 217.407 C 103.450 217.726,101.854 218.350,100.453 218.795 C 96.598 220.018,88.563 227.229,87.561 230.364 C 87.308 231.154,86.789 232.160,86.406 232.600 C 85.331 233.837,84.853 235.696,84.372 240.506 C 83.717 247.052,81.686 250.895,77.800 252.937 C 77.140 253.284,76.834 253.575,77.120 253.584 C 80.621 253.692,84.174 247.818,84.772 240.935 C 85.245 235.488,85.338 235.115,86.665 233.318 C 87.186 232.614,87.717 231.515,87.845 230.876 C 87.972 230.238,88.870 228.865,89.838 227.824 C 90.807 226.784,91.603 225.813,91.606 225.666 C 91.609 225.520,92.520 224.680,93.630 223.800 C 94.741 222.920,96.313 221.645,97.125 220.967 C 97.945 220.281,99.666 219.439,101.000 219.070 C 105.078 217.943,107.645 216.838,106.200 216.833 C 105.540 216.830,104.550 217.089,104.000 217.407 M116.377 217.591 C 117.354 218.052,119.329 218.725,120.766 219.086 C 122.282 219.467,123.768 220.131,124.306 220.669 C 124.816 221.179,125.749 221.864,126.381 222.190 C 127.013 222.517,127.886 223.238,128.322 223.792 C 128.758 224.346,129.306 224.800,129.538 224.800 C 129.771 224.800,130.519 225.610,131.200 226.600 C 131.881 227.590,132.641 228.400,132.889 228.400 C 133.700 228.400,129.133 223.619,126.800 222.027 C 126.030 221.501,125.130 220.755,124.800 220.369 C 124.197 219.664,118.039 217.326,115.800 216.953 C 114.798 216.786,114.893 216.891,116.377 217.591 M133.880 230.689 C 134.232 231.740,134.848 233.071,135.250 233.648 C 136.479 235.411,136.801 236.715,137.190 241.481 C 137.586 246.336,138.135 247.796,140.624 250.600 L 141.689 251.800 140.702 250.400 C 138.491 247.262,137.975 245.706,137.559 240.913 C 137.170 236.432,136.561 234.110,135.435 232.815 C 135.142 232.477,134.685 231.528,134.421 230.706 C 134.158 229.884,133.784 229.114,133.591 228.995 C 133.399 228.876,133.529 229.638,133.880 230.689 M241.646 234.346 C 241.621 234.866,242.042 236.936,242.582 238.946 C 243.122 240.956,243.765 244.490,244.012 246.800 C 244.259 249.110,244.791 251.990,245.194 253.200 C 246.376 256.742,246.739 258.383,247.187 262.200 C 247.420 264.180,248.073 267.330,248.639 269.200 C 249.979 273.629,250.028 273.725,249.860 271.584 C 249.781 270.585,249.440 269.145,249.101 268.384 C 248.128 266.195,248.058 265.876,247.407 260.595 C 247.039 257.607,246.389 254.525,245.792 252.940 C 245.139 251.205,244.588 248.439,244.201 244.943 C 243.875 242.004,243.264 238.565,242.844 237.300 C 242.423 236.035,241.992 234.640,241.886 234.200 C 241.719 233.508,241.687 233.527,241.646 234.346 M66.142 253.899 C 59.272 253.999,58.004 254.113,57.542 254.669 C 56.646 255.748,56.526 289.035,57.415 290.017 C 57.991 290.653,59.028 290.750,66.732 290.886 C 75.795 291.046,75.857 291.058,79.198 293.133 C 81.804 294.752,83.837 298.819,84.178 303.092 C 84.570 308.014,85.196 310.846,86.186 312.172 C 86.691 312.847,87.350 314.102,87.652 314.960 C 87.953 315.819,88.776 317.065,89.480 317.730 C 90.184 318.395,90.971 319.447,91.229 320.069 C 91.486 320.691,91.849 321.200,92.035 321.200 C 92.221 321.200,93.285 322.010,94.400 323.000 C 95.515 323.990,96.736 324.799,97.113 324.799 C 97.565 324.798,97.370 324.535,96.544 324.031 C 95.853 323.610,95.163 323.063,95.010 322.816 C 94.858 322.569,94.028 321.923,93.166 321.379 C 92.305 320.835,91.600 320.131,91.600 319.814 C 91.600 319.498,90.959 318.616,90.175 317.855 C 89.391 317.093,88.387 315.510,87.943 314.335 C 87.499 313.161,86.813 311.840,86.418 311.400 C 85.510 310.390,84.911 307.579,84.645 303.094 C 84.531 301.166,84.205 299.165,83.919 298.648 C 83.634 298.131,82.923 296.825,82.341 295.747 C 81.679 294.523,80.778 293.528,79.941 293.099 C 79.203 292.720,78.092 292.003,77.472 291.505 C 76.386 290.634,75.998 290.595,67.194 290.468 C 60.228 290.367,57.939 290.209,57.605 289.806 C 56.930 288.993,57.225 255.814,57.913 255.126 C 58.286 254.754,60.834 254.555,67.186 254.400 C 72.004 254.283,76.078 254.055,76.240 253.894 C 76.401 253.732,76.008 253.641,75.367 253.691 C 74.725 253.741,70.574 253.835,66.142 253.899 M84.600 265.963 C 79.646 267.193,76.880 272.363,79.549 275.403 C 80.237 276.187,80.800 276.997,80.800 277.204 C 80.800 278.727,82.202 278.800,111.080 278.794 C 126.436 278.791,139.208 278.656,139.462 278.494 C 139.716 278.332,127.296 278.251,111.862 278.313 C 79.799 278.442,82.612 278.664,80.498 275.838 C 78.283 272.876,78.447 271.312,81.263 268.538 L 83.231 266.600 110.933 266.600 C 137.233 266.600,138.693 266.638,139.767 267.341 C 140.389 267.749,140.775 267.883,140.624 267.639 C 139.496 265.814,139.351 265.804,111.800 265.733 C 97.500 265.696,85.260 265.799,84.600 265.963 M250.049 275.200 C 249.995 277.486,250.730 281.956,251.793 285.800 C 252.340 287.780,252.947 290.840,253.142 292.600 C 253.448 295.375,253.502 295.528,253.548 293.752 C 253.612 291.232,252.636 285.462,251.811 283.488 C 251.475 282.683,250.948 280.174,250.641 277.913 C 250.334 275.651,250.067 274.430,250.049 275.200 M140.006 295.100 C 139.561 295.925,138.828 297.060,138.378 297.622 C 137.717 298.448,137.490 299.567,137.195 303.457 C 136.829 308.282,136.413 310.079,135.403 311.199 C 135.105 311.530,134.459 312.876,133.967 314.192 C 133.476 315.508,132.689 316.887,132.219 317.257 C 131.749 317.626,131.020 318.569,130.599 319.350 C 130.178 320.132,129.376 320.968,128.817 321.208 C 127.629 321.718,124.103 324.800,124.708 324.800 C 126.585 324.800,133.520 317.252,134.583 314.052 C 134.946 312.957,135.503 311.847,135.819 311.584 C 136.672 310.876,137.204 308.469,137.609 303.487 C 137.880 300.150,138.162 298.778,138.733 298.006 C 139.660 296.751,141.293 293.600,141.016 293.600 C 140.906 293.600,140.452 294.275,140.006 295.100 M253.827 299.069 C 253.929 300.866,254.362 304.016,254.787 306.069 C 256.989 316.694,256.956 340.708,254.726 350.000 C 253.145 356.589,252.782 360.757,253.621 362.700 L 254.355 364.400 278.278 364.372 C 291.435 364.356,302.560 364.189,303.000 364.000 C 303.459 363.803,293.341 363.644,279.294 363.628 L 254.788 363.600 254.067 362.415 C 253.159 360.921,253.528 356.645,254.983 351.800 C 257.373 343.836,257.495 313.686,255.173 304.583 C 254.719 302.806,254.189 300.102,253.994 298.576 L 253.640 295.800 253.827 299.069 M57.052 303.943 C 56.431 304.629,56.388 307.443,56.490 340.850 L 56.600 377.014 58.200 380.154 C 59.080 381.881,60.215 383.587,60.721 383.947 C 61.228 384.306,62.347 385.166,63.207 385.857 C 66.135 388.208,66.012 388.200,100.200 388.200 C 145.781 388.200,156.973 387.679,158.259 385.496 C 158.447 385.178,159.265 384.486,160.079 383.959 C 161.124 383.281,162.051 382.062,163.241 379.800 L 164.925 376.600 165.171 366.600 C 165.485 353.835,165.305 354.270,171.000 352.532 C 173.220 351.855,173.403 351.710,173.437 350.600 C 173.470 349.554,173.454 349.536,173.315 350.459 C 173.140 351.617,172.334 351.986,169.950 351.995 C 164.731 352.014,164.235 353.221,163.623 367.400 C 163.386 372.892,163.166 374.623,162.478 376.400 C 162.009 377.610,161.620 378.991,161.613 379.469 C 161.595 380.657,159.823 382.670,157.956 383.623 C 157.106 384.056,156.123 384.851,155.769 385.390 C 154.960 386.625,152.403 386.704,102.601 387.015 C 65.053 387.251,65.099 387.253,63.997 385.195 C 63.781 384.790,62.928 384.156,62.102 383.784 C 60.809 383.203,60.377 382.632,59.000 379.684 L 57.400 376.259 57.292 340.458 C 57.226 318.725,57.330 304.510,57.556 304.284 C 57.761 304.079,60.646 303.815,63.968 303.698 C 71.490 303.431,71.398 303.378,71.699 308.200 C 71.866 310.865,72.129 311.950,72.951 313.352 C 73.523 314.329,74.262 316.166,74.592 317.434 C 74.923 318.703,75.546 320.117,75.977 320.576 C 76.409 321.035,77.052 322.105,77.406 322.953 C 77.760 323.801,78.680 325.148,79.450 325.947 C 86.004 332.749,87.679 334.239,89.766 335.122 C 90.445 335.409,91.450 336.069,92.000 336.589 C 92.550 337.108,94.080 337.841,95.400 338.217 C 96.720 338.593,98.559 339.342,99.488 339.881 C 103.233 342.057,118.393 341.899,122.945 339.637 C 124.295 338.966,126.157 338.229,127.082 337.998 C 128.007 337.768,129.267 337.158,129.882 336.644 C 130.497 336.130,131.720 335.342,132.600 334.894 C 133.480 334.445,134.636 333.610,135.170 333.039 C 135.703 332.468,136.365 332.000,136.641 332.000 C 136.916 332.000,137.650 331.396,138.271 330.657 C 138.892 329.918,139.900 329.193,140.512 329.046 C 141.334 328.849,141.686 328.468,141.862 327.589 C 142.023 326.784,142.339 326.400,142.841 326.400 C 143.673 326.400,144.611 325.150,145.016 323.500 C 145.165 322.895,145.540 322.400,145.849 322.400 C 146.703 322.400,147.873 320.179,148.160 318.015 C 148.301 316.953,148.695 315.854,149.035 315.571 C 150.299 314.522,150.865 312.655,151.130 308.661 L 151.400 304.600 156.200 304.480 C 158.840 304.415,161.585 304.468,162.300 304.599 L 163.600 304.836 163.600 317.395 C 163.600 325.335,163.747 330.044,164.000 330.200 C 164.220 330.336,164.400 331.181,164.400 332.077 C 164.400 335.991,166.051 338.392,168.754 338.410 C 169.549 338.415,170.883 338.578,171.717 338.771 C 173.951 339.290,172.913 338.224,170.622 337.647 C 169.657 337.404,168.306 336.733,167.620 336.155 C 165.191 334.112,165.200 334.175,165.200 318.848 C 165.200 301.847,166.070 303.600,157.633 303.600 C 150.120 303.600,150.000 303.661,150.000 307.447 C 150.000 309.065,149.737 310.340,149.182 311.415 C 148.732 312.287,148.032 314.186,147.625 315.636 C 146.900 318.224,146.057 320.000,145.553 320.000 C 145.413 320.000,144.895 320.938,144.402 322.083 C 143.909 323.229,143.032 324.633,142.453 325.204 C 141.874 325.774,141.093 326.591,140.718 327.020 C 140.089 327.741,138.785 328.911,134.600 332.516 C 133.720 333.274,132.600 334.018,132.111 334.171 C 131.621 334.323,130.335 335.057,129.252 335.802 C 128.168 336.547,126.176 337.443,124.824 337.794 C 123.472 338.144,121.690 338.783,120.865 339.213 C 117.045 341.204,105.006 341.102,100.651 339.041 C 99.471 338.483,97.749 337.905,96.825 337.758 C 95.887 337.608,94.140 336.807,92.872 335.945 C 91.622 335.096,90.386 334.401,90.124 334.401 C 88.442 334.398,79.365 325.148,77.956 322.001 C 77.542 321.076,76.763 319.796,76.226 319.157 C 75.666 318.493,75.128 317.195,74.967 316.122 C 74.813 315.092,74.262 313.322,73.744 312.190 C 73.226 311.058,72.690 308.977,72.553 307.566 C 72.122 303.109,72.290 303.200,64.453 303.200 C 58.404 303.200,57.656 303.275,57.052 303.943 M98.864 325.338 C 99.449 325.598,100.259 326.105,100.664 326.465 C 103.153 328.680,116.816 328.992,120.422 326.916 C 121.106 326.522,122.235 325.885,122.933 325.501 C 124.013 324.905,124.072 324.801,123.331 324.801 C 122.853 324.800,121.953 325.221,121.331 325.736 C 117.863 328.607,105.065 328.775,100.882 326.005 C 99.882 325.342,98.779 324.815,98.431 324.832 C 98.064 324.851,98.244 325.062,98.864 325.338 M247.254 375.335 C 247.010 375.629,246.549 376.612,246.228 377.520 C 245.908 378.427,245.251 379.705,244.767 380.358 C 243.544 382.013,243.054 385.358,243.819 386.836 C 244.958 389.040,244.095 389.000,290.200 389.000 C 336.740 389.000,334.337 389.122,335.668 386.696 C 336.923 384.408,334.351 376.708,331.866 375.314 C 330.530 374.565,247.877 374.585,247.254 375.335 M330.838 375.996 C 333.477 376.039,336.062 385.024,334.003 386.997 L 332.942 388.014 289.513 387.907 C 247.448 387.803,246.057 387.776,245.242 387.038 C 244.005 385.918,244.138 383.638,245.603 380.872 C 246.264 379.622,247.046 377.970,247.341 377.200 L 247.876 375.800 289.238 375.896 C 311.987 375.949,330.707 375.994,330.838 375.996 " stroke="none" fill="#565654" fill-rule="evenodd"></path><path id="path3" d="M76.800 0.800 C 76.800 1.467,76.533 1.600,75.200 1.600 L 73.600 1.600 73.600 3.200 L 73.600 4.800 72.000 4.800 L 70.400 4.800 70.400 7.120 C 70.400 9.392,70.368 9.459,68.811 10.420 L 67.222 11.400 67.258 19.000 C 67.303 28.343,67.394 28.854,69.101 29.343 C 70.277 29.681,70.400 29.862,70.400 31.258 C 70.400 32.790,70.410 32.800,72.000 32.800 L 73.600 32.800 73.600 34.400 L 73.600 36.000 75.200 36.000 C 76.752 36.000,76.800 36.040,76.800 37.357 C 76.800 38.744,77.303 39.200,78.833 39.200 C 79.461 39.200,79.600 39.489,79.600 40.800 C 79.600 42.218,79.492 42.400,78.649 42.400 C 76.642 42.400,76.653 42.295,76.470 63.415 C 76.299 83.098,76.296 83.158,75.459 83.279 C 73.913 83.502,73.612 84.957,73.612 92.200 C 73.612 99.568,73.884 100.796,75.603 101.199 C 76.273 101.356,76.645 101.756,76.738 102.416 C 77.116 105.103,79.382 105.247,79.778 102.609 C 80.096 100.486,80.171 100.430,83.757 99.616 C 87.032 98.872,86.892 99.136,87.804 92.000 C 88.127 89.470,88.564 86.806,88.774 86.080 C 88.984 85.355,89.283 83.468,89.438 81.889 C 89.675 79.488,89.904 78.834,90.838 77.901 L 91.954 76.785 110.677 77.018 C 134.368 77.312,132.064 76.529,132.575 84.467 C 132.726 86.813,133.103 90.413,133.413 92.467 C 134.022 96.493,134.558 104.447,135.203 119.002 C 135.427 124.063,135.781 129.193,135.991 130.402 C 136.200 131.611,136.738 134.647,137.186 137.148 C 137.633 139.650,138.002 142.440,138.005 143.348 C 138.011 145.625,138.954 148.961,139.947 150.224 C 140.402 150.802,140.989 152.365,141.251 153.696 C 141.552 155.228,142.117 156.573,142.789 157.358 C 143.373 158.041,144.170 159.455,144.559 160.500 C 144.948 161.545,145.429 162.400,145.628 162.400 C 145.827 162.400,146.470 163.165,147.057 164.100 C 147.644 165.035,148.816 166.590,149.662 167.556 C 150.508 168.522,151.200 169.479,151.200 169.683 C 151.200 169.887,151.785 170.665,152.500 171.412 C 157.273 176.399,159.482 179.296,160.063 181.329 C 160.325 182.248,161.031 183.499,161.630 184.109 C 162.436 184.928,162.842 185.913,163.184 187.878 C 163.439 189.341,164.105 191.319,164.663 192.272 C 166.685 195.721,167.294 239.677,165.357 242.271 L 164.514 243.400 157.773 243.400 L 151.032 243.400 150.126 242.055 C 149.627 241.316,149.115 240.056,148.987 239.255 C 148.860 238.455,148.329 236.630,147.809 235.200 C 147.289 233.770,146.576 231.340,146.225 229.800 C 145.831 228.072,145.288 226.770,144.809 226.400 C 144.381 226.070,143.740 225.097,143.384 224.238 C 142.424 221.920,139.841 218.947,136.053 215.800 C 134.199 214.260,132.135 212.485,131.467 211.856 C 130.798 211.227,129.411 210.463,128.384 210.158 C 127.357 209.853,125.874 209.167,125.088 208.634 C 121.060 205.900,100.875 205.889,96.859 208.618 C 96.099 209.135,94.591 209.785,93.508 210.062 C 92.415 210.342,91.367 210.888,91.152 211.289 C 90.940 211.687,90.008 212.489,89.083 213.072 C 86.374 214.778,83.280 217.654,81.951 219.700 C 81.272 220.745,80.545 221.600,80.336 221.600 C 80.126 221.600,79.589 222.455,79.142 223.500 C 78.694 224.545,77.895 225.766,77.365 226.214 C 76.617 226.847,76.215 227.920,75.567 231.014 C 75.108 233.206,74.500 235.364,74.217 235.809 C 73.933 236.254,73.570 237.424,73.411 238.409 C 72.532 243.833,72.108 244.072,63.643 243.914 L 57.485 243.800 56.643 242.671 C 55.814 241.561,55.798 241.185,55.690 220.483 C 55.568 197.220,55.770 193.575,57.311 191.286 C 57.902 190.407,58.420 188.917,58.578 187.637 C 58.877 185.207,59.762 183.200,60.535 183.200 C 60.819 183.200,61.286 182.274,61.580 181.128 C 62.092 179.128,62.471 178.605,66.300 174.610 C 67.015 173.864,67.600 173.075,67.600 172.856 C 67.600 172.415,70.480 168.883,73.100 166.110 C 74.035 165.120,74.800 163.983,74.800 163.583 C 74.800 163.182,75.298 162.500,75.907 162.067 C 76.602 161.572,77.189 160.632,77.485 159.539 C 77.745 158.583,78.495 157.216,79.154 156.503 C 79.970 155.618,80.439 154.600,80.630 153.303 C 80.990 150.850,81.466 149.600,82.433 148.568 C 83.078 147.879,83.315 146.601,83.808 141.168 C 84.511 133.412,85.076 129.029,85.611 127.162 C 86.655 123.522,85.673 120.820,82.542 118.717 C 81.071 117.729,80.595 117.019,79.850 114.700 C 79.592 113.897,76.419 113.708,74.626 114.390 C 73.607 114.777,73.600 114.813,73.600 119.340 L 73.600 123.900 72.423 124.135 C 70.713 124.477,70.405 126.119,70.402 134.900 L 70.400 142.400 68.800 144.000 C 67.220 145.580,67.200 145.637,67.200 148.576 L 67.200 151.552 65.700 151.676 C 64.298 151.792,64.192 151.893,64.080 153.223 C 63.979 154.435,63.772 154.701,62.685 155.023 C 61.543 155.360,61.374 155.610,61.080 157.388 C 60.714 159.603,60.265 160.319,58.916 160.832 C 58.205 161.102,58.000 161.490,58.000 162.566 C 58.000 163.879,57.921 163.958,56.500 164.076 C 55.086 164.193,54.993 164.285,54.877 165.677 C 54.762 167.065,54.665 167.162,53.277 167.277 C 51.885 167.393,51.793 167.486,51.676 168.898 C 51.577 170.095,51.359 170.445,50.592 170.638 C 49.174 170.994,48.827 171.620,48.543 174.341 C 48.313 176.543,48.193 176.800,47.392 176.800 C 45.923 176.800,45.538 177.756,45.305 181.986 C 45.099 185.727,45.026 186.000,44.242 186.006 C 42.043 186.022,42.200 178.329,42.200 286.000 C 42.200 393.941,42.033 385.978,44.300 385.994 C 45.095 385.999,45.200 386.204,45.200 387.750 C 45.200 391.202,45.543 392.000,47.026 392.000 C 48.269 392.000,48.359 392.093,48.476 393.500 C 48.593 394.914,48.685 395.007,50.077 395.123 C 51.465 395.238,51.562 395.335,51.677 396.723 C 51.798 398.181,51.824 398.202,53.700 398.322 C 55.274 398.423,55.600 398.577,55.600 399.222 C 55.600 399.989,56.383 400.000,110.600 400.000 C 165.333 400.000,165.600 399.996,165.600 399.200 C 165.600 398.507,165.867 398.400,167.586 398.400 C 169.691 398.400,170.400 397.802,170.400 396.026 C 170.400 395.354,170.652 395.200,171.757 395.200 C 173.185 395.200,173.600 394.703,173.600 392.993 C 173.600 392.222,173.837 392.028,174.900 391.925 L 176.200 391.800 176.316 388.967 L 176.432 386.133 177.916 385.767 L 179.400 385.400 179.400 368.600 L 179.400 351.800 177.541 351.680 C 176.131 351.589,175.636 351.381,175.489 350.819 C 175.084 349.272,173.602 349.012,173.587 350.486 C 173.570 352.256,172.845 353.097,170.708 353.825 C 169.722 354.161,168.394 354.979,167.758 355.643 L 166.600 356.851 166.396 367.325 C 166.194 377.660,165.742 380.800,164.454 380.800 C 164.313 380.800,163.769 381.610,163.244 382.600 C 162.719 383.590,162.130 384.400,161.935 384.400 C 161.741 384.400,160.766 385.153,159.768 386.073 C 156.438 389.142,149.825 389.534,100.800 389.574 C 68.465 389.600,63.896 389.245,62.140 386.564 C 61.792 386.033,61.033 385.374,60.454 385.099 C 59.874 384.824,59.098 383.995,58.730 383.257 C 58.361 382.519,57.671 381.501,57.196 380.996 C 55.686 379.388,55.619 377.688,55.610 340.544 C 55.598 297.002,54.556 302.270,63.223 302.059 C 71.923 301.846,72.673 302.171,73.380 306.460 C 73.513 307.263,73.876 308.433,74.187 309.060 C 74.499 309.687,75.058 311.820,75.429 313.800 C 75.952 316.588,76.320 317.585,77.061 318.222 C 77.587 318.674,78.380 319.997,78.822 321.162 C 79.574 323.141,80.264 324.032,83.808 327.603 C 84.573 328.375,85.200 329.228,85.200 329.498 C 85.200 329.768,85.806 330.243,86.548 330.552 C 87.289 330.862,88.179 331.521,88.526 332.016 C 88.873 332.511,90.112 333.249,91.278 333.655 C 92.445 334.062,93.760 334.827,94.200 335.356 C 94.798 336.075,95.808 336.483,98.197 336.970 C 99.955 337.329,102.180 338.003,103.142 338.469 C 106.620 340.152,115.319 340.174,118.600 338.507 C 119.480 338.059,121.617 337.402,123.349 337.046 C 125.706 336.561,126.843 336.094,127.871 335.191 C 128.627 334.528,130.066 333.765,131.069 333.497 C 132.277 333.174,133.000 332.725,133.213 332.166 C 133.389 331.702,134.178 331.017,134.966 330.643 C 135.754 330.269,136.667 329.444,136.995 328.810 C 137.323 328.176,137.958 327.540,138.406 327.398 C 138.855 327.256,139.528 326.658,139.904 326.070 C 140.279 325.481,140.922 324.752,141.332 324.450 C 141.743 324.147,142.576 322.797,143.185 321.450 C 143.793 320.102,144.657 318.674,145.105 318.275 C 145.622 317.814,146.100 316.588,146.416 314.914 C 146.690 313.464,147.267 311.360,147.699 310.239 C 148.130 309.118,148.660 307.273,148.875 306.140 C 149.568 302.486,149.770 302.400,157.634 302.400 C 164.323 302.400,164.453 302.416,165.418 303.382 L 166.400 304.364 166.400 318.766 C 166.400 329.807,166.517 333.262,166.900 333.570 C 167.175 333.791,168.030 334.492,168.800 335.127 C 169.570 335.763,170.740 336.457,171.400 336.671 C 172.081 336.891,172.836 337.544,173.146 338.180 C 173.735 339.389,178.528 339.467,179.283 338.280 C 179.660 337.686,179.625 188.976,179.247 187.622 C 179.062 186.960,178.559 186.537,177.687 186.311 L 176.400 185.977 176.400 182.815 C 176.400 179.087,175.981 177.756,174.608 177.131 C 173.900 176.808,173.600 176.356,173.600 175.611 C 173.600 174.091,172.150 171.302,171.204 171.001 C 170.646 170.824,170.400 170.397,170.400 169.606 C 170.400 167.697,170.024 167.200,168.581 167.200 C 167.330 167.200,167.241 167.108,167.124 165.700 C 167.007 164.281,166.919 164.193,165.500 164.076 C 164.092 163.959,164.000 163.870,164.000 162.619 C 164.000 161.223,163.494 160.800,161.823 160.800 C 161.011 160.800,160.887 160.557,160.682 158.572 C 160.430 156.128,159.898 155.200,158.751 155.200 C 158.211 155.200,158.000 154.911,158.000 154.174 C 158.000 152.495,157.300 151.600,155.986 151.600 L 154.800 151.600 154.800 149.029 C 154.800 146.200,154.227 145.200,152.606 145.200 L 151.670 145.200 151.513 136.900 C 151.340 127.807,151.234 127.267,149.549 126.930 L 148.400 126.700 148.360 107.650 C 148.316 86.604,148.332 86.782,146.484 86.253 L 145.200 85.884 145.200 66.158 L 145.200 46.432 143.600 44.952 C 142.127 43.589,142.000 43.306,142.000 41.387 L 142.000 39.302 143.600 39.046 C 145.106 38.806,145.200 38.710,145.200 37.419 C 145.200 36.124,145.283 36.041,146.700 35.924 C 148.114 35.807,148.207 35.715,148.323 34.323 C 148.438 32.935,148.535 32.838,149.923 32.723 C 151.337 32.605,151.405 32.531,151.518 30.997 C 151.611 29.743,151.872 29.257,152.718 28.766 C 154.349 27.819,154.801 25.676,154.795 18.906 C 154.788 12.057,154.640 11.202,153.453 11.194 C 151.940 11.183,151.644 10.662,151.520 7.789 L 151.400 5.000 149.923 4.877 C 148.535 4.762,148.438 4.665,148.323 3.277 C 148.207 1.885,148.114 1.793,146.700 1.676 C 145.525 1.579,145.200 1.384,145.200 0.776 C 145.200 0.014,144.579 0.000,111.000 0.000 C 77.067 0.000,76.800 0.006,76.800 0.800 M134.722 12.391 C 135.670 12.676,136.711 13.289,137.036 13.754 C 140.656 18.933,140.686 19.684,137.459 24.200 C 136.543 25.483,130.582 25.274,127.600 23.855 C 124.429 22.346,120.133 22.354,117.360 23.874 C 114.540 25.420,108.036 25.492,105.000 24.010 C 101.862 22.479,97.059 22.371,94.379 23.773 C 91.748 25.149,86.556 25.656,85.071 24.683 C 82.750 23.162,80.888 16.800,82.764 16.800 C 82.937 16.800,83.409 16.068,83.812 15.172 C 84.707 13.188,85.929 12.512,89.479 12.037 C 93.803 11.458,132.628 11.762,134.722 12.391 M105.000 34.280 C 106.100 34.633,107.389 35.175,107.864 35.484 C 109.151 36.319,112.392 36.206,114.487 35.252 C 117.073 34.073,119.394 33.615,122.600 33.650 C 128.171 33.710,128.638 34.243,129.420 41.434 C 129.729 44.275,130.242 47.860,130.562 49.400 C 132.281 57.700,132.060 65.976,130.104 66.550 C 128.956 66.887,92.677 67.006,91.743 66.676 C 89.773 65.980,89.603 54.222,91.427 44.800 C 91.747 43.150,92.177 40.622,92.383 39.182 C 92.814 36.167,93.335 34.611,94.062 34.162 C 95.791 33.093,101.500 33.155,105.000 34.280 M286.623 90.089 C 286.280 90.578,286.000 91.190,286.000 91.450 C 286.000 91.768,284.503 92.015,281.400 92.208 C 277.066 92.479,276.800 92.545,276.794 93.348 C 276.784 94.755,276.320 95.058,273.600 95.437 C 271.131 95.782,270.981 95.865,270.620 97.092 L 270.239 98.383 262.620 98.492 L 255.000 98.600 254.876 100.100 L 254.752 101.600 252.676 101.605 C 249.507 101.614,248.911 101.882,248.621 103.428 L 248.367 104.783 240.683 104.891 L 233.000 105.000 232.876 106.500 C 232.755 107.958,232.708 108.000,231.176 108.000 C 229.647 108.000,229.600 108.041,229.600 109.375 C 229.600 110.633,229.490 110.760,228.300 110.875 C 227.167 110.984,226.952 111.193,226.629 112.500 L 226.259 114.000 223.962 114.000 C 220.829 114.000,220.400 114.222,220.400 115.843 L 220.400 117.200 218.426 117.200 C 215.633 117.200,214.400 117.747,214.400 118.987 C 214.400 119.759,214.050 120.158,212.900 120.697 C 211.458 121.373,211.386 121.503,211.041 124.072 C 210.726 126.412,210.563 126.773,209.726 126.983 C 208.046 127.404,208.000 128.189,208.006 155.926 C 208.012 184.251,208.006 184.154,209.907 184.995 C 210.527 185.269,210.800 185.735,210.800 186.521 C 210.800 188.302,211.475 189.200,212.814 189.200 C 213.903 189.200,214.000 189.315,214.000 190.600 C 214.000 191.967,214.038 192.000,215.600 192.000 C 217.086 192.000,217.200 192.080,217.200 193.120 C 217.200 194.820,217.872 195.200,220.880 195.200 L 223.600 195.200 223.600 210.171 C 223.600 226.238,223.620 226.400,225.629 226.400 C 226.360 226.400,226.402 226.768,226.440 233.500 C 226.497 243.885,226.671 244.968,228.300 245.125 L 229.600 245.251 229.605 252.125 C 229.611 259.322,229.777 260.800,230.577 260.800 C 232.357 260.800,232.800 262.412,232.800 268.893 C 232.800 276.211,232.846 276.400,234.614 276.400 L 235.942 276.400 236.071 284.759 C 236.209 293.706,236.470 294.800,238.462 294.800 C 239.161 294.800,239.200 295.369,239.200 305.613 C 239.200 317.176,239.467 319.031,241.195 319.483 C 241.974 319.687,242.000 320.008,242.000 329.447 L 242.000 339.200 241.080 339.200 C 239.284 339.200,239.200 339.643,239.200 349.056 L 239.200 357.952 237.700 358.076 L 236.200 358.200 236.087 362.700 L 235.974 367.200 234.801 367.200 C 233.276 367.200,232.800 368.125,232.800 371.091 C 232.800 373.389,232.775 373.442,231.502 373.817 C 229.798 374.320,229.653 375.205,229.623 385.274 C 229.597 394.153,229.802 395.200,231.566 395.200 C 232.647 395.200,232.763 395.332,232.876 396.700 C 232.993 398.119,233.081 398.207,234.500 398.324 C 235.675 398.421,236.000 398.616,236.000 399.224 C 236.000 399.988,236.833 400.000,290.600 400.000 C 344.180 400.000,345.200 399.986,345.200 399.232 C 345.200 398.700,345.577 398.381,346.424 398.195 C 347.881 397.875,348.400 396.774,348.400 394.006 C 348.400 392.185,348.473 392.047,349.567 391.807 C 351.137 391.462,351.285 390.969,351.504 385.359 L 351.693 380.518 350.055 379.359 L 348.417 378.200 348.409 375.074 C 348.398 371.316,348.002 370.400,346.386 370.400 L 345.200 370.400 345.200 367.632 C 345.200 364.574,344.445 362.731,342.905 362.029 C 342.035 361.633,342.000 361.422,342.000 356.609 C 342.000 353.536,341.845 351.600,341.600 351.600 C 341.380 351.600,341.200 351.334,341.200 351.009 C 341.200 350.684,340.750 350.124,340.200 349.763 L 339.200 349.108 339.200 326.754 L 339.200 304.400 340.186 304.400 C 341.823 304.400,342.000 303.407,342.000 294.226 L 342.000 285.600 343.186 285.600 C 345.004 285.600,345.200 284.768,345.200 277.026 L 345.200 270.000 346.386 270.000 C 348.204 270.000,348.400 269.166,348.400 261.452 L 348.400 254.451 349.684 254.325 C 351.405 254.157,351.512 253.642,351.560 245.314 C 351.598 238.765,351.641 238.406,352.434 237.982 C 354.467 236.894,354.782 235.023,354.791 223.956 L 354.800 213.712 356.171 212.258 C 358.039 210.278,358.058 210.000,357.919 187.005 C 357.806 168.345,357.765 167.404,357.064 167.269 C 356.117 167.087,354.912 165.881,354.733 164.936 C 354.385 163.102,351.726 163.766,351.427 165.762 C 351.087 168.027,350.301 168.931,347.906 169.809 C 345.212 170.797,345.072 171.092,344.822 176.271 C 344.486 183.239,351.456 182.428,292.979 182.305 L 243.259 182.200 242.139 181.364 L 241.020 180.529 241.126 167.564 C 241.257 151.436,241.227 151.668,243.447 149.284 C 244.967 147.652,245.291 147.469,245.899 147.904 C 246.285 148.179,247.358 148.796,248.285 149.274 C 250.397 150.365,250.422 150.436,250.667 156.000 C 250.915 161.628,251.282 162.917,253.017 164.240 C 253.760 164.807,254.472 165.598,254.599 165.998 C 255.460 168.709,269.817 169.186,270.824 166.537 C 271.020 166.022,271.770 165.242,272.490 164.804 C 274.356 163.671,274.795 161.243,275.073 150.516 C 275.280 142.514,275.377 141.564,276.051 140.954 C 276.463 140.581,276.800 140.042,276.800 139.757 C 276.800 136.293,276.258 136.344,311.886 136.480 C 348.642 136.621,344.494 135.851,344.823 142.597 C 345.072 147.704,345.334 148.267,347.884 149.157 C 350.622 150.113,351.098 150.605,351.398 152.783 C 351.800 155.706,354.800 155.672,354.800 152.744 C 354.800 151.767,354.962 151.635,356.300 151.524 L 357.800 151.400 357.800 133.085 C 357.800 113.284,357.881 114.021,355.700 114.006 C 354.882 114.001,354.799 113.808,354.795 111.900 C 354.786 108.557,354.523 108.000,352.953 108.000 C 351.789 108.000,351.600 107.865,351.600 107.033 C 351.600 104.988,351.312 104.800,348.181 104.800 L 345.248 104.800 345.124 103.300 L 345.000 101.800 334.100 101.694 L 323.200 101.587 323.194 100.694 C 323.181 98.751,322.802 98.621,316.689 98.463 L 310.941 98.315 310.571 97.057 C 310.219 95.863,310.064 95.782,307.500 95.437 C 305.146 95.120,304.799 94.967,304.794 94.237 C 304.783 92.702,304.279 92.500,299.700 92.204 C 296.264 91.981,295.200 91.781,295.200 91.356 C 295.200 89.147,288.025 88.087,286.623 90.089 M293.514 104.200 C 294.323 104.750,295.390 105.200,295.885 105.200 C 297.460 105.200,299.874 106.404,300.337 107.422 C 300.582 107.960,300.994 108.400,301.253 108.400 C 301.511 108.400,302.378 109.110,303.179 109.977 C 304.703 111.628,309.634 112.808,312.257 112.150 C 314.088 111.690,317.640 112.404,318.675 113.439 C 319.207 113.971,320.485 114.595,321.515 114.826 C 322.545 115.056,324.178 115.595,325.144 116.023 C 327.337 116.993,327.451 116.991,330.498 115.927 C 332.279 115.305,333.952 115.052,336.306 115.047 L 339.611 115.040 341.949 117.481 C 345.330 121.013,345.665 124.856,342.814 127.400 C 341.937 128.182,341.172 128.206,309.258 128.444 C 274.820 128.702,273.716 128.764,272.898 130.469 C 272.620 131.050,271.791 131.881,271.056 132.314 C 270.197 132.821,269.637 133.513,269.488 134.251 C 269.361 134.883,268.708 136.210,268.036 137.200 L 266.815 139.000 266.807 148.656 C 266.799 160.127,266.756 160.262,263.194 160.114 C 258.947 159.938,258.729 159.584,258.427 152.384 L 258.200 146.968 256.883 145.584 C 256.158 144.823,255.460 143.703,255.332 143.095 C 255.168 142.320,254.784 141.920,254.049 141.758 C 251.978 141.300,251.712 141.171,250.393 139.994 C 248.501 138.304,242.438 138.160,241.377 139.779 C 241.024 140.318,239.895 141.067,238.868 141.443 C 236.457 142.327,236.219 142.572,235.202 145.200 C 234.734 146.410,233.957 147.705,233.476 148.077 C 232.608 148.748,232.598 148.893,232.400 164.277 C 232.162 182.738,232.428 181.708,227.755 182.257 L 225.579 182.513 223.626 180.388 C 221.074 177.613,221.199 178.868,221.210 156.050 C 221.220 134.351,221.250 134.003,223.354 131.545 C 224.149 130.616,224.800 129.623,224.800 129.337 C 224.800 128.362,226.719 127.560,229.642 127.315 C 232.136 127.106,232.712 126.911,233.582 125.981 C 234.142 125.382,235.001 124.770,235.491 124.622 C 236.075 124.445,236.527 123.843,236.802 122.876 C 238.048 118.493,240.939 117.099,248.010 117.471 C 252.615 117.713,255.200 117.186,255.200 116.006 C 255.200 115.800,255.932 115.413,256.827 115.145 C 257.916 114.818,258.643 114.291,259.027 113.547 C 259.841 111.973,261.625 111.605,268.450 111.602 C 275.476 111.600,276.728 111.396,277.290 110.163 C 277.521 109.655,278.270 109.048,278.955 108.814 C 279.640 108.580,280.650 107.855,281.200 107.203 C 281.935 106.331,282.889 105.843,284.798 105.360 C 286.227 104.999,287.827 104.365,288.352 103.952 C 289.686 102.903,291.751 103.002,293.514 104.200 M340.821 191.242 C 342.735 191.652,342.939 191.813,343.679 193.484 C 344.694 195.780,344.098 206.301,342.755 209.787 C 342.140 211.382,341.902 213.501,341.604 220.000 C 341.207 228.663,340.812 231.643,339.801 233.598 C 339.199 234.762,338.880 236.774,338.012 244.892 C 337.739 247.452,337.259 249.523,336.611 250.940 C 335.897 252.499,335.507 254.344,335.198 257.620 C 334.692 262.990,334.305 264.875,333.437 266.200 C 333.020 266.837,332.581 269.193,332.192 272.891 C 331.585 278.669,331.135 280.698,330.117 282.264 C 329.767 282.802,329.337 285.667,328.975 289.864 C 328.329 297.356,327.877 300.044,326.968 301.797 C 324.987 305.614,325.124 349.763,327.126 353.205 C 329.028 356.473,329.344 363.633,327.662 365.316 L 326.778 366.200 290.596 366.314 C 258.595 366.415,254.277 366.357,253.219 365.810 C 251.194 364.763,250.325 362.008,251.344 359.863 C 251.733 359.042,252.191 355.777,252.589 350.982 C 252.936 346.812,253.530 342.320,253.910 341.000 C 254.904 337.542,254.913 320.785,253.922 316.400 C 253.549 314.750,253.050 310.340,252.813 306.600 C 252.108 295.483,251.722 292.340,250.847 290.600 C 250.235 289.382,249.902 287.352,249.455 282.106 C 248.965 276.353,248.734 275.042,248.057 274.182 C 247.075 272.933,246.555 270.452,246.022 264.476 C 245.717 261.043,245.425 259.678,244.815 258.822 C 243.808 257.406,243.347 255.118,242.812 248.879 C 242.547 245.783,242.164 243.612,241.781 243.028 C 240.730 241.424,240.407 239.595,239.978 232.813 C 239.663 227.842,239.370 225.795,238.781 224.464 C 237.554 221.691,237.216 218.624,236.755 206.079 C 236.295 193.555,236.339 192.861,237.680 191.611 C 238.709 190.653,336.443 190.303,340.821 191.242 M120.604 216.626 C 122.145 217.382,123.726 218.000,124.115 218.000 C 124.504 218.000,125.403 218.549,126.111 219.219 C 126.820 219.890,128.142 220.925,129.049 221.519 C 131.047 222.829,134.685 227.139,135.289 228.913 C 135.529 229.621,136.229 230.781,136.844 231.491 C 138.048 232.884,138.181 233.421,138.756 239.223 C 139.003 241.711,139.410 243.526,139.923 244.423 C 140.356 245.180,141.015 246.745,141.388 247.900 C 141.760 249.055,142.305 250.000,142.599 250.000 C 142.893 250.000,143.493 250.495,143.934 251.100 L 144.734 252.200 154.803 252.400 C 166.662 252.636,166.155 252.425,166.592 257.302 C 167.200 264.087,166.653 290.320,165.887 291.086 C 165.255 291.718,164.198 291.814,156.692 291.923 C 150.428 292.014,148.053 292.183,147.606 292.570 C 147.273 292.858,145.843 293.551,144.429 294.111 C 141.870 295.123,141.856 295.138,141.320 297.264 C 141.023 298.439,140.422 299.891,139.985 300.491 C 139.380 301.320,139.058 302.833,138.646 306.783 C 138.129 311.737,137.426 314.000,136.406 314.000 C 136.200 314.000,135.833 314.736,135.590 315.636 C 135.348 316.536,134.441 318.041,133.575 318.981 C 132.709 319.921,132.000 320.900,132.000 321.158 C 132.000 321.416,131.385 321.990,130.633 322.434 C 129.881 322.877,128.988 323.665,128.648 324.183 C 128.299 324.716,127.174 325.410,126.062 325.779 C 124.980 326.139,123.760 326.802,123.352 327.254 C 121.497 329.303,113.494 330.280,105.899 329.385 C 103.205 329.067,100.871 328.805,100.714 328.803 C 100.557 328.802,99.837 328.293,99.114 327.674 C 98.391 327.055,96.938 326.228,95.883 325.835 C 94.829 325.442,93.683 324.689,93.337 324.160 C 92.991 323.632,92.235 322.973,91.657 322.696 C 91.080 322.419,90.369 321.696,90.078 321.089 C 89.787 320.482,89.116 319.701,88.586 319.354 C 88.057 319.007,87.174 317.796,86.625 316.662 C 86.076 315.528,85.252 314.140,84.794 313.579 C 83.947 312.540,83.224 308.961,83.208 305.733 C 83.204 304.816,82.820 303.196,82.355 302.133 C 81.890 301.070,81.202 299.131,80.826 297.825 C 80.449 296.519,79.885 295.322,79.571 295.166 C 79.257 295.009,78.190 294.558,77.200 294.162 C 76.210 293.767,74.937 293.129,74.371 292.745 C 73.491 292.148,72.145 292.029,65.038 291.924 C 57.359 291.809,56.691 291.742,56.167 291.024 C 55.161 289.646,55.343 254.806,56.364 253.544 C 57.120 252.609,57.220 252.598,66.970 252.400 L 76.812 252.200 77.706 251.164 C 78.198 250.594,79.095 249.825,79.700 249.455 C 80.364 249.048,80.802 248.429,80.806 247.891 C 80.812 246.923,81.713 244.131,82.560 242.452 C 82.852 241.873,83.214 239.709,83.364 237.642 C 83.663 233.527,84.309 231.491,85.520 230.843 C 85.966 230.604,86.423 229.804,86.574 228.996 C 86.884 227.344,90.719 222.856,93.343 221.074 C 94.254 220.455,95.380 219.593,95.843 219.158 C 96.307 218.723,97.387 218.179,98.243 217.950 C 99.100 217.721,100.465 217.081,101.278 216.528 C 104.563 214.292,115.959 214.350,120.604 216.626 M84.620 268.851 C 81.994 269.466,80.170 273.469,82.000 274.600 C 82.220 274.736,82.400 275.201,82.400 275.634 C 82.400 277.123,83.792 277.200,110.526 277.196 C 140.386 277.191,139.239 277.266,139.938 275.262 C 141.212 271.612,140.341 269.601,137.170 268.869 C 134.685 268.295,87.061 268.279,84.620 268.851 M333.782 375.601 C 334.428 376.246,334.930 377.382,335.196 378.801 C 335.423 380.010,335.954 381.470,336.376 382.045 C 338.329 384.706,337.688 387.104,334.600 388.694 C 333.940 389.034,333.272 389.512,333.115 389.756 C 332.503 390.707,248.560 390.564,247.014 389.609 C 246.295 389.164,245.425 388.800,245.082 388.800 C 242.193 388.800,241.984 381.746,244.779 378.563 C 245.450 377.798,246.000 376.948,246.000 376.675 C 246.000 376.402,246.282 375.776,246.626 375.284 L 247.253 374.389 290.017 374.495 L 332.782 374.600 333.782 375.601 " stroke="none" fill="#050504" fill-rule="evenodd"></path><path id="path4" d="M89.479 12.037 C 85.929 12.512,84.707 13.188,83.812 15.172 C 83.409 16.068,82.937 16.800,82.764 16.800 C 80.888 16.800,82.750 23.162,85.071 24.683 C 86.556 25.656,91.748 25.149,94.379 23.773 C 97.059 22.371,101.862 22.479,105.000 24.010 C 108.036 25.492,114.540 25.420,117.360 23.874 C 120.133 22.354,124.429 22.346,127.600 23.855 C 130.582 25.274,136.543 25.483,137.459 24.200 C 140.686 19.684,140.656 18.933,137.036 13.754 C 135.817 12.012,134.197 11.880,112.600 11.773 C 101.380 11.718,90.976 11.836,89.479 12.037 M135.610 14.712 C 136.885 16.287,137.376 19.478,136.701 21.800 L 136.120 23.800 134.138 23.918 C 132.482 24.017,131.978 23.872,131.073 23.033 C 128.516 20.663,117.153 20.342,114.825 22.574 C 112.844 24.474,109.456 24.552,107.396 22.743 L 105.865 21.400 99.399 21.400 L 92.933 21.400 91.452 22.700 C 87.053 26.563,82.964 21.882,85.538 15.929 C 86.579 13.522,84.441 13.699,111.736 13.754 L 134.871 13.800 135.610 14.712 M95.986 33.548 C 93.419 34.089,93.023 34.708,92.383 39.182 C 92.177 40.622,91.747 43.150,91.427 44.800 C 89.603 54.222,89.773 65.980,91.743 66.676 C 92.677 67.006,128.956 66.887,130.104 66.550 C 132.060 65.976,132.281 57.700,130.562 49.400 C 130.242 47.860,129.729 44.275,129.420 41.434 C 128.638 34.243,128.171 33.710,122.600 33.650 C 119.394 33.615,117.073 34.073,114.487 35.252 C 112.392 36.206,109.151 36.319,107.864 35.484 C 105.494 33.945,99.071 32.898,95.986 33.548 M104.396 35.500 C 108.612 37.605,113.094 37.672,117.467 35.696 C 121.978 33.657,126.619 34.106,127.655 36.681 C 127.903 37.296,128.351 41.040,128.651 45.000 C 128.950 48.960,129.459 54.090,129.781 56.400 C 131.225 66.767,133.117 65.790,110.896 66.152 C 88.647 66.515,90.406 67.342,91.369 56.975 C 92.895 40.549,93.403 36.854,94.305 35.647 C 95.944 33.451,100.171 33.390,104.396 35.500 M90.838 77.901 C 89.904 78.834,89.675 79.488,89.438 81.889 C 89.283 83.468,88.984 85.355,88.774 86.080 C 88.564 86.806,88.127 89.470,87.804 92.000 C 86.892 99.136,87.032 98.872,83.757 99.616 C 80.885 100.268,80.000 100.628,80.000 101.145 C 80.000 101.309,81.575 101.054,83.500 100.580 L 87.000 99.718 88.071 97.512 C 89.265 95.054,89.823 91.732,90.241 84.600 C 90.427 81.430,90.726 79.487,91.122 78.878 L 91.721 77.956 110.760 78.230 C 132.941 78.548,131.199 78.162,131.202 82.762 C 131.204 87.033,131.902 96.263,132.581 101.000 C 133.148 104.958,133.626 112.017,134.413 128.088 C 134.714 134.237,135.019 137.025,135.594 138.888 C 136.020 140.270,136.657 143.200,137.009 145.400 C 137.398 147.833,138.016 150.058,138.585 151.080 C 139.100 152.004,139.908 153.922,140.380 155.341 C 140.852 156.760,141.669 158.421,142.194 159.033 C 142.720 159.644,143.264 160.600,143.404 161.158 C 143.684 162.272,147.303 167.235,148.956 168.770 C 149.530 169.303,150.000 169.913,150.000 170.125 C 150.000 170.337,150.720 171.292,151.600 172.246 C 152.480 173.201,153.200 174.136,153.200 174.323 C 153.200 174.511,153.630 174.895,154.156 175.176 C 154.682 175.458,155.348 176.163,155.637 176.744 C 155.926 177.325,156.557 178.250,157.039 178.800 C 157.522 179.350,158.329 180.790,158.833 182.000 C 159.337 183.210,160.152 184.693,160.645 185.295 C 161.137 185.898,161.750 187.428,162.007 188.695 C 162.263 189.963,162.906 192.287,163.436 193.861 C 164.904 198.223,165.186 202.684,165.193 221.681 C 165.202 243.653,166.054 241.586,156.986 241.595 L 151.372 241.600 150.686 240.438 C 150.294 239.775,149.998 238.445,149.996 237.338 C 149.994 236.120,149.623 234.606,148.998 233.264 C 148.451 232.088,147.719 230.018,147.371 228.664 C 147.010 227.255,146.281 225.686,145.669 225.000 C 145.080 224.340,144.186 222.978,143.682 221.973 C 140.711 216.046,128.427 207.572,120.773 206.171 C 110.427 204.276,110.708 204.276,100.966 206.175 C 92.618 207.803,82.161 215.494,78.013 223.058 C 77.548 223.906,76.734 225.198,76.204 225.929 C 75.674 226.660,75.119 228.100,74.971 229.129 C 74.823 230.158,74.278 231.908,73.761 233.017 C 73.244 234.127,72.647 236.256,72.436 237.748 C 72.225 239.241,71.763 240.902,71.410 241.441 L 70.769 242.420 64.284 242.310 L 57.800 242.200 57.101 240.800 C 55.646 237.888,56.247 196.602,57.788 193.624 C 58.122 192.976,58.758 190.894,59.201 188.997 C 59.745 186.662,60.378 185.070,61.159 184.073 C 61.794 183.263,62.522 181.939,62.777 181.132 C 63.032 180.325,63.517 179.435,63.854 179.155 C 64.192 178.875,65.002 177.869,65.655 176.920 C 66.309 175.970,67.238 174.768,67.721 174.248 C 68.205 173.728,69.264 172.515,70.075 171.551 C 70.886 170.588,72.281 168.970,73.175 167.955 C 74.069 166.941,74.802 165.951,74.804 165.755 C 74.807 165.560,75.525 164.500,76.400 163.400 C 77.275 162.300,77.993 161.195,77.996 160.945 C 77.998 160.695,78.656 159.537,79.457 158.371 C 80.259 157.206,81.162 155.304,81.465 154.143 C 81.768 152.983,82.450 151.170,82.980 150.114 C 83.573 148.934,84.123 146.809,84.408 144.597 C 84.664 142.619,85.205 139.470,85.611 137.600 C 86.561 133.221,87.329 124.790,86.997 122.377 C 86.747 120.563,83.413 116.800,82.056 116.800 C 81.837 116.800,81.285 116.326,80.829 115.746 C 80.373 115.166,80.006 114.941,80.014 115.246 C 80.041 116.305,81.108 117.739,82.644 118.782 C 85.680 120.844,86.643 123.563,85.611 127.162 C 85.076 129.029,84.511 133.412,83.808 141.168 C 83.315 146.601,83.078 147.879,82.433 148.568 C 81.466 149.600,80.990 150.850,80.630 153.303 C 80.439 154.600,79.970 155.618,79.154 156.503 C 78.495 157.216,77.745 158.583,77.485 159.539 C 77.189 160.632,76.602 161.572,75.907 162.067 C 75.298 162.500,74.800 163.182,74.800 163.583 C 74.800 163.983,74.035 165.120,73.100 166.110 C 70.480 168.883,67.600 172.415,67.600 172.856 C 67.600 173.075,67.015 173.864,66.300 174.610 C 62.471 178.605,62.092 179.128,61.580 181.128 C 61.286 182.274,60.819 183.200,60.535 183.200 C 59.762 183.200,58.877 185.207,58.578 187.637 C 58.420 188.917,57.902 190.407,57.311 191.286 C 55.770 193.575,55.568 197.220,55.690 220.483 C 55.798 241.185,55.814 241.561,56.643 242.671 L 57.485 243.800 63.643 243.914 C 72.108 244.072,72.532 243.833,73.411 238.409 C 73.570 237.424,73.933 236.254,74.217 235.809 C 74.500 235.364,75.108 233.206,75.567 231.014 C 76.215 227.920,76.617 226.847,77.365 226.214 C 77.895 225.766,78.694 224.545,79.142 223.500 C 79.589 222.455,80.126 221.600,80.336 221.600 C 80.545 221.600,81.272 220.745,81.951 219.700 C 83.280 217.654,86.374 214.778,89.083 213.072 C 90.008 212.489,90.940 211.687,91.152 211.289 C 91.367 210.888,92.415 210.342,93.508 210.062 C 94.591 209.785,96.099 209.135,96.859 208.618 C 100.875 205.889,121.060 205.900,125.088 208.634 C 125.874 209.167,127.357 209.853,128.384 210.158 C 129.411 210.463,130.798 211.227,131.467 211.856 C 132.135 212.485,134.199 214.260,136.053 215.800 C 139.841 218.947,142.424 221.920,143.384 224.238 C 143.740 225.097,144.381 226.070,144.809 226.400 C 145.288 226.770,145.831 228.072,146.225 229.800 C 146.576 231.340,147.289 233.770,147.809 235.200 C 148.329 236.630,148.860 238.455,148.987 239.255 C 149.115 240.056,149.627 241.316,150.126 242.055 L 151.032 243.400 157.773 243.400 L 164.514 243.400 165.357 242.271 C 167.294 239.677,166.685 195.721,164.663 192.272 C 164.105 191.319,163.439 189.341,163.184 187.878 C 162.842 185.913,162.436 184.928,161.630 184.109 C 161.031 183.499,160.325 182.248,160.063 181.329 C 159.482 179.296,157.273 176.399,152.500 171.412 C 151.785 170.665,151.200 169.887,151.200 169.683 C 151.200 169.479,150.508 168.522,149.662 167.556 C 148.816 166.590,147.644 165.035,147.057 164.100 C 146.470 163.165,145.827 162.400,145.628 162.400 C 145.429 162.400,144.948 161.545,144.559 160.500 C 144.170 159.455,143.373 158.041,142.789 157.358 C 142.117 156.573,141.552 155.228,141.251 153.696 C 140.989 152.365,140.402 150.802,139.947 150.224 C 138.954 148.961,138.011 145.625,138.005 143.348 C 138.002 142.440,137.633 139.650,137.186 137.148 C 136.738 134.647,136.200 131.611,135.991 130.402 C 135.781 129.193,135.427 124.063,135.203 119.002 C 134.558 104.447,134.022 96.493,133.413 92.467 C 133.103 90.413,132.726 86.813,132.575 84.467 C 132.064 76.529,134.368 77.312,110.677 77.018 L 91.954 76.785 90.838 77.901 M288.352 103.952 C 287.827 104.365,286.227 104.999,284.798 105.360 C 282.889 105.843,281.935 106.331,281.200 107.203 C 280.650 107.855,279.640 108.580,278.955 108.814 C 278.270 109.048,277.521 109.655,277.290 110.163 C 276.728 111.396,275.476 111.600,268.450 111.602 C 261.625 111.605,259.841 111.973,259.027 113.547 C 258.643 114.291,257.916 114.818,256.827 115.145 C 255.932 115.413,255.200 115.800,255.200 116.006 C 255.200 117.186,252.615 117.713,248.010 117.471 C 240.939 117.099,238.048 118.493,236.802 122.876 C 236.527 123.843,236.075 124.445,235.491 124.622 C 235.001 124.770,234.142 125.382,233.582 125.981 C 232.712 126.911,232.136 127.106,229.642 127.315 C 226.719 127.560,224.800 128.362,224.800 129.337 C 224.800 129.623,224.149 130.616,223.354 131.545 C 221.250 134.003,221.220 134.351,221.210 156.050 C 221.199 178.868,221.074 177.613,223.626 180.388 L 225.579 182.513 227.755 182.257 C 232.428 181.708,232.162 182.738,232.400 164.277 C 232.598 148.893,232.608 148.748,233.476 148.077 C 233.957 147.705,234.734 146.410,235.202 145.200 C 236.219 142.572,236.457 142.327,238.868 141.443 C 239.895 141.067,241.024 140.318,241.377 139.779 C 242.438 138.160,248.501 138.304,250.393 139.994 C 251.712 141.171,251.978 141.300,254.049 141.758 C 254.784 141.920,255.168 142.320,255.332 143.095 C 255.460 143.703,256.158 144.823,256.883 145.584 L 258.200 146.968 258.427 152.384 C 258.729 159.584,258.947 159.938,263.194 160.114 C 266.756 160.262,266.799 160.127,266.807 148.656 L 266.815 139.000 268.036 137.200 C 268.708 136.210,269.361 134.883,269.488 134.251 C 269.637 133.513,270.197 132.821,271.056 132.314 C 271.791 131.881,272.620 131.050,272.898 130.469 C 273.716 128.764,274.820 128.702,309.258 128.444 C 341.172 128.206,341.937 128.182,342.814 127.400 C 345.665 124.856,345.330 121.013,341.949 117.481 L 339.611 115.040 336.306 115.047 C 333.952 115.052,332.279 115.305,330.498 115.927 C 327.451 116.991,327.337 116.993,325.144 116.023 C 324.178 115.595,322.545 115.056,321.515 114.826 C 320.485 114.595,319.207 113.971,318.675 113.439 C 317.640 112.404,314.088 111.690,312.257 112.150 C 309.634 112.808,304.703 111.628,303.179 109.977 C 302.378 109.110,301.511 108.400,301.253 108.400 C 300.994 108.400,300.582 107.960,300.337 107.422 C 299.874 106.404,297.460 105.200,295.885 105.200 C 295.390 105.200,294.323 104.750,293.514 104.200 C 291.751 103.002,289.686 102.903,288.352 103.952 M296.127 106.002 C 297.021 106.266,298.952 107.596,300.779 109.206 C 304.676 112.640,307.105 113.564,312.720 113.752 C 316.722 113.885,319.279 114.588,323.814 116.800 C 326.108 117.919,329.627 118.020,331.557 117.022 C 335.175 115.151,338.682 115.560,341.094 118.133 C 344.004 121.237,344.578 123.483,342.894 125.167 L 341.795 126.267 321.232 126.533 C 309.922 126.680,296.072 126.800,290.455 126.800 C 276.223 126.800,272.161 128.103,268.877 133.724 C 268.370 134.592,267.695 135.563,267.377 135.880 C 267.060 136.197,266.776 136.489,266.748 136.529 C 266.719 136.568,266.584 141.311,266.448 147.068 C 266.140 160.068,265.923 160.542,261.106 158.721 C 259.760 158.213,259.205 156.477,259.202 152.767 C 259.199 148.689,258.442 145.589,257.127 144.269 C 256.507 143.647,256.000 142.873,256.000 142.549 C 256.000 142.225,255.325 141.682,254.500 141.342 C 253.675 141.003,252.550 140.317,252.000 139.817 C 249.290 137.355,242.390 137.388,239.439 139.876 C 238.758 140.451,237.637 141.157,236.949 141.445 C 236.193 141.762,235.392 142.569,234.922 143.485 C 234.495 144.318,233.708 145.810,233.173 146.800 C 232.204 148.592,232.199 148.663,232.000 163.400 C 231.795 178.562,231.743 179.042,230.137 180.460 C 227.981 182.364,225.739 181.842,223.849 178.995 L 222.400 176.812 222.400 156.162 L 222.400 135.512 223.617 133.256 C 225.813 129.184,227.024 128.279,230.934 127.791 C 233.432 127.479,236.296 125.526,237.600 123.244 C 240.457 118.247,241.026 117.971,248.233 118.100 C 253.699 118.197,253.913 118.169,255.433 117.168 C 256.295 116.600,257.674 115.700,258.497 115.168 C 259.321 114.635,259.996 114.070,259.997 113.910 C 260.009 112.698,262.732 112.207,269.470 112.203 C 276.001 112.200,276.396 112.155,277.470 111.296 C 278.092 110.799,279.320 109.909,280.200 109.319 C 281.080 108.728,282.284 107.807,282.876 107.271 C 284.987 105.359,291.749 104.712,296.127 106.002 M278.758 136.842 C 277.764 137.210,276.800 138.645,276.800 139.757 C 276.800 140.042,276.463 140.581,276.051 140.954 C 275.377 141.564,275.280 142.514,275.073 150.516 C 274.795 161.243,274.356 163.671,272.490 164.804 C 271.770 165.242,271.020 166.022,270.824 166.537 C 269.817 169.186,255.460 168.709,254.599 165.998 C 254.472 165.598,253.760 164.807,253.017 164.240 C 251.282 162.917,250.915 161.628,250.667 156.000 C 250.422 150.436,250.397 150.365,248.285 149.274 C 247.358 148.796,246.285 148.179,245.899 147.904 C 245.291 147.469,244.967 147.652,243.447 149.284 C 241.227 151.668,241.257 151.436,241.126 167.564 L 241.020 180.529 242.139 181.364 L 243.259 182.200 292.979 182.305 C 351.456 182.428,344.486 183.239,344.822 176.271 C 345.072 171.092,345.212 170.797,347.906 169.809 C 349.757 169.130,351.200 167.937,351.200 167.086 C 351.200 166.852,350.793 167.043,350.296 167.510 C 349.799 167.977,348.385 168.805,347.153 169.349 C 344.599 170.479,344.413 170.949,344.404 176.281 C 344.399 179.636,343.904 180.978,342.448 181.579 C 341.711 181.883,326.950 181.980,292.711 181.906 L 244.022 181.800 243.172 180.950 C 242.098 179.876,241.930 152.870,242.984 150.830 C 243.932 148.997,245.218 148.589,247.070 149.534 C 249.502 150.774,249.688 151.190,250.013 156.111 C 250.363 161.409,251.067 164.304,252.083 164.626 C 252.478 164.752,253.273 165.473,253.849 166.229 C 258.348 172.128,273.211 169.290,274.793 162.231 C 275.028 161.184,275.511 159.668,275.867 158.864 C 276.365 157.737,276.573 155.419,276.771 148.800 C 277.041 139.766,277.379 138.100,279.085 137.406 C 281.425 136.454,342.155 136.840,343.489 137.815 C 344.076 138.245,344.242 139.181,344.444 143.197 C 344.719 148.699,344.688 148.641,348.108 149.989 C 349.377 150.490,350.587 151.192,350.796 151.550 C 351.140 152.139,351.177 152.136,351.188 151.509 C 351.202 150.722,350.082 149.925,347.884 149.157 C 345.334 148.267,345.072 147.704,344.823 142.597 C 344.494 135.846,348.707 136.613,311.486 136.528 C 291.916 136.483,279.401 136.603,278.758 136.842 M237.680 191.611 C 236.339 192.861,236.295 193.555,236.755 206.079 C 237.216 218.624,237.554 221.691,238.781 224.464 C 239.370 225.795,239.663 227.842,239.978 232.813 C 240.407 239.595,240.730 241.424,241.781 243.028 C 242.164 243.612,242.547 245.783,242.812 248.879 C 243.347 255.118,243.808 257.406,244.815 258.822 C 245.425 259.678,245.717 261.043,246.022 264.476 C 246.555 270.452,247.075 272.933,248.057 274.182 C 248.734 275.042,248.965 276.353,249.455 282.106 C 249.902 287.352,250.235 289.382,250.847 290.600 C 251.722 292.340,252.108 295.483,252.813 306.600 C 253.050 310.340,253.549 314.750,253.922 316.400 C 254.913 320.785,254.904 337.542,253.910 341.000 C 253.530 342.320,252.936 346.812,252.589 350.982 C 252.191 355.777,251.733 359.042,251.344 359.863 C 250.325 362.008,251.194 364.763,253.219 365.810 C 254.277 366.357,258.595 366.415,290.596 366.314 L 326.778 366.200 327.662 365.316 C 329.344 363.633,329.028 356.473,327.126 353.205 C 325.124 349.763,324.987 305.614,326.968 301.797 C 327.877 300.044,328.329 297.356,328.975 289.864 C 329.337 285.667,329.767 282.802,330.117 282.264 C 331.135 280.698,331.585 278.669,332.192 272.891 C 332.581 269.193,333.020 266.837,333.437 266.200 C 334.305 264.875,334.692 262.990,335.198 257.620 C 335.507 254.344,335.897 252.499,336.611 250.940 C 337.259 249.523,337.739 247.452,338.012 244.892 C 338.880 236.774,339.199 234.762,339.801 233.598 C 340.812 231.643,341.207 228.663,341.604 220.000 C 341.902 213.501,342.140 211.382,342.755 209.787 C 344.098 206.301,344.694 195.780,343.679 193.484 C 342.437 190.677,344.949 190.800,288.656 190.800 C 238.876 190.800,238.545 190.805,237.680 191.611 M329.687 193.890 C 342.800 194.270,341.892 193.801,341.258 199.869 C 341.009 202.251,340.621 207.530,340.397 211.600 C 339.876 221.030,339.653 222.912,338.745 225.557 C 338.041 227.605,337.750 229.548,336.811 238.445 C 336.588 240.560,335.975 243.440,335.449 244.845 C 334.923 246.250,334.372 248.570,334.224 250.000 C 333.592 256.131,333.076 259.099,332.383 260.600 C 331.976 261.480,331.442 263.820,331.196 265.800 C 330.403 272.183,329.973 274.469,329.403 275.344 C 328.601 276.573,328.114 279.112,327.603 284.718 C 327.324 287.778,326.779 290.787,326.160 292.684 C 325.613 294.361,325.082 297.098,324.980 298.766 C 324.879 300.435,324.611 304.950,324.386 308.800 C 324.160 312.650,323.690 317.870,323.341 320.400 C 322.664 325.299,322.783 334.459,323.578 338.800 C 323.800 340.010,324.237 344.617,324.550 349.037 C 325.020 355.665,325.267 357.364,325.960 358.721 C 328.019 362.758,326.903 363.197,314.549 363.199 C 306.878 363.200,304.603 363.323,303.462 363.800 C 302.240 364.311,298.472 364.400,278.190 364.400 L 254.355 364.400 253.621 362.700 C 252.782 360.757,253.145 356.589,254.726 350.000 C 256.955 340.710,256.989 316.861,254.788 306.000 C 254.365 303.910,253.731 299.250,253.380 295.644 C 253.010 291.846,252.351 287.723,251.812 285.844 C 250.772 282.210,250.549 280.963,250.020 275.800 C 249.817 273.820,249.208 270.850,248.665 269.200 C 248.122 267.550,247.474 264.490,247.223 262.400 C 246.743 258.390,246.387 256.775,245.194 253.200 C 244.791 251.990,244.259 249.110,244.012 246.800 C 243.765 244.490,243.134 240.980,242.609 239.000 C 242.050 236.890,241.312 232.005,240.827 227.200 C 240.372 222.690,239.640 217.290,239.201 215.200 C 237.951 209.253,237.267 195.568,238.152 194.217 L 238.831 193.181 278.915 193.381 C 300.962 193.490,323.809 193.719,329.687 193.890 M105.678 215.191 C 103.606 215.426,102.326 215.814,101.278 216.528 C 100.465 217.081,99.100 217.721,98.243 217.950 C 97.387 218.179,96.307 218.723,95.843 219.158 C 95.380 219.593,94.254 220.455,93.343 221.074 C 90.719 222.856,86.884 227.344,86.574 228.996 C 86.423 229.804,85.966 230.604,85.520 230.843 C 84.309 231.491,83.663 233.527,83.364 237.642 C 83.214 239.709,82.852 241.873,82.560 242.452 C 81.713 244.131,80.812 246.923,80.806 247.891 C 80.802 248.429,80.364 249.048,79.700 249.455 C 79.095 249.825,78.198 250.594,77.706 251.164 L 76.812 252.200 66.970 252.400 C 57.220 252.598,57.120 252.609,56.364 253.544 C 55.343 254.806,55.161 289.646,56.167 291.024 C 56.691 291.742,57.359 291.809,65.038 291.924 C 72.145 292.029,73.491 292.148,74.371 292.745 C 74.937 293.129,76.210 293.767,77.200 294.162 C 78.190 294.558,79.257 295.009,79.571 295.166 C 79.885 295.322,80.449 296.519,80.826 297.825 C 81.202 299.131,81.890 301.070,82.355 302.133 C 82.820 303.196,83.204 304.816,83.208 305.733 C 83.224 308.961,83.947 312.540,84.794 313.579 C 85.252 314.140,86.076 315.528,86.625 316.662 C 87.174 317.796,88.057 319.007,88.586 319.354 C 89.116 319.701,89.787 320.482,90.078 321.089 C 90.369 321.696,91.080 322.419,91.657 322.696 C 92.235 322.973,92.991 323.632,93.337 324.160 C 93.683 324.689,94.829 325.442,95.883 325.835 C 96.938 326.228,98.391 327.055,99.114 327.674 C 99.837 328.293,100.557 328.802,100.714 328.803 C 100.871 328.805,103.205 329.067,105.899 329.385 C 113.494 330.280,121.497 329.303,123.352 327.254 C 123.760 326.802,124.980 326.139,126.062 325.779 C 127.174 325.410,128.299 324.716,128.648 324.183 C 128.988 323.665,129.881 322.877,130.633 322.434 C 131.385 321.990,132.000 321.416,132.000 321.158 C 132.000 320.900,132.709 319.921,133.575 318.981 C 134.441 318.041,135.348 316.536,135.590 315.636 C 135.833 314.736,136.200 314.000,136.406 314.000 C 137.426 314.000,138.129 311.737,138.646 306.783 C 139.058 302.833,139.380 301.320,139.985 300.491 C 140.422 299.891,141.023 298.439,141.320 297.264 C 141.856 295.138,141.870 295.123,144.429 294.111 C 145.843 293.551,147.273 292.858,147.606 292.570 C 148.053 292.183,150.428 292.014,156.692 291.923 C 164.198 291.814,165.255 291.718,165.887 291.086 C 166.653 290.320,167.200 264.087,166.592 257.302 C 166.155 252.425,166.662 252.636,154.803 252.400 L 144.734 252.200 143.934 251.100 C 143.493 250.495,142.893 250.000,142.599 250.000 C 142.305 250.000,141.760 249.055,141.388 247.900 C 141.015 246.745,140.356 245.180,139.923 244.423 C 139.410 243.526,139.003 241.711,138.756 239.223 C 138.181 233.421,138.048 232.884,136.844 231.491 C 136.229 230.781,135.529 229.621,135.289 228.913 C 134.685 227.139,131.047 222.829,129.049 221.519 C 128.142 220.925,126.820 219.890,126.111 219.219 C 125.403 218.549,124.504 218.000,124.115 218.000 C 123.726 218.000,122.145 217.382,120.604 216.626 C 117.443 215.077,111.628 214.518,105.678 215.191 M115.200 216.803 C 118.156 217.387,124.156 219.616,124.800 220.369 C 125.130 220.755,126.030 221.491,126.800 222.004 C 129.081 223.523,133.119 227.970,134.019 229.955 C 134.480 230.970,135.028 232.070,135.238 232.400 C 136.656 234.628,137.180 236.547,137.557 240.885 C 137.982 245.785,138.227 246.521,140.750 250.470 C 142.889 253.818,144.915 254.400,154.435 254.400 C 162.193 254.400,164.223 254.816,164.555 256.473 C 165.064 259.021,164.832 289.533,164.300 289.871 C 164.025 290.046,159.655 290.281,154.590 290.394 L 145.380 290.600 143.275 292.145 C 142.060 293.037,140.816 294.384,140.332 295.333 C 139.871 296.236,139.151 297.439,138.733 298.006 C 138.162 298.778,137.880 300.150,137.609 303.487 C 137.204 308.469,136.672 310.876,135.819 311.584 C 135.503 311.847,134.946 312.957,134.583 314.052 C 133.360 317.734,127.607 323.727,124.111 324.961 C 123.271 325.257,121.900 325.963,121.066 326.529 C 117.513 328.941,103.307 328.854,100.600 326.405 C 100.160 326.006,98.909 325.382,97.821 325.018 C 96.732 324.654,95.071 323.646,94.130 322.778 C 93.188 321.910,92.256 321.200,92.057 321.200 C 91.859 321.200,91.486 320.691,91.229 320.069 C 90.971 319.447,90.184 318.395,89.480 317.730 C 88.776 317.065,87.953 315.819,87.652 314.960 C 87.350 314.102,86.691 312.847,86.186 312.172 C 85.196 310.846,84.570 308.014,84.178 303.092 C 83.837 298.819,81.804 294.752,79.198 293.133 C 75.857 291.058,75.795 291.046,66.732 290.886 C 59.028 290.750,57.991 290.653,57.415 290.017 C 56.550 289.061,56.643 255.751,57.514 254.704 C 57.942 254.188,59.538 254.059,67.114 253.927 C 74.928 253.791,76.396 253.667,77.600 253.040 C 81.685 250.911,83.705 247.173,84.372 240.506 C 84.853 235.696,85.331 233.837,86.406 232.600 C 86.789 232.160,87.308 231.154,87.561 230.364 C 88.512 227.388,96.653 219.956,100.069 218.944 C 101.241 218.597,102.740 218.027,103.400 217.677 C 105.547 216.540,111.598 216.092,115.200 216.803 M83.800 266.676 C 79.809 267.658,78.044 272.556,80.498 275.838 C 82.612 278.664,79.791 278.442,111.935 278.313 L 140.070 278.200 141.030 277.000 C 141.558 276.340,142.362 275.356,142.816 274.814 C 144.387 272.937,142.977 269.405,139.855 267.400 C 138.655 266.630,86.716 265.959,83.800 266.676 M137.170 268.869 C 140.341 269.601,141.212 271.612,139.938 275.262 C 139.239 277.266,140.386 277.191,110.526 277.196 C 83.792 277.200,82.400 277.123,82.400 275.634 C 82.400 275.201,82.220 274.736,82.000 274.600 C 80.170 273.469,81.994 269.466,84.620 268.851 C 87.061 268.279,134.685 268.295,137.170 268.869 M57.904 302.286 C 55.484 302.653,55.599 300.739,55.610 340.589 C 55.619 377.688,55.686 379.388,57.196 380.996 C 57.671 381.501,58.361 382.519,58.730 383.257 C 59.098 383.995,59.874 384.824,60.454 385.099 C 61.033 385.374,61.792 386.033,62.140 386.564 C 63.896 389.245,68.465 389.600,100.800 389.574 C 149.825 389.534,156.438 389.142,159.768 386.073 C 160.766 385.153,161.741 384.400,161.935 384.400 C 162.130 384.400,162.719 383.590,163.244 382.600 C 163.769 381.610,164.313 380.800,164.454 380.800 C 165.742 380.800,166.194 377.660,166.396 367.325 L 166.600 356.851 167.765 355.636 C 168.405 354.968,169.757 354.146,170.769 353.810 C 173.884 352.776,174.147 351.572,171.050 352.523 C 165.287 354.291,165.485 353.817,165.171 366.600 L 164.925 376.600 163.241 379.800 C 162.051 382.062,161.124 383.281,160.079 383.959 C 159.265 384.486,158.447 385.178,158.259 385.496 C 156.973 387.679,145.781 388.200,100.200 388.200 C 66.012 388.200,66.135 388.208,63.207 385.857 C 62.347 385.166,61.228 384.306,60.721 383.947 C 60.215 383.587,59.080 381.881,58.200 380.154 L 56.600 377.014 56.490 340.850 C 56.388 307.443,56.431 304.629,57.052 303.943 C 57.656 303.275,58.404 303.200,64.453 303.200 C 72.290 303.200,72.122 303.109,72.553 307.566 C 72.690 308.977,73.226 311.058,73.744 312.190 C 74.262 313.322,74.813 315.092,74.967 316.122 C 75.128 317.195,75.666 318.493,76.226 319.157 C 76.763 319.796,77.542 321.076,77.956 322.001 C 79.365 325.148,88.442 334.398,90.124 334.401 C 90.386 334.401,91.622 335.096,92.872 335.945 C 94.140 336.807,95.887 337.608,96.825 337.758 C 97.749 337.905,99.471 338.483,100.651 339.041 C 105.006 341.102,117.045 341.204,120.865 339.213 C 121.690 338.783,123.472 338.144,124.824 337.794 C 126.176 337.443,128.168 336.547,129.252 335.802 C 130.335 335.057,131.621 334.323,132.111 334.171 C 132.600 334.018,133.720 333.274,134.600 332.516 C 138.785 328.911,140.089 327.741,140.718 327.020 C 141.093 326.591,141.874 325.774,142.453 325.204 C 143.032 324.633,143.909 323.229,144.402 322.083 C 144.895 320.938,145.413 320.000,145.553 320.000 C 146.057 320.000,146.900 318.224,147.625 315.636 C 148.032 314.186,148.732 312.287,149.182 311.415 C 149.745 310.325,150.000 309.065,150.000 307.377 C 150.000 303.672,150.146 303.600,157.703 303.600 C 166.058 303.600,165.200 301.854,165.200 318.848 C 165.200 334.161,165.193 334.114,167.604 336.142 C 168.282 336.712,169.593 337.380,170.518 337.627 C 171.443 337.873,172.523 338.363,172.917 338.715 C 173.583 339.309,173.614 339.300,173.355 338.578 C 172.913 337.347,172.445 336.898,171.305 336.612 C 170.721 336.465,169.604 335.811,168.822 335.159 C 168.040 334.506,167.175 333.791,166.900 333.570 C 166.517 333.262,166.400 329.807,166.400 318.766 L 166.400 304.364 165.418 303.382 C 164.453 302.416,164.323 302.400,157.634 302.400 C 149.770 302.400,149.568 302.486,148.875 306.140 C 148.660 307.273,148.130 309.118,147.699 310.239 C 147.267 311.360,146.690 313.464,146.416 314.914 C 146.100 316.588,145.622 317.814,145.105 318.275 C 144.657 318.674,143.793 320.102,143.185 321.450 C 142.576 322.797,141.743 324.147,141.332 324.450 C 140.922 324.752,140.279 325.481,139.904 326.070 C 139.528 326.658,138.855 327.256,138.406 327.398 C 137.958 327.540,137.323 328.176,136.995 328.810 C 136.667 329.444,135.754 330.269,134.966 330.643 C 134.178 331.017,133.389 331.702,133.213 332.166 C 133.000 332.725,132.277 333.174,131.069 333.497 C 130.066 333.765,128.627 334.528,127.871 335.191 C 126.843 336.094,125.706 336.561,123.349 337.046 C 121.617 337.402,119.480 338.060,118.600 338.508 C 115.327 340.174,106.615 340.150,103.135 338.465 C 102.177 338.002,99.955 337.329,98.197 336.970 C 95.808 336.483,94.798 336.075,94.200 335.356 C 93.760 334.827,92.445 334.062,91.278 333.655 C 90.112 333.249,88.873 332.511,88.526 332.016 C 88.179 331.521,87.289 330.862,86.548 330.552 C 85.806 330.243,85.200 329.768,85.200 329.498 C 85.200 329.228,84.573 328.375,83.808 327.603 C 80.264 324.032,79.574 323.141,78.822 321.162 C 78.380 319.997,77.587 318.674,77.061 318.222 C 76.320 317.585,75.952 316.588,75.429 313.800 C 75.058 311.820,74.499 309.687,74.187 309.060 C 73.876 308.433,73.513 307.263,73.380 306.460 C 72.956 303.888,72.382 302.872,71.103 302.426 C 69.954 302.025,60.297 301.923,57.904 302.286 M246.626 375.284 C 246.282 375.776,246.000 376.402,246.000 376.675 C 246.000 376.948,245.450 377.798,244.779 378.563 C 241.984 381.746,242.193 388.800,245.082 388.800 C 245.425 388.800,246.295 389.164,247.014 389.609 C 248.560 390.564,332.503 390.707,333.115 389.756 C 333.272 389.512,333.940 389.034,334.600 388.694 C 337.688 387.104,338.329 384.706,336.376 382.045 C 335.954 381.470,335.423 380.010,335.196 378.801 C 334.930 377.382,334.428 376.246,333.782 375.601 L 332.782 374.600 290.017 374.495 L 247.253 374.389 246.626 375.284 M331.866 375.314 C 334.351 376.708,336.923 384.408,335.668 386.696 C 334.337 389.122,336.740 389.000,290.200 389.000 C 244.095 389.000,244.958 389.040,243.819 386.836 C 243.054 385.358,243.544 382.013,244.767 380.358 C 245.251 379.705,245.908 378.427,246.228 377.520 C 246.549 376.612,247.010 375.629,247.254 375.335 C 247.877 374.585,330.530 374.565,331.866 375.314 " stroke="none" fill="#474c30" fill-rule="evenodd"></path></g></svg>