<svg id="svg" version="1.1" xmlns="http://www.w3.org/2000/svg" xmlns:xlink="http://www.w3.org/1999/xlink" width="400" height="400" viewBox="0, 0, 400,400"><g id="svgg"><path id="path0" d="M184.574 166.748 C 180.086 166.982,179.658 167.076,178.455 168.090 C 177.027 169.294,173.795 170.400,171.707 170.400 C 170.568 170.400,170.293 170.587,169.939 171.602 C 169.657 172.411,169.173 172.882,168.460 173.040 C 166.033 173.577,165.979 173.613,166.400 174.401 C 166.620 174.811,166.800 175.494,166.800 175.918 C 166.800 176.544,167.173 176.733,168.789 176.924 C 171.242 177.215,172.334 177.773,172.789 178.972 C 173.119 179.838,173.405 179.907,177.470 180.097 C 181.227 180.272,182.288 180.491,185.485 181.750 L 189.170 183.200 196.685 183.200 C 203.389 183.200,204.437 183.108,206.400 182.350 C 207.610 181.883,210.807 181.177,213.505 180.782 C 217.560 180.188,218.619 179.887,219.623 179.042 C 220.290 178.481,221.503 177.836,222.318 177.611 C 224.393 177.036,224.646 176.794,224.907 175.134 C 225.144 173.631,224.389 172.400,223.229 172.400 C 222.950 172.400,222.244 171.890,221.660 171.268 C 220.780 170.327,219.967 170.020,216.866 169.454 C 214.812 169.079,212.292 168.338,211.266 167.808 C 209.192 166.736,195.328 166.185,184.574 166.748 M238.295 182.158 C 236.729 184.379,232.986 187.795,231.273 188.567 C 230.353 188.982,229.600 189.470,229.600 189.650 C 229.600 190.131,227.684 191.014,225.464 191.556 C 224.399 191.817,223.038 192.391,222.440 192.833 C 221.718 193.368,219.820 193.885,216.777 194.376 C 214.260 194.782,211.030 195.523,209.600 196.022 C 204.274 197.879,184.784 197.606,178.600 195.588 C 177.280 195.157,174.435 194.551,172.278 194.241 C 169.322 193.817,167.986 193.422,166.856 192.639 C 166.032 192.068,165.097 191.599,164.778 191.598 C 163.337 191.592,161.155 190.675,159.550 189.399 C 158.587 188.634,157.588 188.006,157.329 188.004 C 157.070 188.002,156.478 187.517,156.013 186.926 C 155.549 186.335,154.632 185.526,153.976 185.127 C 153.320 184.728,152.587 183.971,152.347 183.444 C 151.259 181.055,143.695 181.094,140.630 183.505 C 140.058 183.955,138.648 184.544,137.495 184.814 C 134.968 185.407,133.967 185.892,133.286 186.852 C 133.003 187.250,132.013 187.797,131.086 188.067 C 130.158 188.336,128.696 189.149,127.835 189.872 C 126.974 190.596,125.667 191.301,124.930 191.440 C 124.084 191.598,123.279 192.127,122.748 192.873 C 122.285 193.524,121.470 194.221,120.936 194.424 C 120.403 194.627,119.661 195.325,119.288 195.976 C 118.915 196.626,118.218 197.337,117.739 197.555 C 117.261 197.773,116.744 198.367,116.591 198.876 C 116.437 199.384,115.816 200.340,115.210 201.000 C 113.284 203.096,112.390 208.004,113.833 208.557 C 115.197 209.081,239.480 208.827,239.909 208.300 C 240.133 208.025,240.381 205.716,240.459 203.168 C 240.590 198.908,240.685 198.426,241.643 197.168 C 242.216 196.416,242.799 195.439,242.938 194.998 C 243.343 193.718,246.504 190.899,248.489 190.048 C 249.492 189.618,250.424 189.085,250.561 188.864 C 250.697 188.642,251.752 188.156,252.905 187.783 C 256.874 186.500,256.902 185.910,253.044 184.841 C 251.575 184.433,250.057 183.814,249.670 183.464 C 248.950 182.811,245.594 181.914,241.486 181.276 C 239.188 180.919,239.165 180.926,238.295 182.158 M117.067 239.067 C 116.920 239.213,116.800 239.835,116.800 240.449 C 116.800 241.412,116.604 241.600,115.361 241.834 C 114.264 242.039,113.830 242.369,113.533 243.220 C 112.910 245.007,113.102 244.995,83.500 245.113 L 55.200 245.226 55.200 248.413 L 55.200 251.600 179.122 251.600 L 303.043 251.600 304.400 250.200 C 305.281 249.291,306.130 248.800,306.821 248.800 C 307.675 248.800,307.957 248.547,308.253 247.516 C 308.736 245.830,309.354 245.688,316.400 245.642 C 323.280 245.597,325.112 245.983,325.723 247.601 C 326.042 248.446,326.502 248.805,327.505 248.993 C 328.535 249.186,328.956 249.528,329.268 250.424 L 329.678 251.600 347.039 251.600 L 364.400 251.600 364.400 248.400 L 364.400 245.200 250.900 245.177 C 129.189 245.152,134.501 245.236,133.600 243.331 C 133.167 242.414,132.643 241.993,131.715 241.815 C 130.637 241.609,130.389 241.347,130.171 240.185 L 129.911 238.800 123.622 238.800 C 120.163 238.800,117.213 238.920,117.067 239.067 M264.514 311.500 L 251.629 311.611 251.181 313.106 C 250.874 314.133,250.775 319.539,250.867 330.400 L 251.000 346.200 252.307 348.698 C 253.026 350.071,253.727 352.018,253.865 353.024 C 254.043 354.321,254.560 355.391,255.642 356.700 C 256.482 357.716,257.282 359.062,257.420 359.691 C 257.583 360.435,258.218 361.180,259.236 361.822 C 260.096 362.366,260.800 362.965,260.800 363.155 C 260.800 363.345,271.375 363.631,284.300 363.789 C 311.633 364.125,311.585 364.119,314.249 367.078 C 315.201 368.135,316.185 369.720,316.435 370.600 C 316.686 371.480,316.957 372.430,317.037 372.710 C 317.149 373.102,318.645 373.195,323.491 373.110 L 329.800 373.000 330.048 371.000 C 330.813 364.835,332.774 364.023,346.925 364.008 C 355.874 363.999,357.798 363.580,358.979 361.388 C 359.385 360.632,360.134 359.742,360.643 359.408 C 361.152 359.075,361.756 358.106,361.985 357.255 C 362.214 356.404,362.921 355.054,363.556 354.255 C 364.823 352.662,364.903 352.344,365.790 345.480 C 366.231 342.068,366.400 337.031,366.400 327.317 L 366.400 313.876 365.380 312.538 L 364.359 311.200 320.880 311.294 C 296.966 311.346,271.601 311.439,264.514 311.500 " stroke="none" fill="#dbcdbe" fill-rule="evenodd"></path><path id="path1" d="M263.000 166.786 C 262.560 166.971,261.489 167.859,260.620 168.760 L 259.040 170.398 259.884 172.137 C 260.683 173.782,260.862 173.904,263.181 174.396 C 264.849 174.750,265.866 175.212,266.360 175.840 C 266.760 176.349,268.313 177.226,269.812 177.790 C 271.311 178.354,272.755 178.997,273.023 179.219 C 273.375 179.511,273.737 179.235,274.341 178.211 C 274.798 177.435,275.387 176.800,275.649 176.800 C 275.957 176.800,275.902 176.554,275.493 176.100 C 275.146 175.715,274.737 174.899,274.584 174.286 C 274.422 173.637,273.828 172.925,273.160 172.579 C 272.529 172.253,271.754 171.485,271.437 170.871 C 271.120 170.258,270.394 169.543,269.824 169.284 C 269.254 169.024,268.589 168.374,268.345 167.840 C 267.722 166.472,265.019 165.939,263.000 166.786 M63.436 222.298 C 50.992 222.375,45.307 222.545,44.936 222.853 C 44.287 223.391,44.226 226.582,44.831 228.317 L 45.262 229.554 62.731 229.772 C 72.339 229.891,87.040 230.126,95.400 230.294 L 110.600 230.600 112.400 231.600 C 116.235 233.731,116.373 237.883,112.688 240.322 L 111.059 241.400 69.030 241.700 C 45.913 241.864,26.776 242.083,26.502 242.186 C 24.745 242.846,23.553 249.671,24.792 251.984 C 25.675 253.635,22.642 253.602,166.502 253.499 L 305.288 253.400 306.344 252.142 C 310.716 246.932,320.769 246.616,326.138 251.519 C 328.432 253.614,328.288 253.600,346.910 253.600 L 364.261 253.600 365.130 252.674 C 366.771 250.928,366.210 243.611,364.306 241.905 C 364.248 241.853,312.796 241.718,249.969 241.605 L 135.738 241.400 134.305 240.307 C 130.144 237.133,131.574 231.792,136.857 230.772 C 137.816 230.586,184.500 230.426,240.600 230.415 C 307.177 230.402,343.099 230.257,344.037 229.996 C 346.182 229.400,347.417 224.142,345.739 222.749 C 345.121 222.237,129.754 221.893,63.436 222.298 M131.000 237.445 C 132.512 240.269,133.442 241.000,136.795 241.999 C 139.460 242.792,140.583 242.800,251.499 242.800 C 361.177 242.800,363.531 242.816,364.456 243.564 C 365.481 244.394,366.084 250.722,365.256 251.957 C 364.591 252.948,361.279 253.152,345.474 253.176 C 329.290 253.201,329.202 253.193,327.200 251.414 C 320.894 245.811,310.774 245.950,305.969 251.705 L 304.887 253.000 165.886 253.000 C 29.756 253.000,26.867 252.984,26.042 252.238 C 24.890 251.195,24.784 245.300,25.900 244.291 C 26.705 243.563,33.924 243.379,81.400 242.871 C 102.470 242.645,109.371 242.451,110.567 242.050 C 113.411 241.097,114.953 239.829,116.155 237.453 L 117.295 235.200 123.548 235.201 L 129.800 235.203 131.000 237.445 M79.800 266.014 C 78.480 266.178,70.260 266.333,61.533 266.357 C 52.806 266.380,45.381 266.509,45.033 266.643 C 43.788 267.120,44.370 280.748,45.810 284.827 C 46.134 285.747,46.673 288.233,47.008 290.350 C 48.028 296.812,48.453 298.567,49.198 299.400 C 49.591 299.840,50.144 301.522,50.427 303.139 C 50.747 304.963,51.351 306.707,52.022 307.739 C 52.615 308.652,53.416 310.390,53.801 311.600 C 54.185 312.810,54.826 314.160,55.223 314.600 C 55.621 315.040,56.331 316.300,56.802 317.400 C 57.272 318.499,58.068 319.939,58.571 320.600 C 59.074 321.260,59.625 322.250,59.796 322.800 C 59.966 323.350,60.704 324.467,61.436 325.282 C 62.167 326.097,63.119 327.447,63.550 328.282 C 63.982 329.117,64.722 330.124,65.195 330.520 C 65.668 330.916,66.238 331.763,66.461 332.403 C 66.684 333.044,67.212 333.677,67.634 333.811 C 68.056 333.945,68.601 334.447,68.845 334.927 C 69.089 335.407,69.908 336.430,70.665 337.200 C 77.831 344.491,80.680 347.200,81.179 347.200 C 81.381 347.200,81.657 347.548,81.792 347.973 C 81.926 348.399,82.839 349.135,83.819 349.609 C 84.799 350.083,85.735 350.690,85.900 350.958 C 86.065 351.225,86.920 351.872,87.800 352.394 C 88.680 352.917,90.076 353.942,90.901 354.673 C 91.727 355.403,92.658 356.000,92.970 356.000 C 93.283 356.000,94.063 356.441,94.703 356.980 C 95.343 357.518,96.842 358.342,98.034 358.810 C 99.225 359.277,100.585 360.019,101.056 360.458 C 101.526 360.897,102.966 361.590,104.256 361.997 C 105.545 362.404,107.230 363.066,108.000 363.469 C 110.410 364.728,241.170 365.987,242.642 364.765 C 243.507 364.047,243.330 361.306,242.329 359.900 C 241.849 359.227,240.964 356.859,240.362 354.638 C 239.759 352.417,238.952 349.610,238.568 348.400 C 237.418 344.782,237.446 307.640,238.600 305.552 C 241.468 300.363,243.253 299.212,249.955 298.230 C 252.310 297.885,254.599 296.197,255.724 293.974 C 258.050 289.377,264.058 283.245,268.472 280.963 C 269.202 280.585,270.264 279.933,270.831 279.513 C 272.308 278.422,278.868 276.708,287.683 275.111 C 289.815 274.725,290.093 274.539,291.883 272.302 C 292.937 270.984,294.417 269.299,295.172 268.558 C 295.927 267.817,296.467 267.143,296.372 267.060 C 294.925 265.787,296.034 265.801,188.200 265.757 C 129.900 265.733,81.120 265.849,79.800 266.014 M337.877 266.282 C 336.884 266.917,336.786 267.162,337.023 268.400 C 337.171 269.170,337.419 270.838,337.574 272.107 C 338.142 276.767,342.242 279.407,345.320 277.095 C 346.485 276.220,346.759 267.162,345.641 266.495 C 344.124 265.590,339.171 265.454,337.877 266.282 M257.725 309.899 C 261.204 309.966,266.784 309.966,270.125 309.899 C 273.466 309.832,270.620 309.778,263.800 309.778 C 256.980 309.778,254.246 309.833,257.725 309.899 M251.478 351.395 C 251.844 352.162,252.214 352.719,252.301 352.632 C 252.484 352.449,251.270 350.000,250.996 350.000 C 250.895 350.000,251.112 350.628,251.478 351.395 M260.746 365.306 C 260.914 365.475,266.261 365.565,272.626 365.506 L 284.200 365.399 272.320 365.200 C 265.785 365.090,260.577 365.138,260.746 365.306 " stroke="none" fill="#3c5493" fill-rule="evenodd"></path><path id="path2" d="M242.400 0.800 C 242.400 1.379,242.133 1.600,241.433 1.600 C 239.305 1.600,239.200 1.805,239.200 5.963 C 239.200 10.192,239.462 10.800,241.280 10.800 C 242.320 10.800,242.400 10.914,242.400 12.400 L 242.400 14.000 256.400 14.000 L 270.400 14.000 270.400 15.357 C 270.400 16.791,270.896 17.200,272.633 17.200 C 273.375 17.200,273.600 17.414,273.600 18.120 C 273.600 19.292,274.308 20.000,275.480 20.000 C 276.367 20.000,276.400 20.120,276.400 23.375 L 276.400 26.749 275.100 26.875 C 273.957 26.985,273.785 27.157,273.675 28.300 L 273.549 29.600 248.875 29.623 C 221.157 29.649,221.189 29.647,220.662 31.484 C 220.388 32.439,220.001 32.824,219.124 33.017 C 217.509 33.371,217.200 34.451,217.200 39.746 C 217.200 44.616,217.420 45.200,219.256 45.200 C 220.233 45.200,220.365 45.362,220.476 46.700 L 220.600 48.200 250.000 48.200 L 279.400 48.200 279.523 46.716 L 279.646 45.233 282.723 45.116 L 285.800 45.000 285.923 43.523 C 286.038 42.135,286.135 42.038,287.523 41.923 C 288.861 41.812,289.012 41.680,289.124 40.524 C 289.231 39.412,289.412 39.231,290.524 39.124 L 291.800 39.000 291.916 35.923 L 292.033 32.846 293.516 32.723 L 295.000 32.600 295.108 23.628 C 295.224 13.962,295.236 14.018,293.100 14.006 L 292.000 14.000 292.000 11.000 L 292.000 8.000 290.624 8.000 C 289.323 8.000,289.242 7.919,289.124 6.500 C 289.007 5.086,288.915 4.993,287.523 4.877 C 286.135 4.762,286.038 4.665,285.923 3.277 C 285.807 1.885,285.714 1.793,284.300 1.676 C 283.125 1.579,282.800 1.384,282.800 0.776 C 282.800 0.018,282.324 0.000,262.600 0.000 C 242.667 0.000,242.400 0.011,242.400 0.800 M147.200 29.953 C 145.979 30.168,145.784 30.364,145.676 31.484 L 145.552 32.767 142.476 32.884 L 139.400 33.000 139.276 34.500 C 139.161 35.893,139.061 36.000,137.876 36.002 C 134.127 36.009,132.809 37.327,132.802 41.076 C 132.800 42.261,132.693 42.361,131.300 42.476 C 129.849 42.596,129.796 42.655,129.679 44.268 C 129.588 45.517,129.311 46.097,128.579 46.577 C 128.040 46.930,127.600 47.469,127.600 47.776 C 127.600 48.082,127.375 48.408,127.100 48.500 C 126.719 48.627,126.603 50.887,126.612 58.033 C 126.626 68.145,126.834 69.393,128.586 69.832 C 129.434 70.045,129.603 70.325,129.619 71.543 C 129.645 73.528,130.794 75.770,131.862 75.923 C 132.498 76.013,132.791 76.426,132.996 77.522 C 133.319 79.240,133.732 79.585,135.473 79.594 C 136.404 79.598,136.816 79.821,137.008 80.424 C 137.152 80.878,137.704 81.447,138.235 81.689 C 138.766 81.930,139.200 82.280,139.200 82.464 C 139.200 82.649,140.518 82.800,142.129 82.800 L 145.059 82.800 145.429 84.300 L 145.800 85.800 195.700 85.902 L 245.600 86.003 245.600 86.922 C 245.600 88.092,246.308 88.800,247.480 88.800 C 248.215 88.800,248.401 89.021,248.406 89.900 C 248.415 91.468,248.817 91.912,250.403 92.103 L 251.800 92.272 250.347 92.336 C 248.670 92.410,248.414 92.932,248.405 96.300 L 248.400 98.400 218.226 98.400 C 185.914 98.400,186.000 98.395,186.000 100.390 L 186.000 101.600 182.987 101.600 C 180.479 101.600,179.934 101.717,179.728 102.300 C 179.230 103.711,177.876 104.800,176.619 104.800 C 174.367 104.800,173.600 105.721,173.600 108.423 C 173.600 110.670,173.547 110.800,172.633 110.800 C 170.573 110.800,170.400 111.076,170.400 114.355 C 170.400 117.380,170.383 117.431,169.232 117.866 C 167.484 118.525,167.202 120.208,167.225 129.800 C 167.252 140.419,167.386 141.277,169.102 141.783 C 170.271 142.127,170.400 142.317,170.400 143.683 L 170.400 145.200 177.324 145.200 C 186.688 145.200,185.769 146.429,185.934 133.676 L 186.069 123.286 187.243 123.051 C 188.155 122.869,188.471 122.544,188.662 121.591 C 188.840 120.701,189.260 120.218,190.199 119.826 C 191.026 119.480,191.586 118.911,191.753 118.243 L 192.015 117.200 222.108 117.160 C 254.873 117.117,254.142 117.158,254.322 115.332 C 254.439 114.143,254.526 114.089,256.616 113.915 C 258.895 113.726,260.400 112.809,260.400 111.609 C 260.400 111.172,260.913 110.813,261.884 110.571 C 263.524 110.161,263.891 109.441,263.960 106.500 C 263.998 104.903,264.070 104.800,265.151 104.800 C 267.191 104.800,267.220 104.608,267.106 91.952 L 267.000 80.200 265.500 79.829 C 264.139 79.493,264.000 79.335,264.000 78.120 C 264.000 77.109,263.779 76.688,263.100 76.404 C 261.704 75.820,260.800 74.976,260.800 74.256 C 260.800 73.773,260.431 73.600,259.400 73.600 C 258.186 73.600,258.000 73.472,258.000 72.633 C 258.000 70.585,257.714 70.400,254.557 70.400 L 251.600 70.400 251.600 69.280 C 251.600 67.089,254.337 67.200,200.390 67.200 L 150.139 67.200 149.329 66.300 C 148.884 65.805,148.408 65.085,148.272 64.700 C 148.100 64.212,147.597 64.000,146.613 64.000 L 145.200 64.000 145.200 59.028 C 145.200 54.229,145.230 54.051,146.070 53.928 C 146.548 53.858,147.237 53.260,147.600 52.600 C 147.993 51.886,148.653 51.344,149.230 51.262 C 150.578 51.069,151.200 50.466,151.200 49.351 L 151.200 48.400 177.586 48.400 C 206.734 48.400,204.800 48.569,204.800 46.026 C 204.800 45.373,205.054 45.200,206.010 45.200 C 207.771 45.200,208.120 43.942,207.890 38.431 C 207.685 33.526,207.358 32.800,205.349 32.800 C 204.628 32.800,204.426 32.543,204.325 31.500 C 204.209 30.292,204.072 30.181,202.400 29.930 C 200.157 29.593,149.117 29.614,147.200 29.953 M60.096 68.311 C 59.379 68.910,58.794 69.599,58.796 69.842 C 58.799 70.102,57.609 70.384,55.906 70.527 C 52.910 70.778,52.000 71.325,52.000 72.876 C 52.000 73.398,51.692 73.602,50.900 73.606 C 49.140 73.616,48.798 74.096,48.534 76.929 C 48.295 79.490,48.241 79.600,47.222 79.600 C 45.434 79.600,45.200 80.212,45.200 84.880 C 45.200 88.880,45.143 89.200,44.429 89.200 C 41.962 89.200,41.548 93.417,43.800 95.600 C 45.193 96.950,45.200 96.975,45.219 100.578 C 45.241 104.721,46.006 106.915,47.502 107.128 C 48.193 107.226,48.400 107.519,48.400 108.395 C 48.400 110.311,48.774 110.800,50.243 110.800 C 51.348 110.800,51.600 110.954,51.600 111.626 C 51.600 113.574,52.249 114.000,55.214 114.000 L 58.000 114.000 58.000 115.357 C 58.000 117.287,56.721 117.200,85.207 117.200 L 111.149 117.200 111.275 118.500 C 111.380 119.591,111.581 119.821,112.524 119.929 C 113.666 120.060,113.752 120.173,114.170 122.082 C 114.356 122.933,114.706 123.221,115.803 123.427 L 117.200 123.689 117.206 133.945 C 117.209 139.585,117.358 144.429,117.535 144.709 C 117.782 145.098,119.600 145.193,125.229 145.109 L 132.600 145.000 132.704 128.289 C 132.787 115.119,132.702 111.545,132.304 111.423 C 132.027 111.337,131.305 111.158,130.700 111.026 C 129.757 110.819,129.600 110.586,129.600 109.392 C 129.600 108.035,129.560 108.000,128.000 108.000 L 126.400 108.000 126.400 106.400 C 126.400 104.838,126.367 104.800,125.000 104.800 C 123.786 104.800,123.600 104.672,123.600 103.833 C 123.600 101.786,123.313 101.600,120.169 101.600 L 117.223 101.600 116.889 100.313 C 116.405 98.443,117.002 98.484,89.324 98.440 L 64.048 98.400 63.924 96.900 C 63.807 95.481,63.719 95.393,62.300 95.276 C 60.157 95.099,60.009 92.496,62.088 91.572 C 63.097 91.124,63.465 90.639,63.788 89.335 C 64.675 85.751,63.015 86.000,86.029 86.000 C 108.357 86.000,107.475 86.073,107.829 84.184 C 108.044 83.039,108.264 82.827,109.340 82.722 L 110.600 82.600 110.600 76.600 L 110.600 70.600 109.327 70.477 C 108.258 70.373,108.009 70.148,107.776 69.077 C 107.359 67.152,108.126 67.212,84.000 67.217 L 61.400 67.222 60.096 68.311 M295.354 72.000 C 295.115 73.490,295.007 73.600,293.785 73.600 L 292.472 73.600 292.189 76.998 C 291.901 80.449,292.222 85.880,292.804 87.410 C 293.403 88.987,295.442 89.200,309.946 89.200 L 323.600 89.200 323.600 90.600 C 323.600 91.927,323.672 92.000,324.966 92.000 L 326.332 92.000 326.612 94.994 C 327.058 99.753,326.652 101.524,325.079 101.676 C 323.916 101.789,323.789 101.936,323.676 103.300 L 323.552 104.800 311.676 104.806 C 298.836 104.813,299.034 104.784,298.618 106.700 C 298.368 107.854,298.185 108.000,296.987 108.000 C 295.060 108.000,293.723 108.726,292.816 110.263 C 292.382 110.998,291.748 111.600,291.408 111.600 C 290.487 111.600,289.203 113.986,289.201 115.700 C 289.200 117.085,289.112 117.200,288.049 117.200 C 285.973 117.200,285.959 117.300,286.084 131.375 C 286.182 142.455,286.291 144.488,286.800 144.814 C 287.141 145.032,290.423 145.155,294.400 145.099 L 301.400 145.000 301.522 143.325 C 301.622 141.953,301.802 141.627,302.518 141.525 C 304.178 141.288,304.576 139.563,304.732 131.927 C 304.919 122.794,303.648 123.692,316.619 123.530 C 327.815 123.390,329.200 123.133,329.200 121.191 C 329.200 120.479,329.477 120.400,331.971 120.400 C 335.016 120.400,336.000 119.861,336.000 118.196 C 336.000 117.390,336.224 117.230,337.500 117.124 C 338.919 117.007,339.007 116.919,339.124 115.500 C 339.242 114.081,339.323 114.000,340.624 114.000 C 341.963 114.000,342.000 113.957,342.000 112.400 C 342.000 111.067,342.133 110.800,342.800 110.800 C 345.119 110.800,345.222 110.216,345.106 97.694 L 345.000 86.200 343.500 86.076 L 342.000 85.952 342.000 82.994 L 342.000 80.036 340.600 79.774 C 339.521 79.571,339.199 79.315,339.194 78.655 C 339.184 77.331,338.712 76.876,337.197 76.733 C 336.055 76.624,335.775 76.417,335.662 75.600 C 335.420 73.853,334.902 73.600,331.569 73.600 C 328.324 73.600,327.009 72.965,326.271 71.040 C 326.052 70.469,324.388 70.400,310.817 70.400 L 295.609 70.400 295.354 72.000 M95.867 145.867 C 95.720 146.013,95.600 146.638,95.600 147.254 L 95.600 148.375 90.900 148.487 L 86.200 148.600 86.076 150.100 C 85.960 151.504,85.868 151.600,84.636 151.600 C 81.339 151.600,79.600 153.344,79.600 156.649 C 79.600 157.917,79.517 158.000,78.250 158.000 C 76.740 158.000,76.400 158.781,76.400 162.250 L 76.400 164.000 71.650 164.000 C 65.149 164.000,64.536 164.152,64.218 165.843 C 63.989 167.065,63.830 167.200,62.625 167.200 C 61.210 167.200,60.800 167.702,60.800 169.433 C 60.800 170.272,60.614 170.400,59.400 170.400 C 58.033 170.400,58.000 170.438,58.000 172.000 L 58.000 173.600 56.400 173.600 L 54.800 173.600 54.800 176.529 L 54.800 179.459 53.300 179.829 L 51.800 180.200 51.687 184.700 L 51.574 189.200 49.987 189.200 C 48.402 189.200,48.400 189.202,48.400 190.800 C 48.400 192.352,48.360 192.400,47.043 192.400 C 45.505 192.400,45.200 192.869,45.200 195.233 C 45.200 196.814,44.434 197.994,43.069 198.518 C 42.497 198.738,42.400 199.444,42.400 203.387 L 42.400 208.000 37.843 208.000 C 32.944 208.000,32.800 208.064,32.800 210.233 C 32.800 211.065,32.611 211.200,31.447 211.200 C 29.670 211.200,29.612 211.467,29.605 219.643 L 29.600 226.287 25.300 226.509 C 20.336 226.765,18.493 227.304,17.981 228.649 C 17.714 229.353,17.314 229.600,16.443 229.600 C 14.487 229.600,14.000 229.967,14.000 231.443 C 14.000 232.718,13.919 232.800,12.647 232.800 C 11.059 232.800,10.814 233.346,10.805 236.900 C 10.800 239.032,10.733 239.200,9.880 239.200 C 8.116 239.200,8.000 239.723,8.000 247.654 C 8.000 255.702,8.238 257.044,9.734 257.419 C 10.590 257.634,10.725 257.951,10.967 260.313 C 11.281 263.373,11.665 264.000,13.224 264.000 C 14.201 264.000,14.366 264.171,14.475 265.298 C 14.637 266.977,15.185 267.092,23.300 267.153 L 29.600 267.200 29.623 279.100 C 29.651 293.319,29.731 293.992,31.501 294.772 L 32.800 295.344 32.800 299.685 C 32.800 304.616,33.371 306.581,34.981 307.193 C 35.956 307.564,36.000 307.718,36.000 310.790 C 36.000 313.578,36.092 314.001,36.700 314.007 C 38.105 314.021,39.200 315.757,39.200 317.969 C 39.200 320.678,40.051 322.696,41.266 322.868 C 42.077 322.983,42.233 323.289,42.454 325.200 C 42.789 328.096,43.097 328.759,44.244 329.047 C 44.877 329.206,45.202 329.576,45.205 330.143 C 45.219 332.190,45.641 332.800,47.047 332.800 C 48.389 332.800,48.400 332.816,48.440 334.700 C 48.505 337.821,48.856 338.583,50.293 338.724 C 51.432 338.835,51.566 338.991,51.677 340.324 C 51.793 341.715,51.886 341.807,53.300 341.924 C 54.758 342.045,54.800 342.092,54.800 343.624 C 54.800 345.196,54.804 345.200,56.400 345.200 L 58.000 345.200 58.000 346.800 C 58.000 348.016,58.157 348.400,58.656 348.400 C 59.376 348.400,60.220 349.304,60.804 350.700 C 61.091 351.388,61.507 351.600,62.566 351.600 C 63.879 351.600,63.958 351.679,64.076 353.100 C 64.193 354.514,64.285 354.607,65.677 354.723 C 67.065 354.838,67.162 354.935,67.277 356.323 C 67.393 357.715,67.486 357.807,68.900 357.924 C 70.315 358.041,70.400 358.126,70.400 359.407 L 70.400 360.765 41.700 360.883 C 11.742 361.006,11.698 361.009,11.334 362.829 C 11.143 363.787,10.889 363.975,9.654 364.079 C 8.255 364.195,8.195 364.264,8.078 365.876 C 7.970 367.357,7.833 367.565,6.887 367.676 C 4.928 367.904,4.812 368.718,4.806 382.313 C 4.801 393.416,4.872 394.853,5.440 395.071 C 6.828 395.603,8.000 397.228,8.000 398.618 L 8.000 400.000 200.000 400.000 L 392.000 400.000 392.000 398.618 C 392.000 397.228,393.172 395.603,394.560 395.071 C 395.128 394.853,395.199 393.416,395.194 382.313 C 395.188 368.718,395.072 367.904,393.113 367.676 C 392.167 367.565,392.030 367.357,391.922 365.876 C 391.805 364.264,391.745 364.195,390.346 364.079 C 389.111 363.975,388.857 363.787,388.666 362.829 C 388.380 361.401,387.883 361.223,383.327 360.924 L 379.600 360.679 379.600 357.009 C 379.600 353.298,380.317 351.600,381.883 351.600 C 382.741 351.600,382.800 349.974,382.800 326.447 C 382.800 300.802,382.867 301.600,380.720 301.600 C 379.680 301.600,379.600 301.486,379.600 300.000 L 379.600 298.400 378.000 298.400 C 376.449 298.400,376.400 298.359,376.400 297.047 C 376.400 295.369,375.936 295.213,370.911 295.205 L 367.223 295.200 366.888 293.900 C 366.610 292.817,366.340 292.579,365.277 292.475 C 364.078 292.357,364.000 292.253,364.000 290.775 C 364.000 289.204,363.996 289.200,362.400 289.200 L 360.800 289.200 360.800 278.210 L 360.800 267.220 367.100 267.110 L 373.400 267.000 373.524 265.500 C 373.642 264.081,373.723 264.000,375.024 264.000 C 376.363 264.000,376.400 263.957,376.400 262.400 L 376.400 260.800 378.000 260.800 L 379.600 260.800 379.600 247.633 C 379.600 232.953,379.646 233.320,377.761 232.966 C 376.542 232.738,376.400 232.574,376.400 231.402 C 376.400 229.882,375.818 229.614,372.500 229.605 C 370.592 229.601,370.399 229.518,370.394 228.700 C 370.382 226.993,369.926 226.800,365.273 226.534 L 360.800 226.278 360.800 220.361 L 360.800 214.444 359.737 213.922 C 358.488 213.309,358.166 212.793,357.589 210.482 C 357.026 208.228,356.346 208.000,350.183 208.000 L 345.217 208.000 345.109 200.300 L 345.000 192.600 343.500 192.476 C 342.042 192.355,342.000 192.308,342.000 190.776 C 342.000 189.204,341.996 189.200,340.400 189.200 C 338.893 189.200,338.800 189.131,338.800 188.014 C 338.800 186.203,337.956 186.000,330.450 186.000 L 323.648 186.000 323.524 184.500 C 323.407 183.086,323.315 182.993,321.923 182.877 C 320.535 182.762,320.438 182.665,320.323 181.277 C 320.207 179.885,320.114 179.793,318.700 179.676 C 317.283 179.559,317.200 179.476,317.200 178.181 C 317.200 176.890,317.106 176.794,315.600 176.554 C 314.100 176.314,314.000 176.213,314.000 174.949 C 314.000 173.642,313.950 173.600,312.400 173.600 L 310.800 173.600 310.800 172.000 C 310.800 170.443,310.763 170.400,309.424 170.400 C 308.123 170.400,308.042 170.319,307.924 168.900 C 307.807 167.490,307.713 167.393,306.340 167.278 C 305.036 167.169,304.854 167.014,304.630 165.817 C 304.289 164.000,304.290 164.000,294.567 164.000 L 286.000 164.000 286.000 162.643 C 286.000 161.209,285.504 160.800,283.767 160.800 C 282.928 160.800,282.800 160.614,282.800 159.400 C 282.800 158.033,282.762 158.000,281.200 158.000 L 279.600 158.000 279.600 156.400 L 279.600 154.800 278.000 154.800 L 276.400 154.800 276.400 153.200 L 276.400 151.600 274.100 151.591 C 271.878 151.583,271.762 151.529,270.674 149.991 L 269.548 148.400 264.874 148.440 C 258.867 148.491,258.236 148.665,258.075 150.316 L 257.949 151.600 255.403 151.600 C 252.585 151.600,251.600 152.177,251.600 153.829 C 251.600 154.666,251.413 154.800,250.243 154.800 C 248.809 154.800,248.400 155.296,248.400 157.033 C 248.400 157.862,248.210 158.000,247.071 158.000 C 245.867 158.000,245.706 158.142,245.371 159.500 C 245.048 160.807,244.833 161.016,243.700 161.125 C 242.510 161.240,242.400 161.367,242.400 162.625 C 242.400 164.774,239.430 164.752,239.026 162.600 C 238.818 161.490,238.576 161.200,237.858 161.200 C 236.618 161.200,235.682 160.397,235.528 159.200 C 235.407 158.251,235.254 158.194,232.523 158.083 L 229.646 157.966 229.523 156.483 L 229.400 155.000 224.900 154.887 C 220.518 154.777,220.400 154.750,220.400 153.863 C 220.400 151.446,221.845 151.566,194.158 151.688 C 167.019 151.808,167.600 151.761,167.600 153.849 C 167.600 154.771,167.503 154.800,164.387 154.800 C 161.689 154.800,161.135 154.912,160.928 155.500 C 160.307 157.260,159.123 158.000,156.930 158.000 L 154.800 158.000 154.800 159.400 C 154.800 160.614,154.672 160.800,153.833 160.800 C 152.096 160.800,151.600 161.209,151.600 162.643 C 151.600 163.960,151.552 164.000,150.000 164.000 C 148.689 164.000,148.400 163.861,148.400 163.233 C 148.400 161.703,147.944 161.200,146.557 161.200 C 145.240 161.200,145.200 161.152,145.200 159.600 C 145.200 158.004,145.196 158.000,143.624 158.000 C 142.092 158.000,142.045 157.958,141.924 156.500 L 141.800 155.000 138.900 154.882 C 136.147 154.771,136.000 154.717,136.000 153.815 C 136.000 151.515,136.426 151.600,124.840 151.600 L 114.165 151.600 113.783 150.300 C 113.327 148.753,112.553 148.517,107.700 148.447 C 104.776 148.405,104.400 148.316,104.400 147.662 C 104.400 145.965,97.268 144.465,95.867 145.867 M102.167 161.800 C 105.599 162.527,106.800 163.531,106.800 165.670 C 106.800 168.242,106.055 168.632,100.574 168.926 C 96.584 169.139,95.507 169.342,93.878 170.187 C 91.485 171.429,90.589 171.100,90.207 168.841 C 89.716 165.936,92.435 162.663,96.072 161.783 C 98.842 161.113,98.923 161.113,102.167 161.800 M206.000 164.753 C 214.721 165.529,215.709 165.702,216.825 166.655 C 217.168 166.948,218.861 167.540,220.586 167.971 C 223.000 168.575,223.979 169.037,224.840 169.980 C 225.455 170.653,226.420 171.380,226.984 171.594 C 230.358 172.877,227.618 179.600,223.722 179.600 C 223.435 179.600,223.200 179.776,223.200 179.991 C 223.200 180.756,221.156 181.701,218.346 182.237 C 216.777 182.536,214.738 183.146,213.816 183.592 C 209.207 185.824,181.875 185.812,176.876 183.577 C 175.844 183.116,173.690 182.485,172.089 182.174 C 169.145 181.603,166.800 180.659,166.800 180.044 C 166.800 179.860,166.012 179.408,165.049 179.040 C 162.781 178.174,162.131 177.402,161.804 175.194 C 161.534 173.367,162.552 171.200,163.681 171.200 C 163.913 171.200,164.779 170.589,165.605 169.843 C 166.599 168.945,167.697 168.390,168.854 168.201 C 169.814 168.045,171.770 167.415,173.200 166.801 C 176.530 165.371,176.798 165.324,185.571 164.600 C 189.624 164.266,193.044 163.887,193.171 163.757 C 193.297 163.628,194.300 163.627,195.400 163.755 C 196.500 163.883,201.270 164.332,206.000 164.753 M267.051 166.639 C 267.519 166.765,268.102 167.305,268.345 167.840 C 268.589 168.374,269.254 169.024,269.824 169.284 C 270.394 169.543,271.120 170.258,271.437 170.871 C 271.754 171.485,272.529 172.253,273.160 172.579 C 273.828 172.925,274.422 173.637,274.584 174.286 C 274.737 174.899,275.146 175.715,275.493 176.100 C 275.902 176.554,275.957 176.800,275.649 176.800 C 275.387 176.800,274.798 177.435,274.341 178.211 C 273.737 179.235,273.375 179.511,273.023 179.219 C 272.755 178.997,271.311 178.354,269.812 177.790 C 268.313 177.226,266.760 176.349,266.360 175.840 C 265.866 175.212,264.849 174.750,263.181 174.396 C 260.862 173.904,260.683 173.782,259.884 172.137 L 259.040 170.398 260.620 168.760 C 262.779 166.522,264.499 165.955,267.051 166.639 M130.476 168.446 C 131.974 169.351,133.200 170.252,133.200 170.447 C 133.200 171.580,128.454 174.800,126.785 174.800 C 126.387 174.800,125.506 175.267,124.827 175.839 C 121.183 178.905,117.468 175.972,118.822 171.097 C 119.164 169.865,119.592 169.415,121.191 168.604 C 122.265 168.060,123.257 167.432,123.395 167.208 C 124.058 166.135,127.708 166.774,130.476 168.446 M150.040 178.054 C 151.832 178.653,153.479 180.220,154.011 181.834 C 154.301 182.711,154.817 183.267,155.595 183.538 C 156.229 183.759,157.012 184.449,157.333 185.071 C 157.746 185.870,158.444 186.357,159.713 186.731 C 160.701 187.023,161.997 187.771,162.593 188.393 C 163.415 189.251,164.319 189.641,166.338 190.007 C 167.802 190.273,169.810 190.945,170.800 191.500 C 172.313 192.348,173.526 192.591,178.400 193.021 C 181.590 193.303,186.673 193.764,189.696 194.046 C 194.149 194.462,196.160 194.463,200.296 194.052 C 203.103 193.773,208.107 193.308,211.415 193.018 C 216.695 192.556,217.611 192.368,218.918 191.481 C 219.830 190.862,221.503 190.286,223.238 189.994 C 225.474 189.616,226.274 189.285,227.048 188.417 C 227.586 187.813,228.730 187.108,229.590 186.850 C 230.551 186.562,231.678 185.769,232.515 184.791 C 233.264 183.916,234.011 183.200,234.174 183.200 C 234.595 183.200,235.841 181.685,237.024 179.736 C 238.518 177.274,241.507 176.963,243.948 179.017 C 244.613 179.577,246.047 180.117,247.619 180.400 C 250.507 180.920,252.636 181.796,252.941 182.589 C 253.052 182.880,254.030 183.239,255.115 183.388 C 257.664 183.739,259.508 184.871,259.837 186.288 C 259.979 186.899,260.351 187.810,260.664 188.311 C 261.672 189.925,260.591 190.323,252.669 191.252 C 248.563 191.734,248.308 191.818,247.764 192.870 C 247.448 193.480,246.725 194.224,246.156 194.521 C 245.425 194.905,244.890 195.756,244.328 197.432 C 243.891 198.734,243.203 200.160,242.800 200.600 C 242.247 201.203,242.000 202.337,241.800 205.200 C 241.465 209.969,241.404 210.179,240.173 210.739 C 238.852 211.341,115.338 211.401,113.177 210.800 C 112.395 210.583,111.250 209.879,110.633 209.235 L 109.512 208.065 110.329 206.532 C 110.777 205.690,111.357 204.010,111.617 202.800 C 111.965 201.175,112.443 200.265,113.444 199.320 C 114.190 198.617,114.800 197.767,114.800 197.432 C 114.800 197.098,115.338 196.426,115.996 195.940 C 116.654 195.453,117.297 194.725,117.425 194.321 C 117.553 193.917,118.343 193.237,119.180 192.810 C 120.017 192.383,120.811 191.748,120.945 191.399 C 121.079 191.050,121.866 190.486,122.694 190.145 C 123.522 189.805,124.598 189.029,125.085 188.420 C 125.637 187.729,126.690 187.118,127.885 186.796 C 128.954 186.507,130.262 185.791,130.847 185.173 C 131.867 184.096,134.127 183.207,135.857 183.202 C 136.329 183.201,136.814 182.939,136.937 182.621 C 137.266 181.762,139.074 180.978,142.000 180.424 C 143.453 180.149,144.974 179.584,145.448 179.145 C 145.914 178.713,146.814 178.204,147.448 178.014 C 148.081 177.824,148.618 177.653,148.640 177.634 C 148.662 177.615,149.292 177.804,150.040 178.054 M296.126 178.054 C 296.607 178.304,298.209 179.744,299.686 181.254 C 301.164 182.764,302.552 184.000,302.772 184.000 C 304.067 184.000,304.507 187.808,303.315 188.700 C 301.945 189.726,285.372 189.381,284.623 188.311 C 283.705 187.001,283.860 185.657,285.041 184.670 C 285.614 184.191,287.396 182.508,289.002 180.928 C 291.207 178.758,292.248 178.016,293.261 177.892 C 293.997 177.802,294.747 177.699,294.926 177.664 C 295.106 177.629,295.646 177.804,296.126 178.054 M80.224 179.369 C 81.850 180.559,80.947 189.124,79.247 188.634 C 74.821 187.356,72.757 186.817,71.514 186.613 C 69.806 186.333,69.766 186.289,69.399 184.334 C 69.106 182.772,69.070 182.826,72.000 180.452 C 74.181 178.685,78.511 178.114,80.224 179.369 M105.759 180.628 C 107.171 181.193,108.590 181.958,108.913 182.328 C 112.467 186.403,107.002 193.025,102.843 189.682 C 101.471 188.580,99.283 187.680,96.400 187.032 C 92.926 186.251,93.743 183.226,98.000 181.107 C 101.567 179.331,102.392 179.280,105.759 180.628 M95.720 198.601 C 96.996 199.370,98.183 200.000,98.358 200.000 C 100.240 200.000,101.167 208.555,99.424 209.832 C 98.022 210.857,83.611 210.639,82.254 209.571 C 80.804 208.431,80.730 205.041,82.117 203.331 C 82.622 202.709,83.345 201.706,83.725 201.102 C 84.105 200.498,85.053 199.738,85.831 199.413 C 86.610 199.087,87.711 198.456,88.277 198.011 C 89.984 196.668,92.898 196.899,95.720 198.601 M70.100 199.582 C 71.363 200.995,71.414 201.467,70.596 204.164 C 70.268 205.244,70.000 206.600,70.000 207.177 C 70.000 209.459,61.770 210.743,58.380 208.990 C 54.786 207.131,58.802 200.671,65.000 198.341 C 66.636 197.726,68.944 198.288,70.100 199.582 M329.318 199.860 C 332.266 200.347,333.656 207.206,331.287 209.574 L 330.062 210.800 304.931 210.799 C 265.102 210.798,254.054 210.491,252.915 209.352 C 251.005 207.441,252.259 200.441,254.600 199.947 C 256.171 199.616,327.341 199.533,329.318 199.860 M345.739 222.749 C 346.757 223.594,346.455 228.680,345.307 230.000 C 345.212 230.110,298.213 230.290,240.867 230.400 C 129.011 230.615,135.399 230.481,133.385 232.654 C 131.626 234.552,132.512 237.988,135.260 239.935 C 136.131 240.551,144.613 240.607,250.000 240.697 C 334.751 240.769,364.024 240.911,364.679 241.253 C 367.485 242.720,367.688 252.703,364.937 253.956 C 363.593 254.568,330.421 254.568,328.215 253.956 C 327.341 253.713,326.086 252.924,325.415 252.197 C 323.190 249.782,315.562 247.738,313.906 249.112 C 313.619 249.350,312.155 249.949,310.652 250.442 C 308.801 251.050,307.794 251.614,307.531 252.191 C 306.551 254.343,316.641 254.192,166.293 254.302 C 14.880 254.414,25.313 254.566,23.777 252.221 C 21.697 249.046,23.477 241.711,26.499 241.006 C 26.994 240.890,46.120 240.751,69.000 240.698 C 91.880 240.644,110.924 240.442,111.320 240.249 C 113.959 238.965,115.442 234.924,113.965 233.046 C 111.882 230.398,111.026 230.344,62.332 229.764 L 45.264 229.560 44.832 228.321 C 44.226 226.583,44.287 223.392,44.936 222.853 C 46.051 221.928,344.624 221.824,345.739 222.749 M320.209 261.391 C 321.414 262.597,322.400 263.760,322.400 263.977 C 322.400 264.195,322.952 265.001,323.628 265.770 C 324.659 266.945,324.976 267.841,325.614 271.378 C 326.032 273.694,326.622 276.086,326.925 276.694 C 327.229 277.302,327.897 279.013,328.411 280.496 C 328.984 282.149,329.617 283.279,330.048 283.415 C 330.434 283.538,331.285 284.247,331.938 284.991 C 333.005 286.205,335.902 287.600,337.358 287.600 C 337.650 287.600,338.498 288.013,339.244 288.518 C 339.990 289.023,341.381 289.748,342.335 290.129 C 347.480 292.183,351.169 297.071,349.120 299.120 C 348.232 300.008,271.030 299.684,269.577 298.786 C 269.320 298.627,268.974 297.751,268.807 296.840 C 268.477 295.036,271.590 291.722,274.600 290.671 C 275.260 290.441,276.790 289.726,278.000 289.084 C 279.886 288.083,280.989 287.840,285.720 287.383 C 289.918 286.978,291.546 286.657,292.520 286.040 C 293.224 285.594,294.637 284.779,295.661 284.228 C 297.559 283.206,302.256 278.212,303.401 275.998 C 303.742 275.339,304.247 274.800,304.524 274.800 C 304.801 274.800,305.362 274.215,305.771 273.500 C 306.181 272.785,306.861 271.816,307.284 271.347 C 307.706 270.877,308.573 269.392,309.209 268.047 C 309.845 266.701,310.531 265.600,310.732 265.600 C 310.934 265.600,311.662 264.421,312.350 262.980 C 314.463 258.557,316.885 258.068,320.209 261.391 M294.149 265.978 C 296.613 266.550,296.774 267.009,295.084 268.650 C 294.268 269.443,293.600 270.251,293.600 270.445 C 293.600 272.171,289.290 275.071,286.000 275.558 C 280.797 276.329,272.482 278.639,270.724 279.803 C 269.869 280.368,268.695 281.012,268.115 281.232 C 265.144 282.362,257.911 289.811,255.882 293.831 C 254.539 296.492,252.444 298.074,249.786 298.434 C 248.650 298.588,246.378 299.118,244.737 299.611 L 241.753 300.507 239.977 303.354 L 238.200 306.200 238.200 327.000 C 238.200 346.158,238.257 347.926,238.919 349.394 C 239.314 350.270,240.075 352.757,240.611 354.920 C 241.146 357.083,241.947 359.315,242.392 359.880 C 243.343 361.090,243.497 364.055,242.645 364.762 C 241.174 365.983,109.786 364.740,107.876 363.487 C 107.278 363.095,105.692 362.433,104.350 362.015 C 103.009 361.598,101.526 360.897,101.056 360.458 C 100.585 360.019,99.225 359.277,98.034 358.810 C 96.842 358.342,95.343 357.518,94.703 356.980 C 94.063 356.441,93.283 356.000,92.970 356.000 C 92.658 356.000,91.727 355.403,90.901 354.673 C 90.076 353.942,88.680 352.917,87.800 352.394 C 86.920 351.872,86.065 351.225,85.900 350.958 C 85.735 350.690,84.799 350.083,83.819 349.609 C 82.839 349.135,81.926 348.399,81.792 347.973 C 81.657 347.548,81.381 347.200,81.179 347.200 C 80.793 347.200,78.416 345.026,74.399 341.000 C 70.005 336.596,69.281 335.806,68.840 334.927 C 68.598 334.447,68.056 333.945,67.634 333.811 C 67.212 333.677,66.689 333.058,66.473 332.436 C 66.256 331.814,65.639 330.876,65.103 330.352 C 64.567 329.829,63.647 328.553,63.058 327.518 C 62.469 326.484,61.670 325.404,61.281 325.118 C 60.607 324.624,59.778 323.176,57.094 317.800 C 56.435 316.480,55.581 315.040,55.198 314.600 C 54.814 314.160,54.185 312.810,53.801 311.600 C 53.416 310.390,52.598 308.627,51.984 307.681 C 51.262 306.571,50.697 304.942,50.390 303.081 C 50.128 301.494,49.597 299.841,49.207 299.400 C 48.433 298.525,47.907 296.411,47.167 291.200 C 46.901 289.330,46.249 286.360,45.717 284.600 C 44.494 280.558,43.847 267.396,44.839 266.768 C 45.147 266.572,52.510 266.390,61.200 266.363 C 69.890 266.335,78.080 266.179,79.400 266.015 C 82.896 265.582,292.283 265.546,294.149 265.978 M345.900 266.483 C 346.396 266.895,346.466 267.795,346.296 271.591 C 346.043 277.233,345.953 277.470,343.927 277.812 C 340.330 278.420,337.987 276.123,337.414 271.426 C 337.254 270.120,336.964 268.631,336.768 268.116 C 335.946 265.954,343.611 264.583,345.900 266.483 M367.350 309.181 C 369.374 309.950,369.400 310.188,369.400 327.800 C 369.400 345.478,369.271 347.194,367.779 349.392 C 367.241 350.186,366.799 351.413,366.798 352.118 C 366.794 354.232,366.035 356.314,364.960 357.160 C 364.403 357.598,363.759 358.639,363.529 359.474 C 363.298 360.308,362.545 361.533,361.855 362.196 C 361.165 362.858,360.107 364.061,359.504 364.869 L 358.408 366.337 346.704 366.486 C 340.267 366.568,334.696 366.778,334.325 366.951 C 333.117 367.515,332.111 370.140,332.368 372.058 C 332.771 375.068,332.040 374.972,356.418 375.200 C 382.462 375.443,381.200 375.051,381.200 382.898 C 381.200 386.812,380.775 387.638,378.272 388.594 C 376.060 389.439,23.871 389.359,21.938 388.514 C 18.030 386.803,17.981 378.666,21.863 376.122 C 22.918 375.430,29.026 375.392,166.782 375.200 C 278.505 375.045,310.789 374.892,311.447 374.515 C 312.651 373.824,312.977 371.293,312.177 368.847 L 311.543 366.908 309.113 366.654 C 307.776 366.514,296.219 366.400,283.430 366.400 C 259.031 366.400,258.439 366.359,258.385 364.677 C 258.376 364.415,257.793 363.838,257.089 363.395 C 256.385 362.952,255.741 362.232,255.659 361.795 C 255.576 361.358,254.829 360.261,253.999 359.358 C 252.985 358.254,252.397 357.167,252.207 356.044 C 252.052 355.124,251.507 353.875,250.995 353.267 C 249.477 351.463,249.200 347.597,249.200 328.246 C 249.200 310.991,249.220 310.529,250.016 309.675 L 250.831 308.800 308.590 308.800 C 344.191 308.800,366.732 308.946,367.350 309.181 " stroke="none" fill="#050505" fill-rule="evenodd"></path><path id="path3" d="M96.072 161.783 C 92.435 162.663,89.716 165.936,90.207 168.841 C 90.589 171.100,91.485 171.429,93.878 170.187 C 95.507 169.342,96.584 169.139,100.574 168.926 C 106.055 168.632,106.800 168.242,106.800 165.670 C 106.800 162.384,101.508 160.467,96.072 161.783 M193.171 163.757 C 193.044 163.887,189.624 164.266,185.571 164.600 C 176.798 165.324,176.530 165.371,173.200 166.801 C 171.770 167.415,169.814 168.045,168.854 168.201 C 167.697 168.390,166.599 168.945,165.605 169.843 C 164.779 170.589,163.913 171.200,163.681 171.200 C 162.552 171.200,161.534 173.367,161.804 175.194 C 162.131 177.402,162.781 178.174,165.049 179.040 C 166.012 179.408,166.800 179.860,166.800 180.044 C 166.800 180.659,169.145 181.603,172.089 182.174 C 173.690 182.485,175.844 183.116,176.876 183.577 C 181.875 185.812,209.207 185.824,213.816 183.592 C 214.738 183.146,216.777 182.536,218.346 182.237 C 221.156 181.701,223.200 180.756,223.200 179.991 C 223.200 179.776,223.435 179.600,223.722 179.600 C 227.618 179.600,230.358 172.877,226.984 171.594 C 226.420 171.380,225.455 170.653,224.840 169.980 C 223.979 169.037,223.000 168.575,220.586 167.971 C 218.861 167.540,217.168 166.948,216.825 166.655 C 215.709 165.702,214.721 165.529,206.000 164.753 C 201.270 164.332,196.500 163.883,195.400 163.755 C 194.300 163.627,193.297 163.628,193.171 163.757 M206.800 166.414 C 210.044 166.705,212.049 167.106,213.600 167.776 C 214.810 168.299,216.880 168.941,218.200 169.203 C 219.854 169.531,221.470 170.255,223.400 171.534 C 224.940 172.554,226.279 173.440,226.375 173.503 C 227.107 173.981,224.612 177.309,223.005 177.998 C 222.020 178.420,220.716 179.134,220.107 179.584 C 219.419 180.093,217.335 180.717,214.600 181.234 C 212.180 181.691,209.570 182.365,208.800 182.732 C 207.617 183.297,206.005 183.397,198.400 183.382 L 189.400 183.365 185.600 181.832 C 182.237 180.475,181.302 180.276,177.470 180.097 C 173.405 179.907,173.119 179.838,172.789 178.972 C 172.334 177.773,171.242 177.215,168.789 176.924 C 167.173 176.733,166.800 176.544,166.800 175.918 C 166.800 175.494,166.620 174.811,166.400 174.401 C 165.979 173.613,166.033 173.577,168.460 173.040 C 169.173 172.882,169.657 172.411,169.939 171.602 C 170.294 170.584,170.567 170.400,171.716 170.400 C 174.063 170.400,176.827 169.337,177.951 168.001 C 179.514 166.144,194.544 165.317,206.800 166.414 M123.395 167.208 C 123.257 167.432,122.265 168.060,121.191 168.604 C 119.592 169.415,119.164 169.865,118.822 171.097 C 117.468 175.972,121.183 178.905,124.827 175.839 C 125.506 175.267,126.387 174.800,126.785 174.800 C 128.454 174.800,133.200 171.580,133.200 170.447 C 133.200 168.688,124.298 165.747,123.395 167.208 M147.448 178.014 C 146.814 178.204,145.914 178.713,145.448 179.145 C 144.974 179.584,143.453 180.149,142.000 180.424 C 139.074 180.978,137.266 181.762,136.937 182.621 C 136.814 182.939,136.329 183.201,135.857 183.202 C 134.127 183.207,131.867 184.096,130.847 185.173 C 130.262 185.791,128.954 186.507,127.885 186.796 C 126.690 187.118,125.637 187.729,125.085 188.420 C 124.598 189.029,123.522 189.805,122.694 190.145 C 121.866 190.486,121.079 191.050,120.945 191.399 C 120.811 191.748,120.017 192.383,119.180 192.810 C 118.343 193.237,117.553 193.917,117.425 194.321 C 117.297 194.725,116.654 195.453,115.996 195.940 C 115.338 196.426,114.800 197.098,114.800 197.432 C 114.800 197.767,114.190 198.617,113.444 199.320 C 112.443 200.265,111.965 201.175,111.617 202.800 C 111.357 204.010,110.777 205.690,110.329 206.532 L 109.512 208.065 110.633 209.235 C 111.250 209.879,112.395 210.583,113.177 210.800 C 115.338 211.401,238.852 211.341,240.173 210.739 C 241.404 210.179,241.465 209.969,241.800 205.200 C 242.000 202.337,242.247 201.203,242.800 200.600 C 243.203 200.160,243.891 198.734,244.328 197.432 C 244.890 195.756,245.425 194.905,246.156 194.521 C 246.725 194.224,247.448 193.480,247.764 192.870 C 248.308 191.818,248.563 191.734,252.669 191.252 C 260.591 190.323,261.672 189.925,260.664 188.311 C 260.351 187.810,259.979 186.899,259.837 186.288 C 259.508 184.871,257.664 183.739,255.115 183.388 C 254.030 183.239,253.052 182.880,252.941 182.589 C 252.636 181.796,250.507 180.920,247.619 180.400 C 246.047 180.117,244.613 179.577,243.948 179.017 C 241.507 176.963,238.518 177.274,237.024 179.736 C 235.841 181.685,234.595 183.200,234.174 183.200 C 234.011 183.200,233.264 183.916,232.515 184.791 C 231.678 185.769,230.551 186.562,229.590 186.850 C 228.730 187.108,227.586 187.813,227.048 188.417 C 226.274 189.285,225.474 189.616,223.238 189.994 C 221.503 190.286,219.830 190.862,218.918 191.481 C 217.611 192.368,216.695 192.556,211.415 193.018 C 208.107 193.308,203.103 193.773,200.296 194.052 C 196.160 194.463,194.149 194.462,189.696 194.046 C 186.673 193.764,181.590 193.303,178.400 193.021 C 173.526 192.591,172.313 192.348,170.800 191.500 C 169.810 190.945,167.802 190.273,166.338 190.007 C 164.319 189.641,163.415 189.251,162.593 188.393 C 161.997 187.771,160.701 187.023,159.713 186.731 C 158.444 186.357,157.746 185.870,157.333 185.071 C 157.012 184.449,156.229 183.759,155.595 183.538 C 154.817 183.267,154.301 182.711,154.011 181.834 C 153.408 180.005,149.470 176.926,148.640 177.634 C 148.618 177.653,148.081 177.824,147.448 178.014 M293.261 177.892 C 292.248 178.016,291.207 178.758,289.002 180.928 C 287.396 182.508,285.614 184.191,285.041 184.670 C 283.860 185.657,283.705 187.001,284.623 188.311 C 285.372 189.381,301.945 189.726,303.315 188.700 C 304.507 187.808,304.067 184.000,302.772 184.000 C 302.552 184.000,301.164 182.764,299.686 181.254 C 297.130 178.642,295.647 177.523,294.926 177.664 C 294.747 177.699,293.997 177.802,293.261 177.892 M74.000 179.090 C 73.449 179.299,71.688 180.636,69.863 182.231 C 69.282 182.738,69.183 183.186,69.399 184.334 C 69.766 186.289,69.806 186.333,71.514 186.613 C 72.757 186.817,74.821 187.356,79.247 188.634 C 80.947 189.124,81.850 180.559,80.224 179.369 C 79.452 178.804,75.253 178.616,74.000 179.090 M246.200 181.171 C 247.740 181.559,249.630 182.249,250.400 182.704 C 251.170 183.160,252.731 183.804,253.869 184.135 C 259.626 185.813,259.168 186.966,251.603 189.840 C 247.512 191.394,245.144 193.129,243.800 195.555 C 243.360 196.350,242.650 197.517,242.221 198.150 C 241.608 199.056,241.396 200.255,241.221 203.809 C 241.041 207.478,240.858 208.475,240.238 209.159 L 239.476 210.000 176.744 210.000 L 114.013 210.000 112.844 208.900 L 111.675 207.800 112.264 205.000 C 112.588 203.460,113.066 201.908,113.326 201.551 C 117.100 196.381,121.115 192.282,123.716 190.943 C 124.422 190.579,125.540 189.871,126.200 189.369 C 126.861 188.867,128.301 188.073,129.400 187.603 C 130.500 187.133,131.850 186.326,132.400 185.809 C 132.950 185.292,134.205 184.656,135.190 184.395 C 136.174 184.134,137.985 183.413,139.215 182.793 C 140.444 182.172,142.158 181.536,143.025 181.379 C 143.891 181.221,145.553 180.741,146.718 180.311 C 149.164 179.408,151.701 180.147,152.726 182.061 C 154.174 184.767,161.068 189.680,165.116 190.890 C 166.592 191.331,168.433 192.014,169.207 192.407 C 169.981 192.800,172.591 193.425,175.007 193.796 C 177.423 194.168,181.020 194.838,183.000 195.286 C 188.352 196.497,200.952 196.497,206.600 195.286 C 208.800 194.814,212.456 194.150,214.724 193.810 C 216.992 193.470,219.512 192.857,220.324 192.447 C 221.136 192.037,222.880 191.397,224.200 191.026 C 225.520 190.654,227.320 189.846,228.200 189.230 C 229.080 188.614,230.430 187.793,231.200 187.404 C 231.970 187.016,233.355 185.956,234.277 185.049 C 235.199 184.142,236.149 183.220,236.387 183.000 C 236.624 182.780,237.346 181.849,237.990 180.931 L 239.160 179.262 241.280 179.864 C 242.446 180.195,244.660 180.783,246.200 181.171 M98.000 181.107 C 93.743 183.226,92.926 186.251,96.400 187.032 C 99.283 187.680,101.471 188.580,102.843 189.682 C 105.073 191.474,107.426 190.821,109.216 187.912 C 112.647 182.336,104.933 177.655,98.000 181.107 M296.152 180.552 C 296.291 181.105,296.951 181.770,297.725 182.137 C 298.458 182.485,299.267 183.230,299.523 183.791 C 299.779 184.352,300.446 185.020,301.004 185.275 C 303.253 186.299,301.775 186.600,294.498 186.600 C 286.109 186.600,286.216 186.641,288.578 184.352 C 289.572 183.388,290.757 182.240,291.211 181.800 C 291.665 181.360,292.330 180.685,292.689 180.300 C 293.699 179.214,295.856 179.372,296.152 180.552 M88.277 198.011 C 87.711 198.456,86.610 199.087,85.831 199.413 C 85.053 199.738,84.105 200.498,83.725 201.102 C 83.345 201.706,82.622 202.709,82.117 203.331 C 80.730 205.041,80.804 208.431,82.254 209.571 C 83.611 210.639,98.022 210.857,99.424 209.832 C 101.167 208.555,100.240 200.000,98.358 200.000 C 98.183 200.000,96.996 199.370,95.720 198.601 C 92.898 196.899,89.984 196.668,88.277 198.011 M65.000 198.341 C 58.802 200.671,54.786 207.131,58.380 208.990 C 61.770 210.743,70.000 209.459,70.000 207.177 C 70.000 206.600,70.268 205.244,70.596 204.164 C 71.414 201.467,71.363 200.995,70.100 199.582 C 68.944 198.288,66.636 197.726,65.000 198.341 M254.600 199.947 C 252.259 200.441,251.005 207.441,252.915 209.352 C 254.054 210.491,265.102 210.798,304.931 210.799 L 330.062 210.800 331.287 209.574 C 333.656 207.206,332.266 200.347,329.318 199.860 C 327.341 199.533,256.171 199.616,254.600 199.947 M113.920 232.954 C 115.434 234.939,114.007 238.942,111.320 240.249 C 110.924 240.442,91.880 240.644,69.000 240.698 C 46.120 240.751,26.994 240.890,26.499 241.006 C 23.477 241.711,21.697 249.046,23.777 252.221 C 25.313 254.566,14.880 254.414,166.293 254.302 C 316.641 254.192,306.551 254.343,307.531 252.191 C 307.794 251.614,308.801 251.050,310.652 250.442 C 312.155 249.949,313.619 249.350,313.906 249.112 C 315.562 247.738,323.190 249.782,325.415 252.197 C 326.086 252.924,327.341 253.713,328.215 253.956 C 330.421 254.568,363.593 254.568,364.937 253.956 C 367.688 252.703,367.485 242.720,364.679 241.253 C 364.024 240.911,334.751 240.769,250.000 240.697 C 144.613 240.607,136.131 240.551,135.260 239.935 C 133.795 238.897,132.403 236.574,132.375 235.121 C 132.350 233.844,132.336 233.833,131.954 234.789 C 131.375 236.241,132.530 238.954,134.305 240.307 L 135.738 241.400 249.969 241.605 C 312.796 241.718,364.248 241.853,364.306 241.905 C 365.473 242.950,365.997 244.910,365.999 248.230 C 366.001 254.051,367.610 253.600,346.854 253.600 C 328.293 253.600,328.432 253.614,326.138 251.519 C 320.769 246.616,310.716 246.932,306.344 252.142 L 305.288 253.400 166.502 253.499 C 22.642 253.602,25.675 253.635,24.792 251.984 C 23.980 250.468,24.318 245.041,25.315 243.559 L 26.231 242.200 42.415 241.955 C 51.317 241.820,70.227 241.685,84.437 241.655 L 110.274 241.600 112.037 240.685 C 115.481 238.897,116.436 234.738,113.905 232.548 L 113.040 231.800 113.920 232.954 M314.901 259.796 C 313.905 260.229,313.309 260.973,312.350 262.980 C 311.662 264.421,310.934 265.600,310.732 265.600 C 310.531 265.600,309.845 266.701,309.209 268.047 C 308.573 269.392,307.706 270.877,307.284 271.347 C 306.861 271.816,306.181 272.785,305.771 273.500 C 305.362 274.215,304.801 274.800,304.524 274.800 C 304.247 274.800,303.742 275.339,303.401 275.998 C 302.256 278.212,297.559 283.206,295.661 284.228 C 294.637 284.779,293.224 285.594,292.520 286.040 C 291.546 286.657,289.918 286.978,285.720 287.383 C 280.989 287.840,279.886 288.083,278.000 289.084 C 276.790 289.726,275.260 290.441,274.600 290.671 C 271.590 291.722,268.477 295.036,268.807 296.840 C 268.974 297.751,269.320 298.627,269.577 298.786 C 271.030 299.684,348.232 300.008,349.120 299.120 C 351.169 297.071,347.480 292.183,342.335 290.129 C 341.381 289.748,339.990 289.023,339.244 288.518 C 338.498 288.013,337.650 287.600,337.358 287.600 C 335.902 287.600,333.005 286.205,331.938 284.991 C 331.285 284.247,330.434 283.538,330.048 283.415 C 329.617 283.279,328.984 282.149,328.411 280.496 C 327.897 279.013,327.229 277.302,326.925 276.694 C 326.622 276.086,326.032 273.694,325.614 271.378 C 324.976 267.841,324.659 266.945,323.628 265.770 C 322.952 265.001,322.400 264.195,322.400 263.977 C 322.400 263.760,321.414 262.597,320.209 261.391 C 317.867 259.049,317.129 258.828,314.901 259.796 M250.016 309.675 C 249.220 310.529,249.200 310.991,249.200 328.246 C 249.200 347.597,249.477 351.463,250.995 353.267 C 251.507 353.875,252.052 355.124,252.207 356.044 C 252.397 357.167,252.985 358.254,253.999 359.358 C 254.829 360.261,255.576 361.358,255.659 361.795 C 255.741 362.232,256.385 362.952,257.089 363.395 C 257.793 363.838,258.376 364.415,258.385 364.677 C 258.439 366.359,259.031 366.400,283.430 366.400 C 296.219 366.400,307.776 366.514,309.113 366.654 L 311.543 366.908 312.177 368.847 C 312.977 371.293,312.651 373.824,311.447 374.515 C 310.789 374.892,278.505 375.045,166.782 375.200 C 29.026 375.392,22.918 375.430,21.863 376.122 C 17.981 378.666,18.030 386.803,21.938 388.514 C 23.871 389.359,376.060 389.439,378.272 388.594 C 380.775 387.638,381.200 386.812,381.200 382.898 C 381.200 375.051,382.462 375.443,356.418 375.200 C 332.040 374.972,332.771 375.068,332.368 372.058 C 332.111 370.140,333.117 367.515,334.325 366.951 C 334.696 366.778,340.267 366.568,346.704 366.486 L 358.408 366.337 359.504 364.869 C 360.107 364.061,361.165 362.858,361.855 362.196 C 362.545 361.533,363.298 360.308,363.529 359.474 C 363.759 358.639,364.403 357.598,364.960 357.160 C 366.035 356.314,366.794 354.232,366.798 352.118 C 366.799 351.413,367.241 350.186,367.779 349.392 C 369.271 347.194,369.400 345.478,369.400 327.800 C 369.400 310.188,369.374 309.950,367.350 309.181 C 366.732 308.946,344.191 308.800,308.590 308.800 L 250.831 308.800 250.016 309.675 M237.782 325.200 C 237.782 333.890,237.835 337.445,237.900 333.100 C 237.964 328.755,237.964 321.645,237.900 317.300 C 237.835 312.955,237.782 316.510,237.782 325.200 M366.074 310.466 C 366.718 310.712,367.319 311.365,367.574 312.097 C 368.292 314.157,368.136 340.954,367.384 344.717 C 366.096 351.166,365.128 354.549,364.227 355.753 C 363.714 356.439,362.981 357.620,362.597 358.377 C 362.213 359.135,360.990 360.890,359.878 362.277 C 358.766 363.665,357.844 364.830,357.828 364.867 C 357.813 364.904,352.760 365.045,346.600 365.179 C 332.134 365.494,332.188 365.473,330.605 371.581 C 329.818 374.619,330.030 375.780,331.502 376.481 C 332.106 376.768,332.779 377.412,332.998 377.910 C 333.687 379.477,335.332 379.595,356.500 379.598 L 376.800 379.600 376.800 383.000 L 376.800 386.400 214.500 386.395 C 125.235 386.392,51.795 386.281,51.300 386.148 C 50.463 385.924,50.400 385.685,50.400 382.757 L 50.400 379.607 180.700 379.504 C 285.667 379.420,311.174 379.300,311.896 378.888 C 312.389 378.607,313.068 377.842,313.406 377.188 C 313.744 376.535,314.317 376.000,314.679 376.000 C 316.768 376.000,317.151 374.408,315.700 371.748 C 311.860 364.707,315.083 365.379,285.800 365.515 L 261.000 365.630 258.945 363.715 C 257.815 362.662,256.618 361.260,256.285 360.600 C 255.953 359.940,255.230 358.915,254.680 358.322 C 254.129 357.729,253.366 356.289,252.984 355.122 C 252.602 353.955,251.819 352.100,251.245 351.000 L 250.200 349.000 250.082 330.118 C 249.968 311.988,249.994 311.206,250.727 310.473 C 251.609 309.591,363.759 309.584,366.074 310.466 " stroke="none" fill="#6a4e42" fill-rule="evenodd"></path><path id="path4" d="M183.200 166.369 C 181.770 166.496,186.990 166.600,194.800 166.600 C 202.610 166.600,207.740 166.487,206.200 166.350 C 202.745 166.041,186.743 166.054,183.200 166.369 M178.198 167.602 C 177.134 168.778,177.619 168.887,178.922 167.766 C 179.574 167.205,179.810 166.800,179.484 166.800 C 179.176 166.800,178.597 167.161,178.198 167.602 M211.253 167.783 C 212.269 168.324,214.787 169.074,216.850 169.451 C 219.967 170.020,220.779 170.326,221.660 171.268 C 222.244 171.890,222.950 172.400,223.229 172.400 C 224.389 172.400,225.144 173.631,224.907 175.134 C 224.646 176.794,224.393 177.036,222.318 177.611 C 221.503 177.836,220.285 178.485,219.610 179.053 C 218.601 179.902,217.622 180.187,214.092 180.662 C 211.731 180.979,208.630 181.635,207.200 182.119 L 204.600 183.000 206.140 183.127 C 206.987 183.196,208.247 182.986,208.940 182.659 C 209.633 182.332,212.180 181.691,214.600 181.234 C 217.335 180.717,219.419 180.093,220.107 179.584 C 220.716 179.134,222.020 178.420,223.005 177.998 C 224.612 177.309,227.107 173.981,226.375 173.503 C 226.279 173.440,224.940 172.558,223.400 171.543 C 221.385 170.215,219.790 169.520,217.710 169.063 C 216.121 168.713,214.103 168.061,213.226 167.613 C 212.349 167.166,211.131 166.800,210.519 166.800 C 209.501 166.800,209.564 166.884,211.253 167.783 M237.990 180.931 C 237.346 181.849,236.624 182.780,236.387 183.000 C 236.149 183.220,235.199 184.142,234.277 185.049 C 233.355 185.956,231.970 187.016,231.200 187.404 C 230.430 187.793,229.080 188.614,228.200 189.230 C 227.320 189.846,225.520 190.654,224.200 191.026 C 222.880 191.397,221.136 192.037,220.324 192.447 C 219.512 192.857,216.992 193.470,214.724 193.810 C 212.456 194.150,208.800 194.814,206.600 195.286 C 200.952 196.497,188.352 196.497,183.000 195.286 C 181.020 194.838,177.423 194.168,175.007 193.796 C 172.591 193.425,169.981 192.800,169.207 192.407 C 168.433 192.014,166.592 191.331,165.116 190.890 C 161.068 189.680,154.174 184.767,152.726 182.061 C 151.701 180.147,149.164 179.408,146.718 180.311 C 145.553 180.741,143.908 181.218,143.062 181.372 C 142.217 181.525,140.507 182.164,139.262 182.791 C 138.018 183.418,136.243 184.131,135.318 184.376 C 134.393 184.621,133.111 185.263,132.470 185.803 C 131.828 186.342,130.425 187.160,129.352 187.621 C 128.279 188.081,126.861 188.867,126.200 189.369 C 125.540 189.871,124.422 190.579,123.716 190.943 C 121.115 192.282,117.100 196.381,113.326 201.551 C 113.066 201.908,112.588 203.460,112.264 205.000 L 111.675 207.800 112.844 208.900 L 114.013 210.000 176.744 210.000 L 239.476 210.000 240.238 209.159 C 240.858 208.475,241.041 207.478,241.221 203.809 C 241.396 200.255,241.608 199.056,242.221 198.150 C 242.650 197.517,243.360 196.350,243.800 195.555 C 245.144 193.129,247.512 191.394,251.603 189.840 C 259.168 186.966,259.626 185.813,253.869 184.135 C 252.731 183.804,251.170 183.160,250.400 182.704 C 249.630 182.249,247.740 181.559,246.200 181.171 C 244.660 180.783,242.446 180.195,241.280 179.864 L 239.160 179.262 237.990 180.931 M292.689 180.300 C 292.330 180.685,291.665 181.360,291.211 181.800 C 285.751 187.087,285.418 186.600,294.498 186.600 C 301.775 186.600,303.253 186.299,301.004 185.275 C 300.446 185.020,299.779 184.352,299.523 183.791 C 299.267 183.230,298.458 182.485,297.725 182.137 C 296.951 181.770,296.291 181.105,296.152 180.552 C 295.856 179.372,293.699 179.214,292.689 180.300 M246.384 182.232 C 247.805 182.559,249.284 183.114,249.670 183.464 C 250.057 183.814,251.575 184.433,253.044 184.841 C 256.902 185.910,256.874 186.500,252.905 187.783 C 251.752 188.156,250.697 188.642,250.561 188.864 C 250.424 189.085,249.492 189.618,248.489 190.048 C 246.504 190.899,243.343 193.718,242.938 194.998 C 242.799 195.439,242.216 196.416,241.643 197.168 C 240.685 198.426,240.590 198.908,240.459 203.168 C 240.381 205.716,240.133 208.025,239.909 208.300 C 239.480 208.827,115.197 209.081,113.833 208.557 C 112.390 208.004,113.284 203.096,115.210 201.000 C 115.816 200.340,116.437 199.384,116.591 198.876 C 116.744 198.367,117.261 197.773,117.739 197.555 C 118.218 197.337,118.915 196.626,119.288 195.976 C 119.661 195.325,120.403 194.627,120.936 194.424 C 121.470 194.221,122.285 193.524,122.748 192.873 C 123.279 192.127,124.084 191.598,124.930 191.440 C 125.667 191.301,126.974 190.596,127.835 189.872 C 128.696 189.149,130.158 188.336,131.086 188.067 C 132.013 187.797,133.003 187.250,133.286 186.852 C 133.967 185.892,134.968 185.407,137.495 184.814 C 138.648 184.544,140.058 183.955,140.630 183.505 C 143.695 181.094,151.259 181.055,152.347 183.444 C 152.587 183.971,153.320 184.728,153.976 185.127 C 154.632 185.526,155.549 186.335,156.013 186.926 C 156.478 187.517,157.070 188.002,157.329 188.004 C 157.588 188.006,158.587 188.634,159.550 189.399 C 161.155 190.675,163.337 191.592,164.778 191.598 C 165.097 191.599,166.032 192.068,166.856 192.639 C 167.986 193.422,169.322 193.817,172.278 194.241 C 174.435 194.551,177.280 195.157,178.600 195.588 C 184.784 197.606,204.274 197.879,209.600 196.022 C 211.030 195.523,214.260 194.782,216.777 194.376 C 219.820 193.885,221.718 193.368,222.440 192.833 C 223.038 192.391,224.399 191.817,225.464 191.556 C 227.684 191.014,229.600 190.131,229.600 189.650 C 229.600 189.470,230.353 188.982,231.273 188.567 C 232.986 187.795,236.729 184.379,238.295 182.158 C 239.271 180.775,240.099 180.782,246.384 182.232 M195.718 183.498 C 197.433 183.573,200.133 183.572,201.718 183.497 C 203.303 183.421,201.900 183.359,198.600 183.360 C 195.300 183.361,194.003 183.422,195.718 183.498 M116.155 237.453 C 114.953 239.829,113.411 241.097,110.567 242.050 C 109.371 242.451,102.470 242.645,81.400 242.871 C 33.924 243.379,26.705 243.563,25.900 244.291 C 24.784 245.300,24.890 251.195,26.042 252.238 C 26.867 252.984,29.756 253.000,165.886 253.000 L 304.887 253.000 305.969 251.705 C 310.774 245.950,320.894 245.811,327.200 251.414 C 329.202 253.193,329.290 253.201,345.474 253.176 C 361.279 253.152,364.591 252.948,365.256 251.957 C 366.084 250.722,365.481 244.394,364.456 243.564 C 363.531 242.816,361.177 242.800,251.499 242.800 C 140.583 242.800,139.460 242.792,136.795 241.999 C 133.442 241.000,132.512 240.269,131.000 237.445 L 129.800 235.203 123.548 235.201 L 117.295 235.200 116.155 237.453 M130.171 240.185 C 130.389 241.347,130.637 241.609,131.715 241.815 C 132.643 241.993,133.167 242.414,133.600 243.331 C 134.501 245.236,129.189 245.152,250.900 245.177 L 364.400 245.200 364.400 248.400 L 364.400 251.600 347.039 251.600 L 329.678 251.600 329.268 250.424 C 328.956 249.528,328.535 249.186,327.505 248.993 C 326.502 248.805,326.042 248.446,325.723 247.601 C 325.112 245.983,323.280 245.597,316.400 245.642 C 309.354 245.688,308.736 245.830,308.253 247.516 C 307.957 248.547,307.675 248.800,306.821 248.800 C 306.130 248.800,305.281 249.291,304.400 250.200 L 303.043 251.600 179.122 251.600 L 55.200 251.600 55.200 248.413 L 55.200 245.226 83.500 245.113 C 113.102 244.995,112.910 245.007,113.533 243.220 C 113.830 242.369,114.264 242.039,115.361 241.834 C 116.604 241.600,116.800 241.412,116.800 240.449 C 116.800 238.803,116.810 238.800,123.622 238.800 L 129.911 238.800 130.171 240.185 M250.749 310.662 C 250.301 311.202,250.200 314.722,250.200 329.762 L 250.200 348.200 251.243 350.200 C 251.816 351.300,252.601 353.190,252.987 354.400 C 253.373 355.610,254.181 357.230,254.783 358.000 C 255.384 358.770,256.163 359.940,256.513 360.600 C 256.863 361.260,257.926 362.520,258.875 363.400 L 260.600 365.000 285.600 365.200 C 313.535 365.423,311.704 365.221,313.680 368.299 C 317.184 373.756,317.475 376.000,314.679 376.000 C 314.317 376.000,313.744 376.535,313.406 377.188 C 313.068 377.842,312.389 378.607,311.896 378.888 C 311.174 379.300,285.667 379.420,180.700 379.504 L 50.400 379.607 50.400 382.757 C 50.400 385.685,50.463 385.924,51.300 386.148 C 51.795 386.281,125.235 386.392,214.500 386.395 L 376.800 386.400 376.800 383.000 L 376.800 379.600 356.500 379.598 C 335.332 379.595,333.687 379.477,332.998 377.910 C 332.779 377.412,332.106 376.768,331.502 376.481 C 330.030 375.780,329.818 374.619,330.605 371.581 C 332.188 365.473,332.134 365.494,346.600 365.179 C 352.760 365.045,357.813 364.904,357.828 364.867 C 357.844 364.830,358.766 363.665,359.878 362.277 C 360.990 360.890,362.213 359.135,362.597 358.377 C 362.981 357.620,363.726 356.424,364.252 355.720 C 364.877 354.885,365.656 352.588,366.490 349.120 L 367.769 343.800 367.913 328.800 C 368.072 312.105,367.969 311.146,365.935 310.437 C 363.596 309.622,251.430 309.840,250.749 310.662 M365.380 312.538 L 366.400 313.876 366.400 327.317 C 366.400 337.031,366.231 342.068,365.790 345.480 C 364.903 352.344,364.823 352.662,363.556 354.255 C 362.921 355.054,362.214 356.404,361.985 357.255 C 361.756 358.106,361.152 359.075,360.643 359.408 C 360.134 359.742,359.385 360.632,358.979 361.388 C 357.798 363.580,355.874 363.999,346.925 364.008 C 332.774 364.023,330.813 364.835,330.048 371.000 L 329.800 373.000 323.491 373.110 C 318.645 373.195,317.149 373.102,317.037 372.710 C 316.957 372.430,316.686 371.480,316.435 370.600 C 316.185 369.720,315.201 368.135,314.249 367.078 C 311.585 364.119,311.633 364.125,284.300 363.789 C 271.375 363.631,260.800 363.345,260.800 363.155 C 260.800 362.965,260.096 362.366,259.236 361.822 C 258.218 361.180,257.583 360.435,257.420 359.691 C 257.282 359.062,256.482 357.716,255.642 356.700 C 254.560 355.391,254.043 354.321,253.865 353.024 C 253.727 352.018,253.026 350.071,252.307 348.698 L 251.000 346.200 250.867 330.400 C 250.775 319.539,250.874 314.133,251.181 313.106 L 251.629 311.611 264.514 311.500 C 271.601 311.439,296.966 311.346,320.880 311.294 L 364.359 311.200 365.380 312.538 " stroke="none" fill="#86a6a5" fill-rule="evenodd"></path></g></svg>